<svg xmlns="http://www.w3.org/2000/svg" xmlns:xlink="http://www.w3.org/1999/xlink" width="664.266" height="377.886" viewBox="0 0 664.266 377.886">
    <defs>
        <style>
            .cls-1,.cls-10{opacity:.2}.cls-2{fill:#ee2e22}.cls-3,.cls-8{fill:#fff}.cls-4{fill:#31b549}.cls-5{fill:#002f4c}.cls-6{fill:#005558}.cls-7{fill:#f99200}.cls-8{opacity:.33}.cls-9{fill:#8b8b8b}.cls-11{fill:#122043}.cls-12{fill:#0f787a}.cls-13{fill:#a4d1bb}.cls-14{fill:#53b6b9}.cls-15{fill:url(#linear-gradient)}.cls-16{fill:url(#linear-gradient-2)}.cls-17{fill:#bcbcbc}.cls-18{fill:url(#linear-gradient-3)}.cls-19{fill:url(#linear-gradient-4)}.cls-20{fill:#dbdbdb}.cls-21{fill:red}.cls-22{opacity:.296}.cls-23{opacity:.3}.cls-24{fill:#f7a57a}.cls-25{fill:#f18c72}.cls-26{fill:url(#linear-gradient-5)}.cls-27{fill:url(#linear-gradient-7)}.cls-28{fill:url(#linear-gradient-8)}.cls-29{fill:#4a4a4a}.cls-30{fill:url(#linear-gradient-12)}.cls-31{fill:#ffc630}.cls-32{fill:#de1d4c}.cls-33{fill:url(#linear-gradient-19)}.cls-34{fill:url(#linear-gradient-20)}
        </style>
        <linearGradient id="linear-gradient" x1="28.95" x2="29.95" y1=".5" y2=".5" gradientUnits="objectBoundingBox">
            <stop offset="0" stop-color="#eef7f6"/>
            <stop offset="1" stop-color="#b2deeb"/>
        </linearGradient>
        <linearGradient id="linear-gradient-2" x1="35.659" x2="36.659" y1=".5" y2=".5" xlink:href="#linear-gradient"/>
        <linearGradient id="linear-gradient-3" x1="-12.005" x2="-11.017" y1=".753" y2=".753" xlink:href="#linear-gradient"/>
        <linearGradient id="linear-gradient-4" x1="-10.265" x2="-9.269" y1=".774" y2=".774" xlink:href="#linear-gradient"/>
        <linearGradient id="linear-gradient-5" x1=".896" x2="-.542" y1=".143" y2="1.535" gradientUnits="objectBoundingBox">
            <stop offset="0" stop-color="#53d8ff"/>
            <stop offset="1" stop-color="#3840f7"/>
        </linearGradient>
        <linearGradient id="linear-gradient-7" x2="1" y1=".5" y2=".5" gradientUnits="objectBoundingBox">
            <stop offset="0" stop-color="#daece5"/>
            <stop offset="1" stop-color="#b2deeb"/>
        </linearGradient>
        <linearGradient id="linear-gradient-8" x2="1" y1=".5" y2=".5" gradientUnits="objectBoundingBox">
            <stop offset="0" stop-color="#2b3582"/>
            <stop offset="1" stop-color="#150e42"/>
        </linearGradient>
        <linearGradient id="linear-gradient-12" x1=".708" x2=".066" y1=".132" y2="1.227" xlink:href="#linear-gradient-8"/>
        <linearGradient id="linear-gradient-19" x1=".281" x2=".902" y1=".171" y2="1.621" gradientUnits="objectBoundingBox">
            <stop offset="0" stop-color="#fdf53f"/>
            <stop offset=".665" stop-color="#e57a58"/>
            <stop offset="1" stop-color="#d93c65"/>
        </linearGradient>
        <linearGradient id="linear-gradient-20" x1=".904" x2="1.904" y1=".5" y2=".5" xlink:href="#linear-gradient-7"/>
    </defs>
    <g id="Group_1850" data-name="Group 1850" transform="translate(-43.99 -42.94)">
        <g id="Group_1784" class="cls-1" data-name="Group 1784" transform="translate(488.901 197.594)">
            <path id="Path_5859" d="M391.227 276.539s87.115 13.105 123.7-12.685c17.625-12.427 14.813-38.756-4.624-48.1-56.826-27.317-122.675 51.594-122.675 51.594z" class="cls-2" data-name="Path 5859" transform="translate(-307.293 -109.302)"/>
            <g id="Group_1781" data-name="Group 1781" transform="translate(74.46 121.218)">
                <path id="Path_5860" d="M385.179 271.584l-1.4-2.174c3.823-2.453 93.412-60.126 143.835-42.712l.641 2.82c-49.239-17.004-142.155 41.473-143.076 42.066z" class="cls-3" data-name="Path 5860" transform="translate(-383.783 -223.427)"/>
            </g>
            <path id="Path_5861" d="M372.368 224.465c-2.909-16.485-2.739-29.752-.851-40.378 5.125-28.835 35.036-46.391 63.023-37.76 15.7 4.842 32.338 16.23 40.526 41.712 17.995 56.008-83.223 132.988-83.223 132.988l-17.926-9.053s10.075-21.636-1.549-87.509z" class="cls-4" data-name="Path 5861" transform="translate(-316.536 -144.121)"/>
            <path id="Path_5862" d="M372.476 281.55s-46.52-37.787-35.8-82.572c3.334-13.929 19.452-20.6 31.892-13.5 63.065 35.988 23.886 106.161 23.886 106.161z" class="cls-5" data-name="Path 5862" transform="translate(-335.068 -123.782)"/>
            <g id="Group_1782" data-name="Group 1782" transform="translate(63.562 .09)">
                <path id="Path_5863" d="M378.634 316.392l-1.981-1.657c.76-.908 75.173-92.393 42.831-170.555l2.978.272c32.938 79.61-43.062 171.02-43.828 171.94z" class="cls-3" data-name="Path 5863" transform="translate(-376.653 -144.18)"/>
            </g>
            <g id="Group_1783" data-name="Group 1783" transform="translate(9.572 61.603)">
                <path id="Path_5864" d="M380.3 286.941c-.05-.795-5.772-79.682-38.97-100.966l2.412-1.551c34.3 21.99 38.931 99.072 39.135 102.357z" class="cls-6" data-name="Path 5864" transform="translate(-341.331 -184.424)"/>
            </g>
        </g>
        <g id="Group_1788" data-name="Group 1788" transform="translate(57.901 50.382)">
            <g id="Group_1787" data-name="Group 1787">
                <path id="Rectangle_2321" d="M0 0h8.887v49.072H0z" class="cls-7" data-name="Rectangle 2321" transform="rotate(-17.778 383.276 -166.28)"/>
                <path id="Path_5865" d="M114.4 167.222l-.246.076s-15.377-42.989-14.981-46.729 3.621-8.28 2.936-.942 12.291 47.595 12.291 47.595z" class="cls-8" data-name="Path 5865" transform="translate(-28.738 -11.924)"/>
                <g id="Group_1786" data-name="Group 1786">
                    <path id="Path_5866" d="M61.509 74.791c8.13-6.634 16.147-13.472 25.029-19.065 1.425-.9 7.1-5.182 3.393-2.247l3.535-1.321c4.741-.214 9.379.362 14.139-.3a47.569 47.569 0 0 0 12.443-3.471 57.051 57.051 0 0 1 20.442 104.5 28.2 28.2 0 0 0-6.594 1.522 15.549 15.549 0 0 0-2.332.654 75.1 75.1 0 0 0-9.847 2.034 31.428 31.428 0 0 0-9.166 4.463 57.028 57.028 0 0 1-51.042-86.769z" class="cls-9" data-name="Path 5866" transform="translate(-53.089 -47.504)"/>
                    <path id="Path_5867" d="M132.055 146.972a27.363 27.363 0 0 0-11.578 4.712 65.144 65.144 0 0 1-6.912 4.686c-.136.057-.261.133-.4.191L79.042 50.279a57.034 57.034 0 0 1 53.013 96.692z" class="cls-10" data-name="Path 5867" transform="translate(-39.376 -47.393)"/>
                    <g id="Group_1785" data-name="Group 1785">
                        <path id="Path_5868" d="M55.838 122.308a57.044 57.044 0 1 0 36.873-71.752 57.046 57.046 0 0 0-36.873 71.752zm6.1-1.956a50.642 50.642 0 1 1 63.7 32.734 50.642 50.642 0 0 1-63.705-32.735z" class="cls-11" data-name="Path 5868" transform="translate(-53.091 -47.809)"/>
                    </g>
                </g>
                <path id="Path_5869" d="M126.046 202.172l-21.581-57.557a2.747 2.747 0 0 1 1.655-3.509l7.166-2.3a2.747 2.747 0 0 1 3.387 1.892l13.162 41.055c-4.098-1.347.737 18.175-3.789 20.419z" class="cls-11" data-name="Path 5869" transform="translate(-26.017 .22)"/>
                <path id="Path_5870" d="M124.548 209.915l-20.083-66.179a2.763 2.763 0 0 1 1.374-3.384c.665 1.105 18.408 49.129 26.382 69.852-1.666.283-5.981-1.128-7.673-.289z" class="cls-6" data-name="Path 5870" transform="translate(-26.017 1.099)"/>
            </g>
            <path id="Path_5871" d="M80.706 79.013a7.357 7.357 0 1 1-9.255-4.752 7.355 7.355 0 0 1 9.255 4.752z" class="cls-3" data-name="Path 5871" transform="translate(-46.087 -34.017)"/>
            <path id="Path_5872" d="M74.337 88.429a3.5 3.5 0 1 1-4.405-2.261 3.5 3.5 0 0 1 4.405 2.261z" class="cls-3" data-name="Path 5872" transform="translate(-45.475 -27.625)"/>
        </g>
        <g id="Group_1792" class="cls-1" data-name="Group 1792" transform="translate(43.99 192.537)">
            <path id="Path_5873" d="M138.826 282.442s64.842-64.19 66.1-110.528c.6-22.327-22.993-36.3-42.789-25.958-57.877 30.244-33.171 133.782-33.171 133.782z" class="cls-6" data-name="Path 5873" transform="translate(-1.85 -139.93)"/>
            <g id="Group_1789" data-name="Group 1789" transform="translate(131.078 4.508)">
                <path id="Path_5874" d="M132.415 289.794l-2.669-.188c.332-4.692 7.96-114.777 53.65-145.844l2.738 1.215c-44.62 30.341-53.634 143.683-53.719 144.817z" class="cls-12" data-name="Path 5874" transform="translate(-129.746 -143.762)"/>
            </g>
            <path id="Path_5875" d="M91.436 252.822c-15.485-7.8-26.392-16.156-34.043-24.306-20.76-22.117-16.8-57.818 7.7-75.7 13.746-10.033 33.5-16.787 59.726-7.8 57.635 19.759 58.828 151.457 58.828 151.457l-18.619 9.272s-11.716-21.766-73.592-52.923z" class="cls-9" data-name="Path 5875" transform="translate(-43.99 -140.813)"/>
            <path id="Path_5876" d="M142.722 277.362s-60.181 15.205-90.716-21.429c-9.5-11.395-5.05-28.908 8.547-34.836 68.936-30.053 102.912 45.936 102.912 45.936z" class="cls-7" data-name="Path 5876" transform="translate(-42.427 -102.1)"/>
            <g id="Group_1790" data-name="Group 1790" transform="translate(12.155 18.026)">
                <path id="Path_5877" d="M169.575 295.494l-2.6.619c-.283-1.194-30.122-119.63-115.031-141.2l2.07-2.3c86.48 21.968 115.273 141.672 115.561 142.881z" class="cls-3" data-name="Path 5877" transform="translate(-51.942 -152.606)"/>
            </g>
            <g id="Group_1791" data-name="Group 1791" transform="translate(4.522 133.734)">
                <path id="Path_5878" d="M154.891 264.529c-.691-.451-69.713-44.569-107.943-30.2l.206-2.962c39.5-14.851 106.348 29.057 109.2 30.921z" class="cls-3" data-name="Path 5878" transform="translate(-46.948 -228.307)"/>
            </g>
        </g>
        <g id="Group_1799" data-name="Group 1799" transform="translate(52.423 164.961)">
            <g id="Group_1793" data-name="Group 1793" transform="translate(4.908)">
                <path id="Path_5879" d="M57.243 129.658l-4.525 8.9 9.5-2.168 32.512-10.244z" class="cls-13" data-name="Path 5879" transform="translate(-52.718 -120.988)"/>
                <path id="Path_5880" d="M52.718 135.308l16.144-1-3.956-2.012z" class="cls-14" data-name="Path 5880" transform="translate(-52.718 -117.738)"/>
                <path id="Path_5881" d="M56.655 131.441l-2.825-8.67 40.313 5.158z" class="cls-15" data-name="Path 5881" transform="translate(-52.13 -122.771)"/>
                <path id="Path_5882" d="M91.444 126.146l-32.509 10.243 4.846 12.5z" class="cls-16" data-name="Path 5882" transform="translate(-49.432 -120.988)"/>
            </g>
            <g id="Group_1798" data-name="Group 1798" transform="translate(0 22.867)">
                <g id="Group_1794" data-name="Group 1794" transform="translate(8.056)">
                    <path id="Path_5883" d="M55.194 141.39a.735.735 0 0 1-.229-.179.757.757 0 0 1 .075-1.07 21.356 21.356 0 0 1 3.195-2.3.759.759 0 0 1 .769 1.31 19.869 19.869 0 0 0-2.967 2.138.758.758 0 0 1-.843.101z" class="cls-14" data-name="Path 5883" transform="translate(-54.778 -137.732)"/>
                </g>
                <g id="Group_1796" data-name="Group 1796" transform="translate(0 5.588)">
                    <g id="Group_1795" data-name="Group 1795">
                        <path id="Path_5884" d="M68.8 222.742c-.014-.008-.029-.014-.043-.023a22.9 22.9 0 0 1-5.969-5.168.759.759 0 1 1 1.171-.967 21.374 21.374 0 0 0 5.57 4.827.759.759 0 0 1-.729 1.331zm-8.376-8.789a.746.746 0 0 1-.315-.3 28.624 28.624 0 0 1-2.91-7.3.76.76 0 0 1 1.475-.365 27.183 27.183 0 0 0 2.754 6.913.759.759 0 0 1-1 1.052zm-3.545-11.646a.758.758 0 0 1-.414-.624l-.023-.367a36.553 36.553 0 0 1 .388-7.448.759.759 0 0 1 1.5.228 35.066 35.066 0 0 0-.373 7.138l.021.342a.758.758 0 0 1-1.1.731zm1.3-12.148a.76.76 0 0 1-.39-.871 56.787 56.787 0 0 1 2.533-7.347.759.759 0 1 1 1.4.588 55.348 55.348 0 0 0-2.465 7.149.758.758 0 0 1-.928.54.709.709 0 0 1-.152-.059zm4.41-11.435a.761.761 0 0 1-.338-1.012l.249-.5a24.688 24.688 0 0 1-3.315-1.854.759.759 0 1 1 .844-1.263 23.164 23.164 0 0 0 3.162 1.764 119.638 119.638 0 0 1 2.73-4.942.759.759 0 1 1 1.313.761 125.93 125.93 0 0 0-2.64 4.77q1.066.408 2.167.714a.76.76 0 1 1-.407 1.464 24.853 24.853 0 0 1-2.455-.819c-.1.191-.191.382-.286.573a.76.76 0 0 1-1.016.347zm-6.863-6.253a.743.743 0 0 1-.2-.147 20.547 20.547 0 0 1-4.346-6.612.759.759 0 0 1 1.4-.576 19.123 19.123 0 0 0 4.029 6.129.759.759 0 0 1-.888 1.206zm15.011 6.918a.76.76 0 0 1 .41-1.434 22.161 22.161 0 0 0 7.363-.573.759.759 0 1 1 .371 1.472 23.7 23.7 0 0 1-7.864.614.758.758 0 0 1-.282-.079zm-20.466-17.7a.756.756 0 0 1-.405-.546 24.579 24.579 0 0 1-.075-7.881.759.759 0 0 1 1.5.223 23.02 23.02 0 0 0 .069 7.4.758.758 0 0 1-1.091.807zm32.378 15.494a.759.759 0 0 1 0-1.353 18.01 18.01 0 0 0 1.648-.954 14.7 14.7 0 0 0 3.887-3.713.759.759 0 1 1 1.233.885 16.2 16.2 0 0 1-4.292 4.1 20.07 20.07 0 0 1-1.784 1.033.759.759 0 0 1-.695 0zm-14.03-9.142c-.023-.012-.046-.024-.067-.038a.761.761 0 0 1-.228-1.05 29.7 29.7 0 0 1 4.951-6.093.76.76 0 1 1 1.018 1.128 28.185 28.185 0 0 0-4.692 5.787.758.758 0 0 1-.985.264zm-17.334-18.459a.759.759 0 0 1-.374-.923 25.947 25.947 0 0 1 1.4-3.314 24.638 24.638 0 0 1 2.276-3.653.759.759 0 1 1 1.212.913 23.25 23.25 0 0 0-2.134 3.428 24.409 24.409 0 0 0-1.321 3.12.759.759 0 0 1-.964.471.7.7 0 0 1-.095-.042zm39.146 18.571a.759.759 0 0 1-.393-.861 6.848 6.848 0 0 0-.492-4.98 6.232 6.232 0 0 0-1.041-1.434.759.759 0 0 1 1.088-1.058 7.7 7.7 0 0 1 1.3 1.784 8.43 8.43 0 0 1 .622 6.056.76.76 0 0 1-.92.553.809.809 0 0 1-.164-.06zm-13.2-8.625a.76.76 0 0 1 .026-1.366 12.26 12.26 0 0 1 8-.752.759.759 0 1 1-.371 1.472 10.87 10.87 0 0 0-6.993.659.754.754 0 0 1-.659-.013z" class="cls-14" data-name="Path 5884" transform="translate(-49.507 -141.388)"/>
                    </g>
                </g>
                <g id="Group_1797" data-name="Group 1797" transform="translate(23.159 87.362)">
                    <path id="Path_5885" d="M65.073 196.324a.76.76 0 0 1 .553-1.408 16.218 16.218 0 0 0 3.569.6.759.759 0 1 1-.083 1.516 17.852 17.852 0 0 1-3.9-.656.82.82 0 0 1-.139-.052z" class="cls-14" data-name="Path 5885" transform="translate(-64.659 -194.887)"/>
                </g>
            </g>
        </g>
        <g id="Group_1805" data-name="Group 1805" transform="translate(82.743 89.151)">
            <g id="Group_1804" data-name="Group 1804">
                <g id="Group_1802" data-name="Group 1802" transform="translate(0 256.847)">
                    <g id="Group_1800" data-name="Group 1800">
                        <path id="Path_5886" d="M402.132 241.213l-254.158.253-78.63 63.306h332.788z" class="cls-17" data-name="Path 5886" transform="translate(-69.344 -241.213)"/>
                    </g>
                    <g id="Group_1801" data-name="Group 1801" transform="translate(222.531)">
                        <path id="Path_5887" d="M214.933 241.213l254.158.253 78.63 63.306H214.933z" class="cls-17" data-name="Path 5887" transform="translate(-214.933 -241.213)"/>
                    </g>
                    <path id="Path_5888" d="M402.131 282.221H69.344c0 6.708 7.616 12.147 17.012 12.147h521.295c9.4 0 17.012-5.438 17.012-12.147z" class="cls-9" data-name="Path 5888" transform="translate(-69.344 -219.541)"/>
                </g>
                <rect id="Rectangle_2322" width="412.823" height="262.597" class="cls-6" data-name="Rectangle 2322" rx="4.755" transform="translate(73.213)"/>
                <path id="Rectangle_2323" d="M6.615 0h377.922a6.614 6.614 0 0 1 6.614 6.614V234.4a6.615 6.615 0 0 1-6.615 6.615H6.614A6.614 6.614 0 0 1 0 234.4V6.615A6.615 6.615 0 0 1 6.615 0z" class="cls-14" data-name="Rectangle 2323" transform="translate(83.693 10.038)"/>
                <g id="Group_1803" data-name="Group 1803" transform="translate(96.951 269.466)">
                    <path id="Path_5889" d="M317.047 277.962h-8.037a1.945 1.945 0 0 1-1.744-1.085l-2.417-4.9a1.943 1.943 0 0 1 1.744-2.8h7.67a1.945 1.945 0 0 1 1.692.984l2.783 4.9a1.945 1.945 0 0 1-1.691 2.901z" class="cls-3" data-name="Path 5889" transform="translate(-41.94 -239.057)"/>
                    <path id="Path_5890" d="M328.13 277.962h-7.84a1.946 1.946 0 0 1-1.671-.951l-2.915-4.9a1.944 1.944 0 0 1 1.671-2.938h7.473a1.943 1.943 0 0 1 1.616.862l3.282 4.9a1.945 1.945 0 0 1-1.616 3.027z" class="cls-3" data-name="Path 5890" transform="translate(-36.241 -239.057)"/>
                    <path id="Path_5891" d="M183.132 255.19h-17.948a1.082 1.082 0 0 1-.76-1.854l3.6-3.555a1.082 1.082 0 0 1 .761-.312h17.39a1.083 1.083 0 0 1 .822 1.788l-3.048 3.555a1.083 1.083 0 0 1-.817.378z" class="cls-3" data-name="Path 5891" transform="translate(-116.217 -249.469)"/>
                    <path id="Path_5892" d="M349.836 277.991H194.877a1.786 1.786 0 0 1-1.567-2.644l2.863-5.224a1.786 1.786 0 0 1 1.565-.928H347.7a1.784 1.784 0 0 1 1.654 1.111l2.131 5.224a1.786 1.786 0 0 1-1.649 2.461z" class="cls-3" data-name="Path 5892" transform="translate(-100.896 -239.045)"/>
                    <path id="Path_5893" d="M163.409 255.19h-17.6a1.083 1.083 0 0 1-.682-1.924l4.4-3.557a1.081 1.081 0 0 1 .682-.24h17.041a1.083 1.083 0 0 1 .735 1.877l-3.84 3.557a1.085 1.085 0 0 1-.736.287z" class="cls-3" data-name="Path 5893" transform="translate(-126.456 -249.469)"/>
                    <path id="Path_5894" d="M223.57 255.19h-18.51a1.083 1.083 0 0 1-.946-1.61l1.976-3.555a1.082 1.082 0 0 1 .946-.556h17.955a1.083 1.083 0 0 1 1.009 1.484l-1.422 3.557a1.081 1.081 0 0 1-1.008.68z" class="cls-3" data-name="Path 5894" transform="translate(-95.143 -249.469)"/>
                    <path id="Path_5895" d="M203.923 255.19h-18.267a1.083 1.083 0 0 1-.854-1.749l2.768-3.555a1.085 1.085 0 0 1 .854-.417h17.712a1.083 1.083 0 0 1 .919 1.655l-2.213 3.555a1.08 1.08 0 0 1-.919.511z" class="cls-3" data-name="Path 5895" transform="translate(-105.398 -249.469)"/>
                    <path id="Path_5896" d="M263.5 255.19h-18.2a1.334 1.334 0 0 1-1.327-1.464l.3-3.054a1.332 1.332 0 0 1 1.327-1.2h17.723a1.333 1.333 0 0 1 1.331 1.256l.179 3.054a1.333 1.333 0 0 1-1.333 1.408z" class="cls-3" data-name="Path 5896" transform="translate(-74.007 -249.469)"/>
                    <path id="Path_5897" d="M244.256 255.19h-18.68a1.083 1.083 0 0 1-1.032-1.414l1.14-3.555a1.084 1.084 0 0 1 1.032-.752h18.125a1.083 1.083 0 0 1 1.068 1.258l-.585 3.557a1.082 1.082 0 0 1-1.068.906z" class="cls-3" data-name="Path 5897" transform="translate(-84.3 -249.469)"/>
                    <path id="Path_5898" d="M175.643 265.3h-20.258a1.083 1.083 0 0 1-.761-1.854l4.913-4.845a1.085 1.085 0 0 1 .761-.312h19.5a1.083 1.083 0 0 1 .822 1.787l-4.156 4.847a1.08 1.08 0 0 1-.821.377z" class="cls-3" data-name="Path 5898" transform="translate(-121.396 -244.807)"/>
                    <path id="Path_5899" d="M153.767 265.3h-19.909a1.084 1.084 0 0 1-.682-1.926l5.992-4.845a1.084 1.084 0 0 1 .682-.24H159a1.082 1.082 0 0 1 .735 1.877l-5.234 4.845a1.086 1.086 0 0 1-.734.289z" class="cls-3" data-name="Path 5899" transform="translate(-132.773 -244.807)"/>
                    <path id="Path_5900" d="M220.507 265.3h-20.82a1.084 1.084 0 0 1-.948-1.609l2.695-4.845a1.082 1.082 0 0 1 .946-.556h20.063a1.083 1.083 0 0 1 1.006 1.484l-1.937 4.845a1.083 1.083 0 0 1-1.005.681z" class="cls-3" data-name="Path 5900" transform="translate(-97.983 -244.807)"/>
                    <path id="Path_5901" d="M198.707 265.3h-20.578a1.084 1.084 0 0 1-.854-1.749l3.774-4.845a1.078 1.078 0 0 1 .854-.417h19.82a1.083 1.083 0 0 1 .919 1.655l-3.016 4.845a1.08 1.08 0 0 1-.919.511z" class="cls-3" data-name="Path 5901" transform="translate(-109.376 -244.807)"/>
                    <path id="Path_5902" d="M264.865 265.3h-20.51a1.335 1.335 0 0 1-1.328-1.464l.426-4.344a1.332 1.332 0 0 1 1.327-1.2h19.832a1.333 1.333 0 0 1 1.331 1.255l.252 4.344a1.333 1.333 0 0 1-1.33 1.409z" class="cls-3" data-name="Path 5902" transform="translate(-74.508 -244.807)"/>
                    <path id="Path_5903" d="M243.465 265.3h-20.991a1.083 1.083 0 0 1-1.03-1.414l1.556-4.843a1.084 1.084 0 0 1 1.032-.752h20.234a1.083 1.083 0 0 1 1.068 1.258l-.8 4.845a1.082 1.082 0 0 1-1.069.906z" class="cls-3" data-name="Path 5903" transform="translate(-85.939 -244.807)"/>
                    <path id="Path_5904" d="M326.737 255.19h17.946a1.083 1.083 0 0 0 .761-1.854l-3.606-3.555a1.079 1.079 0 0 0-.76-.312h-17.391a1.083 1.083 0 0 0-.822 1.788l3.049 3.555a1.081 1.081 0 0 0 .823.378z" class="cls-3" data-name="Path 5904" transform="translate(-32.45 -249.469)"/>
                    <path id="Path_5905" d="M346.611 255.19h17.6a1.083 1.083 0 0 0 .682-1.924l-4.4-3.557a1.08 1.08 0 0 0-.68-.24H342.77a1.083 1.083 0 0 0-.735 1.877l3.841 3.557a1.084 1.084 0 0 0 .735.287z" class="cls-3" data-name="Path 5905" transform="translate(-22.365 -249.469)"/>
                    <path id="Path_5906" d="M285.928 255.19h18.51a1.082 1.082 0 0 0 .946-1.61l-1.976-3.555a1.082 1.082 0 0 0-.946-.556h-17.955a1.083 1.083 0 0 0-1.006 1.484l1.421 3.557a1.081 1.081 0 0 0 1.006.68z" class="cls-3" data-name="Path 5906" transform="translate(-53.156 -249.469)"/>
                    <path id="Path_5907" d="M305.765 255.19h18.269a1.083 1.083 0 0 0 .854-1.749l-2.77-3.555a1.083 1.083 0 0 0-.854-.417h-17.711a1.084 1.084 0 0 0-.92 1.655l2.213 3.555a1.082 1.082 0 0 0 .919.511z" class="cls-3" data-name="Path 5907" transform="translate(-43.091 -249.469)"/>
                    <path id="Path_5908" d="M265.012 255.19h18.681a1.082 1.082 0 0 0 1.03-1.414l-1.14-3.555a1.084 1.084 0 0 0-1.032-.752h-18.123a1.084 1.084 0 0 0-1.07 1.258l.585 3.557a1.082 1.082 0 0 0 1.069.906z" class="cls-3" data-name="Path 5908" transform="translate(-63.768 -249.469)"/>
                    <path id="Path_5909" d="M335.407 265.3h20.257a1.083 1.083 0 0 0 .76-1.854l-4.913-4.845a1.079 1.079 0 0 0-.76-.312h-19.5a1.082 1.082 0 0 0-.821 1.787l4.154 4.847a1.083 1.083 0 0 0 .823.377z" class="cls-3" data-name="Path 5909" transform="translate(-28.452 -244.807)"/>
                    <path id="Path_5910" d="M357.534 265.3h19.909a1.084 1.084 0 0 0 .682-1.926l-5.992-4.845a1.081 1.081 0 0 0-.682-.24H352.3a1.083 1.083 0 0 0-.737 1.877l5.235 4.845a1.083 1.083 0 0 0 .736.289z" class="cls-3" data-name="Path 5910" transform="translate(-17.329 -244.807)"/>
                    <path id="Path_5911" d="M289.968 265.3h20.821a1.083 1.083 0 0 0 .946-1.609l-2.693-4.845a1.083 1.083 0 0 0-.948-.556h-20.062a1.083 1.083 0 0 0-1.006 1.484l1.937 4.845a1.084 1.084 0 0 0 1.005.681z" class="cls-3" data-name="Path 5911" transform="translate(-51.293 -244.807)"/>
                    <path id="Path_5912" d="M312.058 265.3h20.578a1.083 1.083 0 0 0 .854-1.749l-3.772-4.845a1.083 1.083 0 0 0-.854-.417h-19.82a1.083 1.083 0 0 0-.92 1.655l3.016 4.845a1.082 1.082 0 0 0 .918.511z" class="cls-3" data-name="Path 5912" transform="translate(-40.189 -244.807)"/>
                    <path id="Path_5913" d="M266.674 265.3h20.991a1.084 1.084 0 0 0 1.032-1.414l-1.554-4.845a1.084 1.084 0 0 0-1.032-.752h-20.233a1.083 1.083 0 0 0-1.068 1.258l.8 4.845a1.082 1.082 0 0 0 1.064.908z" class="cls-3" data-name="Path 5913" transform="translate(-63.001 -244.807)"/>
                </g>
            </g>
        </g>
        <g id="Group_1808" data-name="Group 1808" transform="translate(462.208 42.94)">
            <g id="Group_1806" data-name="Group 1806">
                <path id="Path_5914" d="M317.605 58.562L344.438 45.1l13.514-2.156 10.074 1.887z" class="cls-18" data-name="Path 5914" transform="translate(-317.605 -42.94)"/>
                <path id="Path_5915" d="M317.605 57.909L367.283 47.2l.743-3.021" class="cls-13" data-name="Path 5915" transform="translate(-317.605 -42.287)"/>
                <path id="Path_5916" d="M368.313 51.708l-.067.1-2.363 7.555-48.2-5.426z" class="cls-14" data-name="Path 5916" transform="translate(-317.562 -38.306)"/>
                <path id="Path_5917" d="M377.811 51.085l-6.794-5.97-53.2 12.228 45.367.43z" class="cls-19" data-name="Path 5917" transform="translate(-317.493 -41.79)"/>
            </g>
            <g id="Group_1807" data-name="Group 1807" transform="translate(67.144 4.161)">
                <path id="Path_5918" d="M428.922 116.417a36.892 36.892 0 0 1-4.651-2.238.715.715 0 0 0-.708 1.243 38.083 38.083 0 0 0 4.832 2.325q.894.358 1.8.666a.714.714 0 1 0 .465-1.351q-.874-.302-1.738-.645z" class="cls-14" data-name="Path 5918" transform="translate(-328.943 -9.501)"/>
                <path id="Path_5919" d="M369.287 45.907c-2.241.2-4.576.475-7.14.845a.715.715 0 1 0 .2 1.415c2.537-.367 4.848-.639 7.063-.835a.727.727 0 0 0 .339-.122.716.716 0 0 0-.466-1.3z" class="cls-14" data-name="Path 5919" transform="translate(-361.534 -45.534)"/>
                <path id="Path_5920" d="M377.247 47.05a.715.715 0 0 0-.368-1.305 78.9 78.9 0 0 0-7.216 0 .715.715 0 0 0 .064 1.428 76.716 76.716 0 0 1 7.083 0 .7.7 0 0 0 .437-.123z" class="cls-14" data-name="Path 5920" transform="translate(-357.598 -45.662)"/>
                <path id="Path_5921" d="M418.571 109.7a.7.7 0 0 0-1.01-.026.713.713 0 0 0-.026 1.01 39.863 39.863 0 0 0 5.46 4.8.715.715 0 0 0 .842-1.156 38.554 38.554 0 0 1-5.266-4.628z" class="cls-14" data-name="Path 5921" transform="translate(-332.042 -11.939)"/>
                <path id="Path_5922" d="M417.969 110.721a.716.716 0 0 0 .138-1q-.576-.764-1.116-1.553a37.406 37.406 0 0 1-2.577-4.4.712.712 0 0 0-.957-.324.724.724 0 0 0-.324.958 38.327 38.327 0 0 0 2.676 4.572q.559.819 1.159 1.611a.714.714 0 0 0 .972.159z" class="cls-14" data-name="Path 5922" transform="translate(-334.302 -15.166)"/>
                <path id="Path_5923" d="M413.588 104.549a.693.693 0 0 0 .157-.081.712.712 0 0 0 .268-.836 48.8 48.8 0 0 1-1.913-6.772.715.715 0 1 0-1.4.293 50.068 50.068 0 0 0 1.969 6.971.715.715 0 0 0 .919.425z" class="cls-14" data-name="Path 5923" transform="translate(-335.557 -18.905)"/>
                <path id="Path_5924" d="M401.805 61.722q.848 1.123 1.643 2.287a53.08 53.08 0 0 1 2.253 3.6.716.716 0 0 0 .977.264l.047-.029a.715.715 0 0 0 .216-.946 55.44 55.44 0 0 0-2.311-3.688q-.812-1.195-1.686-2.346a.679.679 0 0 0-1-.138.714.714 0 0 0-.139.996z" class="cls-14" data-name="Path 5924" transform="translate(-340.327 -37.789)"/>
                <path id="Path_5925" d="M405.612 67.976a51.956 51.956 0 0 1 2.579 6.557.715.715 0 0 0 .9.466.726.726 0 0 0 .186-.09.714.714 0 0 0 .278-.806 53.49 53.49 0 0 0-2.649-6.741.716.716 0 1 0-1.293.613z" class="cls-14" data-name="Path 5925" transform="translate(-338.275 -34.41)"/>
                <path id="Path_5926" d="M396.82 56.336a58.081 58.081 0 0 1 4.986 5 .717.717 0 0 0 .939.119l.072-.057a.717.717 0 0 0 .063-1.009 59.838 59.838 0 0 0-5.107-5.125.716.716 0 0 0-.952 1.07z" class="cls-14" data-name="Path 5926" transform="translate(-343.011 -40.682)"/>
                <path id="Path_5927" d="M390.751 51.658a.714.714 0 0 0 .717-.05.728.728 0 0 0 .24-.277.716.716 0 0 0-.327-.957 56.643 56.643 0 0 0-6.69-2.765.716.716 0 0 0-.46 1.356 55 55 0 0 1 6.52 2.693z" class="cls-14" data-name="Path 5927" transform="translate(-349.795 -44.653)"/>
                <path id="Path_5928" d="M410.418 89.971a.715.715 0 0 0 .659-.766l-.066-.9c-.156-2.08-.31-4.164-.5-6.239a.715.715 0 1 0-1.425.133c.191 2.067.345 4.141.5 6.212l.067.9a.716.716 0 0 0 .765.66z" class="cls-14" data-name="Path 5928" transform="translate(-336.405 -26.768)"/>
                <path id="Path_5929" d="M396.748 55.96a.712.712 0 0 0 .838.024.728.728 0 0 0 .165-.157.714.714 0 0 0-.133-1 59.393 59.393 0 0 0-6-4.04.715.715 0 1 0-.724 1.233 58.04 58.04 0 0 1 5.854 3.94z" class="cls-14" data-name="Path 5929" transform="translate(-346.205 -43.006)"/>
                <path id="Path_5930" d="M410.328 88.879a.715.715 0 0 0-.651.775c.242 2.8.5 5.068.806 7.15a.713.713 0 0 0 .812.6.7.7 0 0 0 .3-.116.713.713 0 0 0 .306-.7c-.3-2.051-.556-4.3-.8-7.065a.716.716 0 0 0-.773-.644z" class="cls-14" data-name="Path 5930" transform="translate(-336.092 -22.824)"/>
                <path id="Path_5931" d="M431.037 116.8a.715.715 0 0 0-.33 1.391 57.876 57.876 0 0 0 7.13 1.208.715.715 0 1 0 .163-1.419 56.917 56.917 0 0 1-6.963-1.18z" class="cls-14" data-name="Path 5931" transform="translate(-325.267 -8.075)"/>
                <path id="Path_5932" d="M408.54 74.032a.715.715 0 0 0-.538.856c.48 2.125.874 4.407 1.2 6.976a.715.715 0 1 0 1.418-.182c-.333-2.615-.734-4.942-1.227-7.109a.713.713 0 0 0-.853-.541z" class="cls-14" data-name="Path 5932" transform="translate(-336.985 -30.678)"/>
                <path id="Path_5933" d="M379.748 46.289q-1.247-.2-2.5-.342a.716.716 0 1 0-.165 1.421c.815.093 1.625.2 2.436.332 1.5.238 3.017.55 4.5.926a.715.715 0 1 0 .35-1.386 51.578 51.578 0 0 0-4.621-.951z" class="cls-14" data-name="Path 5933" transform="translate(-353.648 -45.514)"/>
            </g>
        </g>
        <g id="Group_1812" data-name="Group 1812" transform="translate(177.078 107.179)">
            <g id="Group_1811" data-name="Group 1811">
                <g id="Group_1809" data-name="Group 1809">
                    <path id="Path_5934" d="M502.264 306.187l-371.2.877.53-220.691 370.606-.436z" class="cls-20" data-name="Path 5934" transform="translate(-131.061 -84.456)"/>
                    <path id="Path_5935" d="M502.413 114.939l.041-29.369-371.169-.6.121 29.971z" class="cls-21" data-name="Path 5935" transform="translate(-130.943 -84.968)"/>
                </g>
                <path id="Path_5936" d="M355.026 97.094a6.051 6.051 0 0 0 6.135 7.063 8.349 8.349 0 0 0 7.892-7.221 6.049 6.049 0 0 0-6.14-7.065 8.346 8.346 0 0 0-7.887 7.223z" class="cls-3" data-name="Path 5936" transform="translate(-12.727 -82.376)"/>
                <g id="Group_1810" data-name="Group 1810" transform="translate(44.821 53.004)">
                    <path id="Rectangle_2324" d="M0 0h218.563v3.825H0z" class="cls-22" data-name="Rectangle 2324"/>
                    <path id="Rectangle_2325" d="M0 0h218.563v3.824H0z" class="cls-23" data-name="Rectangle 2325" transform="translate(0 38.823)"/>
                    <path id="Rectangle_2326" d="M0 0h34.541v3.825H0z" class="cls-23" data-name="Rectangle 2326" transform="translate(0 105.107)"/>
                    <path id="Rectangle_2327" d="M0 0h65.224v3.825H0z" class="cls-23" data-name="Rectangle 2327" transform="translate(59.464 105.107)"/>
                    <path id="Rectangle_2328" d="M0 0h65.224v3.825H0z" class="cls-3" data-name="Rectangle 2328" transform="translate(59.464 120.914)"/>
                    <path id="Rectangle_2329" d="M0 0h73.194v3.825H0z" class="cls-3" data-name="Rectangle 2329" transform="translate(145.369 105.107)"/>
                    <path id="Rectangle_2330" d="M0 0h218.563v3.825H0z" class="cls-23" data-name="Rectangle 2330" transform="translate(0 54.201)"/>
                    <path id="Rectangle_2331" d="M0 0h218.563v3.825H0z" class="cls-23" data-name="Rectangle 2331" transform="translate(0 136.72)"/>
                    <path id="Rectangle_2332" d="M0 0h51.124v3.825H0z" class="cls-3" data-name="Rectangle 2332" transform="translate(229.996)"/>
                    <path id="Rectangle_2333" d="M0 0h40.374v3.825H0z" class="cls-3" data-name="Rectangle 2333" transform="translate(0 15.914)"/>
                    <path id="Rectangle_2334" d="M0 0h47.798v2.775H0z" class="cls-3" data-name="Rectangle 2334" transform="translate(0 68.939)"/>
                    <path id="Rectangle_2335" d="M0 0h84.33v3.825H0z" class="cls-23" data-name="Rectangle 2335" transform="translate(134.233 15.914)"/>
                    <path id="Rectangle_2336" d="M0 0h84.33v3.825H0z" class="cls-3" data-name="Rectangle 2336" transform="translate(134.233 83.784)"/>
                    <path id="Rectangle_2337" d="M0 0h51.124v3.825H0z" class="cls-23" data-name="Rectangle 2337" transform="translate(229.996 15.914)"/>
                    <path id="Rectangle_2338" d="M0 0h51.124v3.824H0z" class="cls-3" data-name="Rectangle 2338" transform="translate(229.996 54.201)"/>
                    <path id="Rectangle_2339" d="M0 0h51.124v3.825H0z" class="cls-3" data-name="Rectangle 2339" transform="translate(229.996 83.784)"/>
                </g>
            </g>
            <path id="Rectangle_2340" d="M0 0h100.386v15.737H0z" class="cls-3" data-name="Rectangle 2340" transform="translate(10.826 7.208)"/>
        </g>
        <g id="Group_1821" data-name="Group 1821" transform="translate(435.926 99.349)">
            <g id="Group_1819" data-name="Group 1819" transform="translate(76.692 97.079)">
                <g id="Group_1813" data-name="Group 1813" transform="translate(36.092 168.36)">
                    <path id="Path_5937" d="M384.644 255.814s-2.417 2.241-7.925 3.644c-1.212.309-2.52-.1-2.52 1.9h6.686l5.561-.961v.961h3s.836-4.911-.919-5.541z" class="cls-11" data-name="Path 5937" transform="translate(-374.198 -252.286)"/>
                    <path id="Path_5938" d="M381.371 253.506l-.339 3.528a3.4 3.4 0 0 0 3.679.124l.206-.124.624-3.528z" class="cls-24" data-name="Path 5938" transform="translate(-370.586 -253.506)"/>
                </g>
                <g id="Group_1814" data-name="Group 1814" transform="translate(60.307 168.36)">
                    <path id="Path_5939" d="M400.486 255.814s-2.417 2.241-7.925 3.644c-1.214.309-2.52-.1-2.52 1.9h6.684l5.561-.961v.961h3s.836-4.911-.917-5.541z" class="cls-11" data-name="Path 5939" transform="translate(-390.04 -252.286)"/>
                    <path id="Path_5940" d="M397.212 253.506l-.338 3.528a3.4 3.4 0 0 0 3.679.124l.206-.124.624-3.528z" class="cls-24" data-name="Path 5940" transform="translate(-386.428 -253.506)"/>
                </g>
                <g id="Group_1815" data-name="Group 1815" transform="translate(0 34.196)">
                    <path id="Path_5941" d="M361.3 169.129c-.371.105-1.678.344-4.176-.537-2.242-.792-6.374-3.89-6.537-1.215 1.519 2.134 3.051 4.841 3.051 4.841 1.046 1.191 3.655 1.642 5.347 1.6l5.217-.79s1.449-2.259 1.535-2.354l-.737-.824a11.525 11.525 0 0 1-3.7-.721z" class="cls-24" data-name="Path 5941" transform="translate(-350.585 -165.424)"/>
                    <path id="Path_5942" d="M357.739 170.112a2.048 2.048 0 0 1-.365.167c.231.254.443.518.647.789 1.113.547 2.209 1.131 3.315 1.692.248-.728.6-1.749.636-1.817l-6.481-5.212s-.969.556-.035 2.056a7.893 7.893 0 0 0 2.283 2.325z" class="cls-24" data-name="Path 5942" transform="translate(-348.226 -165.73)"/>
                </g>
                <g id="Group_1817" data-name="Group 1817" transform="translate(53.236)">
                    <path id="Path_5943" d="M390.755 156.852l-.7 6.905 7.4.293-1.483-10.7z" class="cls-25" data-name="Path 5943" transform="translate(-382.962 -138.08)"/>
                    <g id="Group_1816" data-name="Group 1816" transform="translate(2.428 4.547)">
                        <path id="Path_5944" d="M390.1 161.82a3.726 3.726 0 0 1-2.074-.492c-2.479-3.606.345-13.325.345-13.325l3.962-1.669 5.036 3.141.286 6.513a5.287 5.287 0 0 1-2.248 4.494 10.321 10.321 0 0 1-5.307 1.338z" class="cls-24" data-name="Path 5944" transform="translate(-387.002 -146.333)"/>
                    </g>
                    <path id="Path_5945" d="M397.411 154.738c-.277-1.094-.133-3.619-1.247-3.436-.813.133-3.6.248-4.535.248-2.233 0-6.215-.874-6.215-4.274 0-1.7 1.648-3.164 2.692-3.6a4.531 4.531 0 0 1 3.23-.041c2.461.861 5.721 2.757 7.022 2.5 2.189-.44 4.373.844 4.341 2.7a18.589 18.589 0 0 1-2.045 6.872 10.465 10.465 0 0 1-2.23 2.918z" class="cls-11" data-name="Path 5945" transform="translate(-385.414 -143.358)"/>
                    <path id="Path_5946" d="M395.665 151.062a1.678 1.678 0 0 0-2.08.185c-.651.543-.776 1.339-.278 1.778a1.681 1.681 0 0 0 2.08-.185c.651-.54.776-1.34.278-1.778z" class="cls-24" data-name="Path 5946" transform="translate(-381.404 -139.436)"/>
                </g>
                <path id="Path_5947" d="M400.484 163.286c-13.944 10.84-40.986 7.973-40.986 7.973l-1.25 7.089s34.31 10.138 38.59 2.027 17.589-27.93 3.646-17.089z" class="cls-26" data-name="Path 5947" transform="translate(-346.536 -134.5)"/>
                <path id="Path_5948" d="M397.758 158.846q-.381 0-.747.014c-8.161.3-14.534 11.558-14.534 19.725v29.53h31.5v-33.8a15.317 15.317 0 0 0-12.8-15.221 22.5 22.5 0 0 0-3.419-.248z" class="cls-26" data-name="Path 5948" transform="translate(-333.731 -135.173)"/>
                <path id="Path_5949" d="M390.357 189.774l-6.97.8c-2.851.11-5.134-3.948-5.9-7.051a.642.642 0 0 1 .781-.77c2.447.6 8.744 2.187 10.414 3.017z" class="cls-24" data-name="Path 5949" transform="translate(-336.377 -122.548)"/>
                <path id="Path_5950" d="M411.041 164.143s15.884 21.215 5.906 31.507-32.431 5.924-32.431 5.924v-6.548s21.2.05 22.452-7.147-5.042-14.993-5.042-14.993" class="cls-27" data-name="Path 5950" transform="translate(-332.653 -132.373)"/>
                <g id="Group_1818" data-name="Group 1818" transform="translate(51.551 40.316)">
                    <path id="Path_5951" d="M413 195.42c-10.053 5.79-25.879 3.317-28.066 2.938v-5.976c2.753-.023 21.24-.434 22.447-7.4 1.258-7.254-4.845-14.92-5.107-15.244l-.485.393c.061.076 6.186 7.766 4.977 14.744-1.182 6.823-21.721 6.889-22.139 6.889h-.318v7.118l.252.049a63.861 63.861 0 0 0 10.788.9c5.6 0 12.346-.773 17.649-3.7z" class="cls-14" data-name="Path 5951" transform="translate(-384.312 -169.734)"/>
                </g>
                <path id="Path_5952" d="M383.943 191.08c-3.6 17.468-4.153 36.268-4.236 52.048a417.557 417.557 0 0 0 1.955 43.993h5.2l10.852-72.658s1.183 10.806 2.785 29.128c1.256 14.377 1.849 26.532 5.226 43.53h5.214s4.5-52.464 4.5-96.041z" class="cls-28" data-name="Path 5952" transform="translate(-335.197 -118.137)"/>
                <path id="Path_5953" d="M390.562 157.626h6.58l1.047 2.422h-8.474z" class="cls-3" data-name="Path 5953" transform="translate(-329.905 -135.817)"/>
            </g>
            <path id="Path_5954" d="M430.619 239L369.1 140.459a38.821 38.821 0 0 0 .524-42.568 39.348 39.348 0 0 0-26.512-18.045l9.5 15.219c5.568 8.92 7.462 18.453 3.621 25.692l-22.912 14.305.133.214c-8.367.524-16.294-5.441-21.971-14.536l-9.542-15.286a39.354 39.354 0 0 0 4.54 31.855c8.761 14.033 24.668 20.708 39.493 18.021l61.691 98.818A29.537 29.537 0 1 0 430.619 239zm14.794 47.527a21.711 21.711 0 1 1 6.664-29.972 21.711 21.711 0 0 1-6.664 29.969z" class="cls-29" data-name="Path 5954" transform="translate(-300.41 -79.845)"/>
            <path id="Path_5955" d="M443.362 278.819a21.7 21.7 0 0 1-22.49-36.911c-8.341-13.952-16.593-27.959-24.893-41.936q-7.862-13.238-15.852-26.4c-2.664-4.367-5.368-8.709-8.051-13.062l-.066-.105-.379-.595c-1.495-2.343-2.984-4.689-4.491-7.026q-10.968-17.021-22.719-33.506l-11.1 6.927.133.214c-8.367.524-16.294-5.441-21.971-14.536L301.946 96.6a39.354 39.354 0 0 0 4.54 31.855c8.761 14.033 24.668 20.708 39.493 18.021l61.691 98.818a29.493 29.493 0 0 0 39.843 40.16q-2.086-3.312-4.151-6.635z" data-name="Path 5955" transform="translate(-300.41 -70.991)"/>
            <path id="Path_5956" d="M390.357 189.774l-6.97.8c-2.851.11-5.134-3.948-5.9-7.051a.642.642 0 0 1 .781-.77c2.447.6 8.744 2.187 10.414 3.017z" class="cls-24" data-name="Path 5956" transform="translate(-259.686 -25.469)"/>
            <path id="Path_5957" d="M411.041 164.143s15.884 21.215 5.906 31.507-32.431 5.924-32.431 5.924v-6.548s21.2.05 22.452-7.147-5.042-14.993-5.042-14.993" class="cls-26" data-name="Path 5957" transform="translate(-255.961 -35.294)"/>
            <g id="Group_1820" data-name="Group 1820" transform="translate(128.243 137.394)">
                <path id="Path_5958" d="M413 195.42c-10.053 5.79-25.879 3.317-28.066 2.938v-5.976c2.753-.023 21.24-.434 22.447-7.4 1.258-7.254-4.845-14.92-5.107-15.244l-.485.393c.061.076 6.186 7.766 4.977 14.744-1.182 6.823-21.721 6.889-22.139 6.889h-.318v7.118l.252.049a63.861 63.861 0 0 0 10.788.9c5.6 0 12.346-.773 17.649-3.7z" class="cls-14" data-name="Path 5958" transform="translate(-384.312 -169.734)"/>
            </g>
        </g>
        <g id="Group_1829" data-name="Group 1829" transform="translate(107.976 203.138)">
            <path id="Path_5959" d="M133.977 169.867l18.26 25.907-6.278 2.139-17.352-12.6.785-8.759z" class="cls-24" data-name="Path 5959" transform="translate(-63.257 -136.058)"/>
            <g id="Group_1828" data-name="Group 1828">
                <path id="Path_5960" d="M140.347 161.792c8.228 5.926 1.823 56.676 1.823 56.676l-32.933-6.4s2.57-51.492 31.11-50.276z" class="cls-26" data-name="Path 5960" transform="translate(-73.493 -140.337)"/>
                <g id="Group_1824" data-name="Group 1824" transform="translate(60.407)">
                    <g id="Group_1822" data-name="Group 1822" transform="translate(2.138 16.915)">
                        <path id="Path_5961" d="M126.772 163.517l3.21-4.7 5.684 2.959-1.932 6.316a1.426 1.426 0 0 1-.171.076 18.09 18.09 0 0 0-6.791-4.651z" class="cls-25" data-name="Path 5961" transform="translate(-126.772 -158.814)"/>
                    </g>
                    <g id="Group_1823" data-name="Group 1823">
                        <path id="Path_5962" d="M129.844 151.382l-1.584 8.737a1.369 1.369 0 0 1 .8 1.975 1.647 1.647 0 0 1 0 .67 10.161 10.161 0 0 0 7.273 3.595c5.709.235 4.888-11.1 4.888-11.1z" class="cls-24" data-name="Path 5962" transform="translate(-123.847 -145.827)"/>
                        <path id="Path_5963" d="M127.1 159.143a5.455 5.455 0 0 0-.824-2.716c-2.465-3.4.758-4.7 1.888-5.1 1.249-.443 1.5-2.462 3.161-3.233 2.54-1.177 4.2 1.049 5.634 1.117s2.716-1.561 4.488-.124 1.183 2.955 1.669 3.766 2.091-.741 3.549 1.805c2.219 3.875-3.913 3.872-3.913 3.872a10.835 10.835 0 0 1-7.317-2.07 1.419 1.419 0 0 0-1.724.018c-1.328 1.139-3.029 8.338-3.029 8.338l-1.131-1.5s-2.941-1.229-2.451-4.173z" class="cls-11" data-name="Path 5963" transform="translate(-125.373 -147.748)"/>
                        <path id="Path_5964" d="M128.546 156.713a1.362 1.362 0 1 0 1.131-1.559 1.362 1.362 0 0 0-1.131 1.559z" class="cls-24" data-name="Path 5964" transform="translate(-123.705 -143.843)"/>
                    </g>
                </g>
                <g id="Group_1825" data-name="Group 1825" transform="translate(0 125.297)">
                    <path id="Path_5965" d="M92.325 235.566s-2.618 2.823-4.257 9.258c-.361 1.417.121 2.944-2.216 2.944v-7.809l1.123-6.495h-1.123v-3.509s5.738-.977 6.473 1.073z" class="cls-11" data-name="Path 5965" transform="translate(-85.852 -229.722)"/>
                    <path id="Path_5966" d="M94.452 234.777l-4.121.689a3.968 3.968 0 0 1-.144-4.3l.144-.241 4.121-1.02z" class="cls-24" data-name="Path 5966" transform="translate(-83.858 -229.623)"/>
                </g>
                <g id="Group_1826" data-name="Group 1826" transform="translate(52.355 156.275)">
                    <path id="Path_5967" d="M127.913 254.005s.018 4.381 8.818 7.01c1.805.54 1.218 1.075 1.558 1.833h-10.127l-3.965-4.457-1.233 1.059-2.858-2.808s1.334-4.066 3.511-4.1z" class="cls-11" data-name="Path 5967" transform="translate(-120.105 -248.64)"/>
                    <path id="Path_5968" d="M128.343 251.56l-1.645 3.794a3.971 3.971 0 0 1-4.115-1.25l-.182-.214 1.33-3.9z" class="cls-24" data-name="Path 5968" transform="translate(-118.891 -249.989)"/>
                </g>
                <path id="Path_5969" d="M119.019 202.113s.382 12.985 5.36 24.312a5.966 5.966 0 0 1-4.222 8.277c-17.951 3.76-28.084 9.8-28.084 9.8v6.175l41.878-5.73a14.717 14.717 0 0 0 12.642-13.069l1.339-12.954z" class="cls-28" data-name="Path 5969" transform="translate(-82.564 -119.016)"/>
                <path id="Path_5970" d="M140.152 200.88s14.475 27.147 14.475 35.569-19.482 41.263-19.482 41.263h-5.573s.989-20.812 4.758-38.066a9.854 9.854 0 0 0-2.835-9.3c-11.841-11.111-22.347-29.469-22.347-29.469z" class="cls-30" data-name="Path 5970" transform="translate(-73.54 -119.668)"/>
                <path id="Path_5971" d="M89.318 196.351l2.994 31.087L193.364 215l-3.743-30.886z" class="cls-27" data-name="Path 5971" transform="translate(-84.02 -128.527)"/>
                <g id="Group_1827" data-name="Group 1827" transform="translate(35.459 38.456)">
                    <path id="Path_5972" d="M117.253 172.907L128.721 180l-8.263 9.474-1.18 26.935-4.457-.865s-6.979-20.8-5.587-27.965 8.019-14.672 8.019-14.672z" class="cls-24" data-name="Path 5972" transform="translate(-109.051 -172.907)"/>
                    <path id="Path_5973" d="M119.036 201.667l-.04 5.347a4.433 4.433 0 0 1-.732 2.412c-.9 1.351-2.491 3.331-3.962 3.046-2.2-.429-4.792-5.507-4.792-5.507l5.068-6.163z" class="cls-24" data-name="Path 5973" transform="translate(-108.808 -158.165)"/>
                </g>
            </g>
        </g>
        <g id="Group_1831" data-name="Group 1831" transform="translate(327.26 171.919)">
            <g id="Group_1830" data-name="Group 1830" transform="translate(.552)">
                <path id="Path_5974" d="M237.184 156.905a24.6 24.6 0 0 1 48.954 0h7.506a32.081 32.081 0 0 0-63.967 0z" class="cls-3" data-name="Path 5974" transform="translate(-229.678 -127.323)"/>
            </g>
            <rect id="Rectangle_2341" width="65.071" height="53.813" class="cls-21" data-name="Rectangle 2341" rx="1.418" transform="translate(0 28.7)"/>
            <path id="Path_5975" d="M294.388 151.4v-4.22c0-.595-.975-1.082-2.167-1.082h-60.738c-1.191 0-2.166.488-2.166 1.082v4.22z" class="cls-3" data-name="Path 5975" transform="translate(-229.317 -117.4)"/>
            <path id="Path_5976" d="M229.317 178.074v4.22c0 .595.975 1.082 2.166 1.082h60.737c1.192 0 2.167-.488 2.167-1.082v-4.22z" class="cls-3" data-name="Path 5976" transform="translate(-229.317 -100.502)"/>
            <path id="Path_5977" d="M259.767 161.745a6.326 6.326 0 1 0-9.691 5.35v8.928a3.366 3.366 0 0 0 6.731 0v-8.929a6.312 6.312 0 0 0 2.96-5.349z" class="cls-5" data-name="Path 5977" transform="translate(-219.91 -112.474)"/>
        </g>
        <g id="Group_1839" data-name="Group 1839" transform="translate(239.051 205.191)">
            <g id="Group_1832" data-name="Group 1832" transform="translate(28.27 158.724)">
                <path id="Path_5978" d="M195.077 255.23s1.163 1.609 6.643 3.005c1.206.307 2.507.517 2.507 2.507h-5.409l-5.53-.955v.955H190.3s-.831-4.885.913-5.512z" class="cls-11" data-name="Path 5978" transform="translate(-190.102 -251.722)"/>
                <path id="Path_5979" d="M194.977 252.935l-.284 3.508a3.378 3.378 0 0 1-3.659.124l-.2-.124v-3.508z" class="cls-24" data-name="Path 5979" transform="translate(-189.718 -252.935)"/>
            </g>
            <g id="Group_1833" data-name="Group 1833" transform="translate(.526 159.423)">
                <path id="Path_5980" d="M176.926 255.688s1.163 1.608 6.643 3c1.206.307 2.507.518 2.507 2.508h-5.409l-5.53-.957v.957h-2.987s-.831-4.885.913-5.512z" class="cls-11" data-name="Path 5980" transform="translate(-171.951 -252.179)"/>
                <path id="Path_5981" d="M176.826 253.392l-.284 3.509a3.381 3.381 0 0 1-3.659.122l-.2-.122v-3.509z" class="cls-24" data-name="Path 5981" transform="translate(-171.567 -253.392)"/>
            </g>
            <path id="Path_5982" d="M200.43 199.126l-1.347 88.139h-6.421s-9.773-71.159-7.687-88.139 15.455 0 15.455 0z" class="cls-28" data-name="Path 5982" transform="translate(-164.697 -126.636)"/>
            <path id="Path_5983" d="M200.372 196.505s-2.235 27.076-7.369 42.062-14.403 46.095-14.403 46.095h-6.646s11.1-65 8.561-88.157h19.86z" class="cls-30" data-name="Path 5983" transform="translate(-171.425 -124.033)"/>
            <path id="Path_5984" d="M195.553 167.155s7.913 18.455 9.921 18.455c1.606 0-.6-15.069-.6-15.069h6.626s8.335 25.828 1.707 30.548-21.189-13.356-21.189-13.356z" class="cls-26" data-name="Path 5984" transform="translate(-160.82 -139.544)"/>
            <path id="Path_5985" d="M178.892 198.178l2.4 5.931c1.156 2.329 5.4 2.387 8.219 1.648a.586.586 0 0 0 .277-.961c-1.548-1.7-5.565-6.047-6.958-7.02z" class="cls-24" data-name="Path 5985" transform="translate(-167.757 -123.363)"/>
            <path id="Path_5986" d="M198.962 164.688s4.135 2.8 4.135 6.018v42.654h-24.219v-39.88s.5-8.867 9.165-8.867 10.919.075 10.919.075z" class="cls-26" data-name="Path 5986" transform="translate(-167.764 -140.888)"/>
            <g id="Group_1834" data-name="Group 1834" transform="translate(34.93 34.181)">
                <path id="Path_5987" d="M194.46 209.763v-38.309l.8.027v38.283z" class="cls-14" data-name="Path 5987" transform="translate(-194.46 -171.454)"/>
            </g>
            <path id="Path_5988" d="M184.669 159.136l1.95 9.868a6.145 6.145 0 0 0 5.049 1.344c2.965-.585 2.543-2.722 2.543-2.722l-1.25-6.325-4.613-.277z" class="cls-25" data-name="Path 5988" transform="translate(-164.704 -143.782)"/>
            <path id="Path_5989" d="M194.232 167.413a3.759 3.759 0 0 0 2.088-1.007c1.8-4.715-3.428-15.43-3.428-15.43l-9.214 3.6 1.192 7.638a6.486 6.486 0 0 0 3.421 4.755 10.408 10.408 0 0 0 5.941.444z" class="cls-24" data-name="Path 5989" transform="translate(-165.228 -148.095)"/>
            <path id="Path_5990" d="M189 154.882a20.82 20.82 0 0 0 6.505-1.285c3.219-1.252.358-4.506.358-4.506s-2.245 1.614-6.761 1.833c-3.048.147-3.957-.271-5.655 1.117-2.307 1.885-.763 6.424-.763 6.424l3.372 9.582.533-.105s-1.029-5.891-1.423-7.887c.378-1.02.983-1.139 1.493-1a1.522 1.522 0 0 1 1.059 1.2l2.024 10.242s7.077 1.522 8.636.685-1.05-8.206-1.05-8.206a3.1 3.1 0 0 0-3.231 1.5c-1.145 1.935-3.265.576-3.265.576z" class="cls-5" data-name="Path 5990" transform="translate(-166.019 -149.091)"/>
            <path id="Path_5991" d="M207.034 172.315l-.234-1.273c-.517-2.819-3.21-6.323-5.923-7.244h-2.814l.871 6.012 3.971 2.505z" class="cls-24" data-name="Path 5991" transform="translate(-157.625 -141.319)"/>
            <path id="Path_5992" d="M184.832 155.561a1.7 1.7 0 0 1 1.882 1.256 1.462 1.462 0 0 1-.729 2 1.7 1.7 0 0 1-1.882-1.255 1.463 1.463 0 0 1 .729-2.001z" class="cls-24" data-name="Path 5992" transform="translate(-165.067 -145.694)"/>
            <path id="Path_5993" d="M200.71 168.022l5.481 3.172s-3.439-.035-3.494 0l-5.8-4.854s.422-.848 1.736-.133a6.667 6.667 0 0 1 2.077 1.815z" class="cls-24" data-name="Path 5993" transform="translate(-158.243 -140.197)"/>
            <path id="Path_5994" d="M185.3 166.359s-13.692 15.21-13.692 24.326 11.114 25.185 11.114 25.185l5.49-1.606s-4.954-19.884-4.954-25.173 10.175-13.044 10.175-13.044" class="cls-26" data-name="Path 5994" transform="translate(-171.607 -139.965)"/>
            <g id="Group_1835" data-name="Group 1835" transform="translate(11.248 35.762)">
                <path id="Path_5995" d="M179.768 185.852c0 4.553 4.031 21.2 4.978 25.081-.278.073-.393.1-.813.2-1.165-4.792-4.968-20.81-4.968-25.286 0-5.426 9.912-13.043 10.334-13.364l.488.639c-.1.078-10.019 7.698-10.019 12.73z" class="cls-14" data-name="Path 5995" transform="translate(-178.966 -172.488)"/>
            </g>
            <g id="Group_1838" data-name="Group 1838" transform="translate(34.417 6.157)">
                <path id="Path_5996" d="M197.049 160.811s-1.13 5.892 2.508 10.623a1.587 1.587 0 0 0 1.024.569 4.022 4.022 0 0 0 1.894-.313 1.764 1.764 0 0 0 1.146-.821.759.759 0 0 0-.079-.793c-.738-1.1-3.019-4.879-1.981-8.223a5.947 5.947 0 0 0-4.512-1.042z" class="cls-31" data-name="Path 5996" transform="translate(-192.666 -149.099)"/>
                <path id="Path_5997" d="M202.11 171.437a1.165 1.165 0 0 0 .642-.616.758.758 0 0 0-.079-.793c-.738-1.1-3.019-4.879-1.981-8.223a5.025 5.025 0 0 0-2.151-.99c-.118 3.672.669 6.128 3.569 10.622z" class="cls-7" data-name="Path 5997" transform="translate(-191.796 -149.052)"/>
                <g id="Group_1837" data-name="Group 1837" transform="translate(7.557 14.856)">
                    <g id="Group_1836" data-name="Group 1836" transform="translate(0 .005)">
                        <path id="Path_5998" d="M199.145 164.533c.174.842.582 1.47.914 1.4s.46-.807.287-1.651-.582-1.472-.914-1.4-.46.807-.287 1.651z" class="cls-11" data-name="Path 5998" transform="translate(-199.068 -162.823)"/>
                        <path id="Path_5999" d="M199.262 162.924l.349-.083-.026.175-.232.091z" class="cls-11" data-name="Path 5999" transform="translate(-198.965 -162.842)"/>
                        <path id="Path_6000" d="M199.684 164.932l.422-.082-.48-.07z" class="cls-32" data-name="Path 6000" transform="translate(-198.772 -161.817)"/>
                    </g>
                    <path id="Path_6001" d="M199.33 164.493c.173.844.582 1.473.914 1.4s.46-.807.287-1.651-.582-1.472-.914-1.4-.46.809-.287 1.651z" class="cls-31" data-name="Path 6001" transform="translate(-198.97 -162.839)"/>
                </g>
                <path id="Path_6002" d="M197.03 157.532h-.65a2.211 2.211 0 0 0-2.256 2.149v1.706a2.211 2.211 0 0 0 2.256 2.149h.65z" class="cls-11" data-name="Path 6002" transform="translate(-194.124 -150.787)"/>
                <path id="Path_6003" d="M210.66 161.555c0 4.659-1.072 8.434-2.392 8.434s-2.392-3.775-2.392-8.434 1.071-8.436 2.392-8.436 2.392 3.781 2.392 8.436z" class="cls-11" data-name="Path 6003" transform="translate(-187.913 -153.119)"/>
                <path id="Path_6004" d="M206.061 156.6l1.89 1.23v2.729L206 162.331l-.674-3.549z" class="cls-3" data-name="Path 6004" transform="translate(-188.203 -151.277)"/>
                <path id="Path_6005" d="M211.213 161.458c0-3.914.758-7.2 1.784-8.148v-.006a38.553 38.553 0 0 1-17.214 6.524v5.955s12.563-.706 17.214 3.829h.006c-1.032-.952-1.79-4.237-1.79-8.154z" class="cls-7" data-name="Path 6005" transform="translate(-193.25 -153.022)"/>
                <path id="Path_6006" d="M207.392 158.772c0 .757-.116 1.37-.258 1.37s-.258-.613-.258-1.37.116-1.371.258-1.371.258.614.258 1.371z" class="cls-31" data-name="Path 6006" transform="translate(-187.385 -150.856)"/>
            </g>
            <path id="Path_6007" d="M203.917 167.907a6.469 6.469 0 0 1-3.062.5c-1.594 0-2.311-1.958-2.583-3.023-.1-.376-.18-.908.287-1.148l2.562-.355z" class="cls-24" data-name="Path 6007" transform="translate(-157.555 -141.276)"/>
        </g>
        <g id="Group_1849" data-name="Group 1849" transform="translate(407.99 207.99)">
            <g id="Group_1848" data-name="Group 1848" transform="translate(0 .755)">
                <g id="Group_1842" data-name="Group 1842" transform="translate(45.144 4.346)">
                    <g id="Group_1841" data-name="Group 1841">
                        <path id="Path_6008" d="M315.4 166.863l2.894 6.465 4.71-4.244-3.323-9.417z" class="cls-25" data-name="Path 6008" transform="translate(-309.699 -151.403)"/>
                        <g id="Group_1840" data-name="Group 1840">
                            <path id="Path_6009" d="M315.691 170.13a3.208 3.208 0 0 1-1.978-.182c-2.864-3.243-1.882-12.8-1.882-12.8l3.352-2.889 5.127 2.392 1.336 5.252c.358 1.732-.132 4.77-1.316 6.085a8.935 8.935 0 0 1-4.639 2.142z" class="cls-24" data-name="Path 6009" transform="translate(-311.669 -154.26)"/>
                        </g>
                    </g>
                </g>
                <path id="Path_6010" d="M326.61 192.94a7.409 7.409 0 0 1-3.474 2.476c-2.316.8-19.563-2.823-19.563-2.823l-3.463.364a8.8 8.8 0 0 1-5.487-.284l-5.072-1.961 29.757-.621 11.392-14.146z" class="cls-24" data-name="Path 6010" transform="translate(-278.213 -138.454)"/>
                <path id="Path_6011" d="M324.5 165.828s6.877 8.806 8.482 14.6 2.186 21.752 2.186 21.752h-14.474s-4.154-7.531-7.38-14.362a7.813 7.813 0 0 1-.089-6.492c2.362-5.35 5.908-12.708 5.908-12.708z" class="cls-33" data-name="Path 6011" transform="translate(-266.051 -143.8)"/>
                <g id="Group_1844" data-name="Group 1844" transform="translate(41.308 154.713)">
                    <g id="Group_1843" data-name="Group 1843" transform="translate(3.131)">
                        <path id="Path_6012" d="M317.868 252.636l-1.148 2.985a3.826 3.826 0 0 1-1.562 1.984 15.03 15.03 0 0 1-3.951 1.794c2.3 1.963 5.96-.087 8.052-1.538a5.122 5.122 0 0 0 2.047-2.964l.48-2.262z" class="cls-24" data-name="Path 6012" transform="translate(-311.207 -252.636)"/>
                    </g>
                    <path id="Path_6013" d="M322.619 253.652a3.3 3.3 0 0 1 1.27 2.78c-.286 1.559-.689 5.209-.689 5.209h-1.6l.049-3.4c0-.223-3.43 3.4-4.011 3.4h-8.462s-.563-2.3 4.407-3.034 9.036-4.955 9.036-4.955z" class="cls-5" data-name="Path 6013" transform="translate(-309.159 -252.099)"/>
                </g>
                <g id="Group_1846" data-name="Group 1846" transform="translate(57.758 154.713)">
                    <g id="Group_1845" data-name="Group 1845" transform="translate(3.133)">
                        <path id="Path_6014" d="M328.631 252.636l-1.148 2.985a3.834 3.834 0 0 1-1.562 1.984 15.029 15.029 0 0 1-3.951 1.794c2.3 1.963 5.96-.087 8.052-1.538a5.122 5.122 0 0 0 2.047-2.964l.478-2.262z" class="cls-24" data-name="Path 6014" transform="translate(-321.97 -252.636)"/>
                    </g>
                    <path id="Path_6015" d="M333.381 253.652a3.291 3.291 0 0 1 1.27 2.78c-.284 1.559-.688 5.209-.688 5.209h-1.6l.049-3.4c0-.223-3.43 3.4-4.011 3.4h-8.461s-.561-2.3 4.408-3.034 9.033-4.955 9.033-4.955z" class="cls-5" data-name="Path 6015" transform="translate(-319.921 -252.099)"/>
                </g>
                <path id="Path_6016" d="M319.2 189.86s-7.179 10.762-1.035 53.661c-.966 16.214-2.767 42.9-2.767 42.9h4.075s11.3-28.424 7.5-42.582c-.9-14.022 2.574-54.231 2.574-54.231z" class="cls-5" data-name="Path 6016" transform="translate(-264.554 -131.233)"/>
                <path id="Path_6017" d="M332.352 189.608s7.514 6.044 7.514 15.019c0 7.042-3.393 21.625-5.339 31.172-.706 3.467.008 7.046.983 10.447 3.974 13.845-.856 40.175-.856 40.175H330.6s-.222-13.542-5.765-43.9c-6.369-34.866-6.952-52.913-6.952-52.913z" class="cls-5" data-name="Path 6017" transform="translate(-263.24 -131.233)"/>
                <g id="Group_1847" data-name="Group 1847" transform="translate(0 31.442)">
                    <path id="Path_6018" d="M292.655 192.8h23.637v-1.737H293.7l-10.03-19.076-1.537.809z" class="cls-34" data-name="Path 6018" transform="translate(-282.133 -171.987)"/>
                </g>
                <path id="Path_6019" d="M336.72 178.271s-7.548 17.575-11.176 17.575-23.715-8.592-23.715-8.592l.533-3 20.509 3.474a90.088 90.088 0 0 0 3.078-10.4 5.721 5.721 0 0 1 4.423-4.417c4.851-.911 6.348 5.36 6.348 5.36z" class="cls-24" data-name="Path 6019" transform="translate(-271.724 -140.104)"/>
                <path id="Path_6020" d="M321.341 161.693s-2.239 1.353-9.091-3.042c-1.05.275.625-9.6 9.492-6.7 6.207 2.031 5.909 8.04 5.623 11.363-.31 3.592 1.559 5.961 4.028 8.587 2.071 2.2 2.039 6.253 3.419 8.433 1.7 2.682 3.5 2.525 4.842 5.246 1.409 2.848 1.6 6.329-.284 8.887-1.073 1.452-3.572 4.957-7.528 3.708-2.221-.7-2.819-4.576-2.916-7.843a9.891 9.891 0 0 0-3.771-7.419c-2.134-1.7-4.462-4.026-5.085-6.453-1.225-4.76 1.271-14.767 1.271-14.767z" class="cls-5" data-name="Path 6020" transform="translate(-266.363 -151.417)"/>
                <path id="Path_6021" d="M319.4 158.326a1.454 1.454 0 0 0-1.874.5 1.253 1.253 0 0 0 .038 1.825 1.455 1.455 0 0 0 1.874-.5 1.253 1.253 0 0 0-.038-1.825z" class="cls-24" data-name="Path 6021" transform="translate(-263.622 -147.858)"/>
                <path id="Path_6022" d="M294.929 182.361a.984.984 0 0 1 .585-1.015l3.858-1.677a4.232 4.232 0 0 1 3.016-.134l3.824 1.27.517.02.411 3.558a85.362 85.362 0 0 1-1.211-.454l-2.421-.88s-5.278 4.474-7.164.413c-.566 4.023-1.712 3.577-1.712 3.577z" class="cls-24" data-name="Path 6022" transform="translate(-275.528 -136.67)"/>
            </g>
            <path id="Path_6023" d="M325.421 158.5c-.76 2.748-4.667 4.067-8.728 2.945s-6.264-4.17-5.978-7.008c.378-3.726 4.667-4.067 8.728-2.945s6.736 4.254 5.978 7.008z" class="cls-5" data-name="Path 6023" transform="translate(-267.041 -150.923)"/>
        </g>
    </g>
</svg>
