<svg xmlns="http://www.w3.org/2000/svg" xmlns:xlink="http://www.w3.org/1999/xlink" width="603" height="656.027" viewBox="0 0 603 656.027">
    <defs>
        <style>
            .cls-1{fill:#212b53}.cls-2{fill:#f7b58e}.cls-3{fill:url(#linear-gradient)}.cls-4{fill:url(#linear-gradient-2)}.cls-5{fill:#f6a505}.cls-6{fill:#ffd147}.cls-7{fill:#fff}.cls-8{fill:#f39f85}.cls-9{fill:url(#linear-gradient-3)}.cls-10{fill:#006b6f}.cls-11{fill:#63c0c4}.cls-12{fill:#ffda71}.cls-13{fill:#01888b}.cls-14{fill:#053c5e}.cls-15{opacity:.3}.cls-16{fill:#00666b}.cls-17{fill:#afd8c7}.cls-18{fill:#8b8b8b}.cls-19{fill:#ee2e22}
        </style>
        <linearGradient id="linear-gradient" x2="1" y1=".5" y2=".5" gradientUnits="objectBoundingBox">
            <stop offset="0" stop-color="#2b3582"/>
            <stop offset="1" stop-color="#150e42"/>
        </linearGradient>
        <linearGradient id="linear-gradient-2" x1=".708" x2=".066" y1=".132" y2="1.227" xlink:href="#linear-gradient"/>
        <linearGradient id="linear-gradient-3" x1=".896" x2="-.542" y1=".143" y2="1.535" gradientUnits="objectBoundingBox">
            <stop offset="0" stop-color="#53d8ff"/>
            <stop offset="1" stop-color="#3840f7"/>
        </linearGradient>
    </defs>
    <g id="Group_1104" data-name="Group 1104" transform="translate(-137 -6803)">
        <g id="Group_1006" data-name="Group 1006" transform="translate(-209.51 6476.889)">
            <g id="Group_993" data-name="Group 993" transform="translate(473.443 573.652)">
                <g id="Group_980" data-name="Group 980" transform="translate(115.969 4)">
                    <g id="Group_968" data-name="Group 968" transform="translate(79.353 378.063)">
                        <path id="Path_2030" d="M1680.753 2961.943s-5.673 5.261-18.606 8.555c-2.847.726-5.918-.244-5.918 4.454h15.7l13.054-2.257v2.257h7.051s1.963-11.53-2.154-13.009z" class="cls-1" data-name="Path 2030" transform="translate(-1656.229 -2953.661)"/>
                        <path id="Path_2031" d="M1745.4 2932.1l-.794 8.282a7.977 7.977 0 0 0 8.637.289l.484-.289 2.928-8.282z" class="cls-2" data-name="Path 2031" transform="translate(-1720.081 -2932.096)"/>
                    </g>
                    <g id="Group_969" data-name="Group 969" transform="translate(142.085 378.063)">
                        <path id="Path_2032" d="M1906.822 2961.943s-5.673 5.261-18.606 8.555c-2.847.726-5.917-.244-5.917 4.454h15.7l13.054-2.257v2.257h7.05s1.963-11.53-2.155-13.009z" class="cls-1" data-name="Path 2032" transform="translate(-1882.298 -2953.661)"/>
                        <path id="Path_2033" d="M1971.467 2932.1l-.794 8.282a7.977 7.977 0 0 0 8.638.289l.484-.289 2.929-8.282z" class="cls-2" data-name="Path 2033" transform="translate(-1946.15 -2932.096)"/>
                    </g>
                    <path id="Path_2034" d="M1771.165 2185.05h-18.059l-6.344 209.28h12.2L1794.81 2224z" class="cls-3" data-name="Path 2034" transform="translate(-1642.287 -2014.287)"/>
                    <path id="Path_2035" d="M1813.6 2185.05l42.207 209.28h13.432l-5.508-209.28z" class="cls-4" data-name="Path 2035" transform="translate(-1690.575 -2014.287)"/>
                    <g id="Group_975" data-name="Group 975" transform="translate(141.391 210.996)">
                        <g id="Group_970" data-name="Group 970" transform="translate(16.698)">
                            <path id="Path_2036" d="M1939.985 2341.556l4.047-.286a7.123 7.123 0 0 1 1.881-4.931c1.568-1.6 4.086-2.405 7.484-2.405 3.723 0 6.515.823 8.076 2.38a4.877 4.877 0 0 1 1.477 3.408l4.052.229a8.576 8.576 0 0 0-2.518-6.25c-2.374-2.431-6.1-3.663-11.087-3.663-4.595 0-8.124 1.238-10.488 3.681a10.887 10.887 0 0 0-2.924 7.837z" class="cls-5" data-name="Path 2036" transform="translate(-1939.972 -2330.039)"/>
                        </g>
                        <g id="Group_973" data-name="Group 973" transform="translate(0 7.879)">
                            <path id="Rectangle_2236" d="M0 0h60.435v38.885H0z" class="cls-1" data-name="Rectangle 2236" transform="rotate(180 30.218 23.613)"/>
                            <g id="Group_972" data-name="Group 972">
                                <g id="Group_971" data-name="Group 971">
                                    <path id="Path_2037" d="M1907.8 2448.707c0 2.372 1.127 2.642 2.522 2.642s2.522-.271 2.522-2.642v-8.251c17.412-1.812 27.384-4.9 27.384-4.9v30.673c0 2.741-1.061 4.961-2.669 4.961h-55.1c-1.608 0-2.67-2.22-2.67-4.961v-30.572c12.616 2.927 13.436 2.99 28.008 4.743z" class="cls-6" data-name="Path 2037" transform="translate(-1879.796 -2414.152)"/>
                                    <path id="Path_2038" d="M1882.465 2358.432h55.1c1.608 0 2.669 2.221 2.669 4.96v14.878a93.62 93.62 0 0 1-27.384 4.654v-2.012c0-2.372-1.129-2.642-2.522-2.642s-2.522.27-2.522 2.642v2.005a96.527 96.527 0 0 1-28.008-4.647v-14.878c.002-2.739 1.059-4.96 2.667-4.96z" class="cls-5" data-name="Path 2038" transform="translate(-1879.796 -2358.432)"/>
                                </g>
                            </g>
                        </g>
                        <g id="Group_974" data-name="Group 974" transform="translate(27.219 33.472)">
                            <path id="Path_2039" d="M1977.885 2460.611v-2.555a1.1 1.1 0 0 1 1.094-1.093h4.372a1.1 1.1 0 0 1 1.093 1.093v2.555a1.094 1.094 0 0 1-1.093 1.093h-4.372a1.094 1.094 0 0 1-1.094-1.093zm1.094-3.335a.782.782 0 0 0-.781.781v2.555a.781.781 0 0 0 .781.781h4.372a.781.781 0 0 0 .781-.781v-2.555a.781.781 0 0 0-.781-.781z" class="cls-7" data-name="Path 2039" transform="translate(-1977.885 -2455.215)"/>
                            <path id="Path_2040" d="M1988.691 2454.49a.272.272 0 0 0 .281.262.273.273 0 0 0 .281-.262v-3.566a.273.273 0 0 0-.281-.263.273.273 0 0 0-.281.263z" class="cls-7" data-name="Path 2040" transform="translate(-1985.693 -2450.661)"/>
                        </g>
                    </g>
                    <g id="Group_976" data-name="Group 976" transform="translate(0 142.657)">
                        <path id="Path_2041" d="M1392.73 2093.082c-.625.5-2.933 2-8.529 2.47-5.022.418-15.719-1.77-13.679 3.191 4.809 2.6 10.146 6.22 10.146 6.22 3.065 1.285 8.494-.048 11.72-1.521l9.369-5.72s.8-5.267.888-5.509l-2.147-.874a25.816 25.816 0 0 1-7.768 1.743z" class="cls-2" data-name="Path 2041" transform="translate(-1370.266 -2089.239)"/>
                        <path id="Path_2042" d="M1422.9 2089.819a4.048 4.048 0 0 1-.557.6c.667.269 1.31.57 1.939.89 2.63.072 5.258.223 7.886.323-.162-1.517-.385-3.646-.374-3.8l-17.087-4.069s-1.383 1.8 1.741 3.736a17.469 17.469 0 0 0 6.452 2.32z" class="cls-2" data-name="Path 2042" transform="translate(-1402.153 -2083.766)"/>
                    </g>
                    <path id="Path_2043" d="M1969.2 2266.167l-5.679 12.487s1.221 6.864 3.733 9.54a2.678 2.678 0 0 0 2.975.6c2.365-.979 7.825-3.342 8.728-4.639a2.562 2.562 0 0 0 .279-2.225l-1.654-5.5-.2-12.821z" class="cls-2" data-name="Path 2043" transform="translate(-1798.901 -2071.047)"/>
                    <g id="Group_978" data-name="Group 978" transform="translate(121.003)">
                        <path id="Path_2044" d="M1862.99 1705.7l-.189 16.732 14.906-.8.942-25.938z" class="cls-8" data-name="Path 2044" transform="translate(-1847.129 -1660.721)"/>
                        <g id="Group_977" data-name="Group 977" transform="translate(5.882 8.999)">
                            <path id="Path_2045" d="M1835.015 1639.627c-2.083-.058-4.013-.369-5.023-1.193-6.008-8.737.835-32.289.835-32.289l9.6-4.043 12.2 7.61.695 15.783a12.807 12.807 0 0 1-5.447 10.886 25 25 0 0 1-12.86 3.246z" class="cls-2" data-name="Path 2045" transform="translate(-1827.522 -1602.102)"/>
                        </g>
                        <path id="Path_2046" d="M1833.929 1595.226c-.671-2.652 1.143-8.769-1.556-8.327-1.969.323-8.718.6-10.989.6-5.412 0-15.059-2.117-15.059-10.353a7.492 7.492 0 0 1 5.059-7.258c2.483-1.036 5.286 1.942 7.826 2.829 5.96 2.083 18.26 3.77 21.408 3.117 3.574-.741 7.313 2.905 7.589 5.085.6 4.775-2.591 12.052-4.957 16.65a25.286 25.286 0 0 1-5.4 7.071z" class="cls-1" data-name="Path 2046" transform="translate(-1806.325 -1569.672)"/>
                        <path id="Path_2047" d="M1914.041 1662.127c-1.206-1.065-3.463-.863-5.042.45s-1.881 3.242-.675 4.307 3.463.864 5.042-.45 1.881-3.242.675-4.307z" class="cls-2" data-name="Path 2047" transform="translate(-1879.486 -1635.978)"/>
                    </g>
                    <path id="Path_2048" d="M1585.767 1773.134a42.944 42.944 0 0 1 17.5 3.585c12.032 5.3 20.555 16.32 23.568 29.118 4.742 20.14 12.692 67.924-5.538 109.811a90.7 90.7 0 0 1-12.2 0l-1.953-98.744 1.382 70.535h-56.533v-45.489s-1.464 10.274-15.129 19.759-68.459 10.416-68.459 10.416v-10.691s48.448-16.676 55.769-22.228 23.132-45.581 23.132-45.581a36.119 36.119 0 0 1 24.729-19.19 68.01 68.01 0 0 1 13.732-1.301z" class="cls-9" data-name="Path 2048" transform="translate(-1441.168 -1716.675)"/>
                    <g id="Group_979" data-name="Group 979" transform="translate(165.239 103.142)">
                        <path id="Path_2049" d="M1967.068 2009.377l-1.331-67.968 1.464-.043 1.345 68.011z" class="cls-10" data-name="Path 2049" transform="translate(-1965.737 -1941.366)"/>
                    </g>
                    <path id="Path_2050" d="M1875.32 1755.96l.919 5.5-17.132-.032 1.121-5.464z" class="cls-9" data-name="Path 2050" transform="translate(-1723.458 -1704.266)"/>
                </g>
                <g id="Group_992" data-name="Group 992" transform="translate(0 36.012)">
                    <path id="Path_2051" d="M1112.948 1914.766s.523 62.474 16.811 61.73 27.011-50.068 27.011-50.068l-6.6-1.936-15.805 29.837s2.37-9.723-1.642-27.618-19.775-11.945-19.775-11.945z" class="cls-2" data-name="Path 2051" transform="translate(-1068.383 -1849.332)"/>
                    <g id="Group_981" data-name="Group 981" transform="translate(30.828 59.32)">
                        <path id="Path_2052" d="M1080.31 1895.2l-.743 1.124c.182.12 18.142 12.191 18.142 31.9v80.324h-32.895l1.047-61.851c-.447.353-.9.7-1.366 1.028l-1.052 62.172h35.614v-81.672c0-20.425-18.557-32.898-18.747-33.025z" class="cls-11" data-name="Path 2052" transform="translate(-1063.443 -1895.204)"/>
                    </g>
                    <g id="Group_982" data-name="Group 982" transform="translate(27.372 157.985)">
                        <path id="Rectangle_2237" d="M16.031 0h10.908a16.031 16.031 0 0 1 16.032 16.031A16.031 16.031 0 0 1 26.94 32.062H16.031A16.031 16.031 0 0 1 0 16.031 16.031 16.031 0 0 1 16.031 0z" class="cls-11" data-name="Rectangle 2237"/>
                        <path id="Path_2053" d="M1093.959 2266.124v-9.769a5.611 5.611 0 0 0-5.594-5.594h-31.782a5.611 5.611 0 0 0-5.594 5.594v9.769z" class="cls-12" data-name="Path 2053" transform="translate(-1050.988 -2250.761)"/>
                        <path id="Path_2054" d="M1176.322 2282.823c-2.68 0-4.873-1.149-4.873-3.829v-24.4c0-2.68 2.193-3.829 4.873-3.829s4.873 2.192 4.873 3.829v23.36c0 3.72-2.195 4.869-4.873 4.869z" class="cls-13" data-name="Path 2054" transform="translate(-1138.022 -2250.761)"/>
                        <path id="Path_2055" d="M1106.375 2298.021a1.483 1.483 0 0 1-1.479-1.479v-7.453a1.483 1.483 0 0 1 1.479-1.478 1.483 1.483 0 0 1 1.478 1.478v7.453a1.483 1.483 0 0 1-1.478 1.479z" class="cls-14" data-name="Path 2055" transform="translate(-1089.937 -2277.385)"/>
                    </g>
                    <path id="Path_2056" d="M1238.422 1904.14l-2.922-11.895s2.2-5.821 4.851-7.754a2.389 2.389 0 0 1 2.71-.036c1.914 1.25 6.315 4.224 6.893 5.511a2.288 2.288 0 0 1-.122 2l-2.359 4.553-2.157 8.406z" class="cls-2" data-name="Path 2056" transform="translate(-1156.927 -1827.826)"/>
                    <g id="Group_989" data-name="Group 989">
                        <path id="Path_2057" d="M1014.713 1860.828c11.507 0 14.2 1.685 14.2 1.685s14.754 18.288 19.891 30.115a16.931 16.931 0 0 1-.075 13.853c-9.061 19.528-7.908 57.128-7.908 57.128h-33.615c1.494-28.025-27.43-97.462 7.507-102.781z" class="cls-6" data-name="Path 2057" transform="translate(-984.881 -1811.047)"/>
                        <g id="Group_984" data-name="Group 984" transform="translate(58.592 350.261)">
                            <g id="Group_983" data-name="Group 983" transform="translate(3.307)">
                                <path id="Path_2058" d="M1184.529 2943.664l2.044 6.95a7.886 7.886 0 0 0 3.222 4.619 32.463 32.463 0 0 0 8.837 3.988c-5.765 4.57-13.871-.015-18.44-3.39a10.606 10.606 0 0 1-4.141-6.9l-.642-5.265z" class="cls-2" data-name="Path 2058" transform="translate(-1175.411 -2943.664)"/>
                            </g>
                            <path id="Path_2059" d="M1167.056 2956.692s-3.877 2.846-3.54 6.474.51 12.124.51 12.124h3.722l.6-7.924c.058-.518 7.27 7.924 8.621 7.924h19.7s1.791-5.345-9.622-7.063-19.991-11.535-19.991-11.535z" class="cls-14" data-name="Path 2059" transform="translate(-1163.495 -2953.077)"/>
                        </g>
                        <path id="Path_2060" d="M1063.662 2231.218l16.174 198.148-11.028.225s-20.393-41.645-20.835-76.168c-.073-5.708.179-11.515-3.153-15.879-25.426-33.292-12.6-85.882-12.6-85.882l17.217-20.444z" class="cls-1" data-name="Path 2060" transform="translate(-1007.719 -2078.656)"/>
                        <g id="Group_986" data-name="Group 986" transform="translate(0 350.261)">
                            <g id="Group_985" data-name="Group 985" transform="translate(2.458)">
                                <path id="Path_2061" d="M970.323 2943.664l2.671 6.95a8.929 8.929 0 0 0 3.638 4.618 35.915 35.915 0 0 0 9.2 3.988c-5.353 4.57-13.873-.015-18.746-3.39a11.925 11.925 0 0 1-4.763-6.9l-1.116-5.266z" class="cls-2" data-name="Path 2061" transform="translate(-961.205 -2943.664)"/>
                            </g>
                            <path id="Path_2062" d="M955.386 2956.693s-3.62 2.846-2.957 6.474 1.6 12.124 1.6 12.124h3.722l-.114-7.924c.011-.519 7.984 7.924 9.334 7.924h19.7s1.309-5.345-10.259-7.062-21.026-11.536-21.026-11.536z" class="cls-14" data-name="Path 2062" transform="translate(-952.348 -2953.077)"/>
                        </g>
                        <g id="Group_988" data-name="Group 988" transform="translate(18.257)">
                            <path id="Path_2063" d="M1082.774 1798.779l.031 22.049-13.235-14.428 1.426-20.524z" class="cls-8" data-name="Path 2063" transform="translate(-1055.299 -1756.894)"/>
                            <path id="Path_2064" d="M1047.822 1691.1c-9.168 1.246-13.729 13-13.729 13l.1 34.781-15.9-13.745a123.906 123.906 0 0 1 2.768-32.789c3.4-10.766 17.122-13.6 26.755-8.35 4.685 2.555 7.469 7.568 9.122 12.546a39.649 39.649 0 0 1 .943 20.765l-5.453 25.521-6.787-6.729a27.735 27.735 0 0 1-.031-12.782c3.499-12.812 8.366-33.056 2.212-32.218z" class="cls-1" data-name="Path 2064" transform="translate(-1018.141 -1681.431)"/>
                            <path id="Path_2065" d="M1064.257 1763.206c1.028-.995 2.951-.806 4.3.421s1.6 3.027.575 4.022-2.952.806-4.3-.421-1.603-3.028-.575-4.022z" class="cls-2" data-name="Path 2065" transform="translate(-1051.005 -1740.053)"/>
                            <g id="Group_987" data-name="Group 987" transform="translate(15.687 7.138)">
                                <path id="Path_2066" d="M1090.286 1742.2c1.775-.053 3.42-.345 4.281-1.113 5.12-8.159-.712-30.153-.712-30.153l-8.182-3.776-10.4 7.107-.592 14.739a12.378 12.378 0 0 0 4.642 10.167 19.854 19.854 0 0 0 10.963 3.029z" class="cls-2" data-name="Path 2066" transform="translate(-1074.673 -1707.153)"/>
                            </g>
                            <path id="Path_2067" d="M1079.688 1702.024c1.96 6.573-15.459 14.2-15.459 14.2l-4.376-8.2 8-9.8 10.109 1.615a5.823 5.823 0 0 1 1.726 2.185z" class="cls-1" data-name="Path 2067" transform="translate(-1048.278 -1693.56)"/>
                            <path id="Path_2068" d="M1131.627 1713.369c.365 2.593 4.409 5.739 4.409 5.739l.38-3.1-.923-2.178-2.076-1.153s-2.155-1.901-1.79.692z" class="cls-1" data-name="Path 2068" transform="translate(-1100.105 -1703.521)"/>
                        </g>
                        <path id="Path_2069" d="M977.081 2231.218s-32.842 13.76-16.1 100.124a32.545 32.545 0 0 1-1.1 15.278c-7.089 24.09-3.074 82.971-3.074 82.971h11.059s37.022-153.666 39.409-198.373z" class="cls-14" data-name="Path 2069" transform="translate(-954.753 -2078.656)"/>
                    </g>
                    <g id="Group_990" data-name="Group 990" transform="translate(116.643 110.187)">
                        <path id="Path_2070" d="M1380.164 2091.541c.56.273 2.562 1.023 6.774.333 3.779-.62 11.207-4.361 10.708-.073-3.014 2.95-6.208 6.81-6.208 6.81-2 1.59-6.26 1.566-8.93 1.017l-8.048-2.73s-1.656-3.992-1.766-4.166l1.4-1.094a18.526 18.526 0 0 0 6.07-.097z" class="cls-2" data-name="Path 2070" transform="translate(-1372.694 -2086.647)"/>
                        <path id="Path_2071" d="M1387.7 2084.819a3.2 3.2 0 0 0 .531.368c-.436.337-.849.7-1.247 1.067-1.921.553-3.823 1.168-5.737 1.743-.186-1.224-.453-2.941-.492-3.06l11.75-6.427s1.381 1.155-.526 3.268a12.693 12.693 0 0 1-4.279 3.041z" class="cls-2" data-name="Path 2071" transform="translate(-1378.515 -2078.51)"/>
                    </g>
                    <path id="Path_2072" d="M1013.765 1898.34c12.036-12.41 34.99 18.284 43.228 27.329a17.461 17.461 0 0 0 5.416 4.009l55.042 21.415-3.459 5.689-60.693-13a23.677 23.677 0 0 1-6.688-2.986c-11.471-7.436-44.835-30.096-32.846-42.456z" class="cls-2" data-name="Path 2072" transform="translate(-994.872 -1836.045)"/>
                    <g id="Group_991" data-name="Group 991" transform="translate(28.033 86.251)">
                        <path id="Path_2073" d="M1085.37 2012.893l27.136 5.75-.549 1.1-26.846-5.685a24.268 24.268 0 0 1-6.987-2.748c-6.134-3.593-15.889-10.932-24.753-18.2q.455-.417.894-.852c9.319 7.612 19.567 15.158 24.46 18.023a23.1 23.1 0 0 0 6.645 2.612z" class="cls-8" data-name="Path 2073" transform="translate(-1053.371 -1992.255)"/>
                    </g>
                </g>
            </g>
            <g id="Group_1103" data-name="Group 1103" transform="translate(-35 14.853)">
                <g id="Group_957" class="cls-15" data-name="Group 957" transform="translate(426.291 343.638)">
                    <g id="Group_954" data-name="Group 954" transform="translate(9.259)">
                        <path id="Path_2014" d="M407.768 464.787s-15.725-47.908-50.641-54.209c-27.116 32.944 5.031 68.77 5.031 68.77l39.794 18.992z" class="cls-13" data-name="Path 2014" transform="translate(-346.254 -410.578)"/>
                        <path id="Path_2015" d="M396.92 432.283L385.835 451.7l-20.92-40.958c-.274-.055-.546-.115-.823-.165-.107.13-.2.26-.309.389l11.2 21.937-20.128-5.133c-.054.19-.1.379-.153.569l-.129.5 21.082 5.376 18.672 36.558-35.609-7.873c.2.429.4.854.6 1.269l35.669 7.894 13.259 25.959.672.321.187-1.079-22.666-44.377 11.223-19.66q-.367-.475-.742-.944z" class="cls-16" data-name="Path 2015" transform="translate(-353.22 -410.578)"/>
                    </g>
                    <g id="Group_956" data-name="Group 956" transform="translate(0 59.769)">
                        <path id="Path_2016" d="M347.248 791.619s-33.854-25-57.737-9.885c.557 57.716 74.012 61.082 74.012 61.082z" class="cls-6" data-name="Path 2016" transform="translate(-289.511 -776.877)"/>
                        <g id="Group_955" data-name="Group 955" transform="translate(0 .537)">
                            <path id="Path_2017" d="M289.51 784.49c0 .222.009.442.013.662l48.319 30.233-29.274 10.276q.5.418 1 .824l29.474-10.346 18.873 11.808-.52-1.636-36.744-22.99-5.413-22.959q-.592-.1-1.186-.193l5.261 22.314-29.274-18.316c-.178.107-.356.209-.532.321z" class="cls-7" data-name="Path 2017" transform="translate(-289.51 -780.17)"/>
                        </g>
                    </g>
                </g>
                <g id="Group_967" class="cls-15" data-name="Group 967" transform="translate(453.871 444.728)">
                    <path id="Path_2026" d="M485.147 1032.258c-.578.591-.818 3.747-.391 7.254a30.726 30.726 0 0 0-7.675 4.65c-2.391-1.957-5.118-3.77-6.578-3.314-2.963.924-7.211 8.22-7.2 9.535.009.842 2.148 3.315 5.006 5.524a30.723 30.723 0 0 0-2.268 8.595c-3.082.306-6.307.952-7.019 2.31-1.442 2.749.713 10.911 1.653 11.831.589.576 3.727.816 7.22.4a30.694 30.694 0 0 0 4.474 7.93c-1.874 2.327-3.543 4.911-3.1 6.319.924 2.963 8.22 7.211 9.535 7.2.783-.009 2.977-1.858 5.058-4.416a30.718 30.718 0 0 0 9.164 2.6c.34 2.777.985 5.455 2.208 6.1 2.749 1.442 10.911-.713 11.831-1.653.518-.53.764-3.119.5-6.175a30.7 30.7 0 0 0 8.605-4.906c2.1 1.6 4.285 2.882 5.536 2.491 2.963-.924 7.211-8.22 7.2-9.535-.008-.724-1.591-2.654-3.852-4.586a30.71 30.71 0 0 0 2.479-9.693c2.613-.354 5.047-.993 5.654-2.15 1.442-2.749-.713-10.911-1.653-11.831-.531-.519-3.132-.765-6.2-.5a30.719 30.719 0 0 0-5.1-8.319c1.706-2.19 3.12-4.516 2.712-5.824-.924-2.963-8.22-7.211-9.535-7.2-.787.008-3 1.877-5.089 4.455a30.69 30.69 0 0 0-9.075-2.147c-.323-2.946-.97-5.909-2.266-6.589-2.752-1.451-10.914.704-11.834 1.644zm25.291 33.821a13.817 13.817 0 1 1-15.6-11.772 13.817 13.817 0 0 1 15.6 11.772z" class="cls-17" data-name="Path 2026" transform="translate(-458.541 -1030.122)"/>
                    <g id="Group_965" data-name="Group 965" transform="translate(18.229 18.138)">
                        <path id="Path_2027" d="M609.4 1158.226a19.663 19.663 0 1 1-22.2-16.753 19.686 19.686 0 0 1 22.2 16.753zm-38.672 5.4a19.384 19.384 0 1 0 16.515-21.881 19.407 19.407 0 0 0-16.513 21.886z" class="cls-7" data-name="Path 2027" transform="translate(-570.263 -1141.283)"/>
                    </g>
                    <g id="Group_966" data-name="Group 966" transform="translate(9.945 9.192)">
                        <path id="Path_2028" d="M632.586 1088.216v.392a28.184 28.184 0 0 1 27.709 48.217c.045.121.086.245.122.369a28.55 28.55 0 0 0-27.834-48.98z" class="cls-7" data-name="Path 2028" transform="translate(-614.132 -1086.456)"/>
                        <path id="Path_2029" d="M528.115 1299.728a28.044 28.044 0 0 1-8.236-16.254c-.018-.126-.027-.251-.043-.376-.114.062-.232.117-.349.172.011.085.017.17.029.255a28.407 28.407 0 0 0 8.288 16.413q.154-.109.311-.21z" class="cls-7" data-name="Path 2029" transform="translate(-519.488 -1251.012)"/>
                    </g>
                </g>
                <g id="Group_994" data-name="Group 994" transform="translate(466.125 326.258)">
                    <path id="Path_2074" d="M1076.487 565.385a16.851 16.851 0 0 0-28.286-10.363v-33.99a10.005 10.005 0 0 0-10.005-10.005h-4.522V623.6h14.526v-43.993a16.854 16.854 0 0 0 28.286-14.222z" class="cls-18" data-name="Path 2074" transform="translate(-952.083 -477.256)"/>
                    <path id="Path_2075" d="M630.1 304.058c-53.514 1.3-96.456 41.12-96.456 90.059s42.943 88.762 96.456 90.058z" class="cls-18" data-name="Path 2075" transform="translate(-533.641 -304.058)"/>
                    <ellipse id="Ellipse_137" cx="9.144" cy="9.144" class="cls-7" data-name="Ellipse 137" rx="9.144" ry="9.144" transform="translate(26.78 81.404)"/>
                    <ellipse id="Ellipse_138" cx="9.144" cy="9.144" class="cls-7" data-name="Ellipse 138" rx="9.144" ry="9.144" transform="translate(56.398 81.404)"/>
                </g>
                <path id="Path_2077" d="M811.733 1317.841l37.393 49.414-10.937-49.414z" class="cls-18" data-name="Path 2077" transform="translate(-300.232 -826.166)"/>
            </g>
            <g id="Group_1102" data-name="Group 1102" transform="translate(0 .282)">
                <g id="Group_961" class="cls-15" data-name="Group 961" transform="translate(753.141 325.828)">
                    <g id="Group_958" data-name="Group 958">
                        <path id="Path_2018" d="M2237.5 254.4s5.761-50.093 38.7-63.291c33.191 26.813 8.913 68.376 8.913 68.376l-35.168 26.615z" class="cls-13" data-name="Path 2018" transform="translate(-2237.495 -191.111)"/>
                        <path id="Path_2019" d="M2301.59 218.979l14.766 16.79 12.249-44.331c.258-.109.512-.223.773-.327.13.106.252.213.381.319l-6.56 23.743 18.683-9.079c.091.175.175.351.264.526l.228.469-19.568 9.509-10.933 39.568 33.3-14.888c-.107.46-.217.916-.331 1.364l-33.351 14.911-7.763 28.1-.594.45-.4-1.02L2316 237.048l-14.95-17q.267-.534.54-1.069z" class="cls-16" data-name="Path 2019" transform="translate(-2290.682 -191.111)"/>
                    </g>
                    <g id="Group_960" data-name="Group 960" transform="translate(11.216 57.28)">
                        <path id="Path_2020" d="M2311.872 565.433s28.13-31.3 54.567-21.3c11.069 56.647-60.2 74.727-60.2 74.727z" class="cls-6" data-name="Path 2020" transform="translate(-2306.234 -542.158)"/>
                        <g id="Group_959" data-name="Group 959" transform="translate(1.941 1.764)">
                            <path id="Path_2021" d="M2376.394 553.179c.043.218.08.434.121.651l-41.246 39.338 30.744 4.174q-.4.51-.819 1.009l-30.953-4.2-16.11 15.365.18-1.707 31.365-29.915.682-23.579q.559-.22 1.123-.427l-.662 22.917 24.989-23.833c.2.069.391.134.586.208z" class="cls-7" data-name="Path 2021" transform="translate(-2318.13 -552.97)"/>
                        </g>
                    </g>
                </g>
                <g id="Group_964" class="cls-15" data-name="Group 964" transform="translate(752.304 435.185)">
                    <path id="Path_2022" d="M2301.376 901.293c-.259-.733-2.826-2.244-5.966-3.339a28.909 28.909 0 0 0-.745-8.412c2.645-1.209 5.307-2.76 5.528-4.182.448-2.886-3.953-9.5-5.07-10.033-.715-.341-3.691.44-6.743 1.938a28.894 28.894 0 0 0-6.319-5.48c1.019-2.73 1.812-5.723.96-6.888-1.724-2.358-9.513-3.922-10.68-3.51-.731.259-2.235 2.81-3.328 5.935a28.882 28.882 0 0 0-8.554.49c-1.188-2.548-2.679-5.03-4.051-5.243-2.886-.448-9.5 3.953-10.033 5.07-.317.665.335 3.286 1.633 6.1a28.9 28.9 0 0 0-6 6.662c-2.487-.864-5.017-1.43-6.066-.663-2.358 1.724-3.922 9.513-3.51 10.679.232.657 2.318 1.939 5.008 2.986a28.9 28.9 0 0 0 .576 9.3c-2.228 1.112-4.211 2.425-4.4 3.644-.448 2.886 3.953 9.5 5.07 10.033.615.293 2.9-.243 5.471-1.352a28.9 28.9 0 0 0 7.159 6.114c-.785 2.354-1.254 4.675-.528 5.667 1.724 2.358 9.513 3.922 10.68 3.51.659-.233 1.945-2.328 2.993-5.028a28.913 28.913 0 0 0 9.144-.861c1.142 2.349 2.521 4.508 3.8 4.706 2.886.448 9.5-3.953 10.033-5.07.319-.668-.342-3.312-1.653-6.146a28.889 28.889 0 0 0 5.577-6.775c2.622.949 5.395 1.631 6.505.818 2.357-1.715 3.922-9.503 3.509-10.67zm-39.058 7.339a13 13 0 1 1 16.412-8.293 13 13 0 0 1-16.412 8.293z" class="cls-17" data-name="Path 2022" transform="translate(-2232.369 -861.321)"/>
                    <g id="Group_962" data-name="Group 962" transform="translate(15.691 16.211)">
                        <path id="Path_2023" d="M2341.261 996.758a18.5 18.5 0 1 1 23.356-11.8 18.525 18.525 0 0 1-23.356 11.8zm11.472-34.909a18.242 18.242 0 1 0 11.635 23.025 18.262 18.262 0 0 0-11.635-23.025z" class="cls-7" data-name="Path 2023" transform="translate(-2328.532 -960.674)"/>
                    </g>
                    <g id="Group_963" data-name="Group 963" transform="translate(7.898 8.17)">
                        <path id="Path_2024" d="M2333.689 1092.343c-.112-.051-.222-.1-.331-.161a26.522 26.522 0 0 1-52.221 3.411 4.92 4.92 0 0 1-.362-.05 26.867 26.867 0 0 0 52.918-3.2z" class="cls-7" data-name="Path 2024" transform="translate(-2280.771 -1062.683)"/>
                        <path id="Path_2025" d="M2386.723 913.281a26.39 26.39 0 0 1 17.145-.216c.113.037.223.081.335.12v-.366c-.077-.026-.151-.056-.227-.081a26.732 26.732 0 0 0-17.3.2l.047.343z" class="cls-7" data-name="Path 2025" transform="translate(-2369.395 -911.394)"/>
                    </g>
                </g>
                <g id="Group_995" data-name="Group 995" transform="translate(696.622 344.258)">
                    <path id="Path_2076" d="M1891.113 304.058v77.592a16.868 16.868 0 1 1 0 24.933v77.592c53.514-1.3 96.456-41.121 96.456-90.058s-42.943-88.762-96.456-90.059z" class="cls-19" data-name="Path 2076" transform="translate(-1891.113 -304.058)"/>
                    <ellipse id="Ellipse_139" cx="9.144" cy="9.144" class="cls-7" data-name="Ellipse 139" rx="9.144" ry="9.144" transform="translate(37.92 81.404)"/>
                    <ellipse id="Ellipse_140" cx="9.144" cy="9.144" class="cls-7" data-name="Ellipse 140" rx="9.144" ry="9.144" transform="translate(67.537 81.404)"/>
                </g>
                <path id="Path_2078" d="M2037.317 1299.263l-37.393 49.414 10.937-49.414z" class="cls-19" data-name="Path 2078" transform="translate(-1285.548 -792.619)"/>
            </g>
        </g>
        <g id="Group_1009" data-name="Group 1009" transform="translate(-263 4263)">
            <rect id="Rectangle_2231" width="463" height="6" data-name="Rectangle 2231" rx="3" transform="translate(460 3190)"/>
            <rect id="Rectangle_2232" width="50" height="6" data-name="Rectangle 2232" rx="3" transform="translate(400 3190)"/>
            <rect id="Rectangle_2233" width="20" height="6" data-name="Rectangle 2233" rx="3" transform="translate(933 3190)"/>
            <rect id="Rectangle_2234" width="40" height="6" data-name="Rectangle 2234" rx="3" transform="translate(963 3190)"/>
        </g>
    </g>
</svg>
