<svg xmlns="http://www.w3.org/2000/svg" width="55" height="55" viewBox="0 0 55 55">
    <defs>
        <style>
            .prefix__cls-1,.prefix__cls-3{fill:#ee2e22;stroke:#fff}.prefix__cls-1{stroke-width:.2px}.prefix__cls-3{stroke-width:.3px}
        </style>
    </defs>
    <g id="prefix__Group_3978" data-name="Group 3978" transform="translate(-1265 -1837)">
        <g id="prefix__Group_3826" data-name="Group 3826" transform="translate(1280.306 1852.306)">
            <path id="prefix__Path_7874" d="M209.173 204.283a.332.332 0 00-.049-.118.325.325 0 00-.042-.051l-1.648-1.649-3.3-3.3-1.646-1.646-.308-.308 3.875-3.875 2.349-2.349a.334.334 0 000-.473l-4.5-4.5a.334.334 0 00-.473 0l-2.349 2.35-3.875 3.875-1.312-1.312-1.644-1.644-3.94-3.941a.335.335 0 00-.473 0l-4.5 4.5a.334.334 0 000 .473l6.908 6.908-4.385 4.385a.334.334 0 00-.047.061c0 .006-.007.013-.01.02a.332.332 0 00-.022.051v.011l-1.839 6.339a.334.334 0 00.414.415l6.339-1.839h.011a.3.3 0 00.052-.023l.019-.01a.345.345 0 00.061-.047l4.386-4.386 6.907 6.907a.334.334 0 00.473 0l4.5-4.5a.334.334 0 00.068-.324zm-19.116-18.249l1.821 1.821-1.035 1.035a.334.334 0 00.473.473l1.035-1.035 1.176 1.176-.743.743a.334.334 0 00.473.473l.743-.743 1.176 1.176-1.035 1.035a.334.334 0 00.473.473l1.035-1.035 1.079 1.078-4.027 4.027-6.671-6.671zm17.631 4.71l-1.876 1.876-4.027-4.027 1.876-1.876zm-18.607 16.249l-1.674-1.65.836-2.88 3.7 3.7zm.994-3.644l12.76-12.761 1.143 1.143-12.76 12.76zm11.237-14.283l1.05 1.05-12.76 12.76-1.05-1.05zm-8.733 16.788l-.888-.889 12.76-12.761.888.889zm9.122-8.176l.073.073-1.035 1.035a.334.334 0 00.473.473l1.035-1.035 1.176 1.176-.743.743a.334.334 0 10.473.473l.743-.743 1.177 1.176-1.035 1.035a.334.334 0 00.473.473l1.035-1.035 1.176 1.176-.743.743a.334.334 0 10.473.473l.743-.743 1.177 1.177-.169.17-.866.865-2.99 2.99-6.671-6.67z" class="prefix__cls-1" data-name="Path 7874" transform="translate(-185.223 -185.226)"/>
            <path id="prefix__Path_7875" d="M249.749 254.4a1.22 1.22 0 10.862 2.083 1.22 1.22 0 00-.863-2.082zm.338 1.558a.479.479 0 11.14-.338.477.477 0 01-.14.336z" class="prefix__cls-1" data-name="Path 7875" transform="translate(-245.023 -250.567)"/>
        </g>
        <g id="prefix__Group_3827" data-name="Group 3827" transform="translate(1265 1837)">
            <g id="prefix__Rectangle_2081" data-name="Rectangle 2081" style="fill:#fff;stroke:#ee2e22">
                <rect width="55" height="55" rx="27.5" style="stroke:none"/>
                <rect width="54" height="54" x=".5" y=".5" rx="27" style="fill:none"/>
            </g>
            <g id="prefix__Group_3987" data-name="Group 3987" transform="translate(0 -2)">
                <g id="prefix__Group_3986" data-name="Group 3986" transform="translate(-418 -474.033)">
                    <g id="prefix__Group_3983" data-name="Group 3983" transform="translate(432 491.033)">
                        <g id="prefix__Group_3979" data-name="Group 3979" transform="translate(9.95)">
                            <path id="prefix__Path_7934" d="M630.826 497.928h-5.543a1.159 1.159 0 01-1.158-1.158v-4.579a1.159 1.159 0 011.158-1.158h5.543a1.159 1.159 0 011.158 1.158v4.579a1.159 1.159 0 01-1.158 1.158zm-5.543-5.784a.047.047 0 00-.047.047v4.579a.047.047 0 00.047.047h5.543a.047.047 0 00.047-.047v-4.579a.047.047 0 00-.047-.047z" class="prefix__cls-3" data-name="Path 7934" transform="translate(-624.125 -491.033)"/>
                        </g>
                        <g id="prefix__Group_3981" data-name="Group 3981" transform="translate(19.901 14.75)">
                            <path id="prefix__Path_7936" d="M822.955 782.728h-5.543a1.159 1.159 0 01-1.158-1.158v-4.579a1.159 1.159 0 011.158-1.158h5.543a1.159 1.159 0 011.158 1.158v4.579a1.159 1.159 0 01-1.158 1.158zm-5.543-5.784a.047.047 0 00-.047.047v4.579a.047.047 0 00.047.047h5.543a.047.047 0 00.047-.047v-4.579a.047.047 0 00-.047-.047z" class="prefix__cls-3" data-name="Path 7936" transform="translate(-816.254 -775.833)"/>
                        </g>
                        <g id="prefix__Group_3980" data-name="Group 3980" transform="translate(9.95 14.75)">
                            <path id="prefix__Path_7935" d="M630.826 782.728h-5.543a1.159 1.159 0 01-1.158-1.158v-4.579a1.159 1.159 0 011.158-1.158h5.543a1.159 1.159 0 011.158 1.158v4.579a1.159 1.159 0 01-1.158 1.158zm-5.543-5.784a.047.047 0 00-.047.047v4.579a.047.047 0 00.047.047h5.543a.047.047 0 00.047-.047v-4.579a.047.047 0 00-.047-.047z" class="prefix__cls-3" data-name="Path 7935" transform="translate(-624.125 -775.833)"/>
                        </g>
                        <g id="prefix__Group_3982" data-name="Group 3982" transform="translate(0 14.75)">
                            <path id="prefix__Path_7937" d="M438.7 782.728h-5.543A1.159 1.159 0 01432 781.57v-4.579a1.159 1.159 0 011.158-1.158h5.542a1.159 1.159 0 011.158 1.158v4.579a1.159 1.159 0 01-1.158 1.158zm-5.543-5.784a.047.047 0 00-.047.047v4.579a.048.048 0 00.047.047h5.543a.047.047 0 00.047-.047v-4.579a.047.047 0 00-.047-.047z" class="prefix__cls-3" data-name="Path 7937" transform="translate(-432 -775.833)"/>
                        </g>
                    </g>
                    <g id="prefix__Group_3984" data-name="Group 3984" transform="translate(435.374 501.581)">
                        <path id="prefix__Path_7938" d="M518.162 699.461h-1.111v-3.646h-18.79v3.646h-1.111v-4.2a.555.555 0 01.555-.555h19.9a.555.555 0 01.555.555z" class="prefix__cls-3" data-name="Path 7938" transform="translate(-497.15 -694.704)"/>
                    </g>
                    <g id="prefix__Group_3985" data-name="Group 3985" transform="translate(445.325 497.556)">
                        <path id="prefix__Rectangle_3022" d="M0 0H1.111V8.783H0z" class="prefix__cls-3" data-name="Rectangle 3022"/>
                    </g>
                </g>
            </g>
        </g>
    </g>
</svg>
