<svg xmlns="http://www.w3.org/2000/svg" width="82" height="82" viewBox="0 0 82 82">
    <defs>
        <style>
            .cls-1,.cls-3{fill:#fff;stroke:#ee2e22}.cls-2,.cls-5{fill:none}.cls-2{stroke:#ef2e24}.cls-3{stroke-linecap:round;stroke-linejoin:round;stroke-width:.8px}.cls-4{stroke:none}
        </style>
    </defs>
    <g id="Group_3823" data-name="Group 3823" transform="translate(-1280 -1566)">
        <g id="Rectangle_2081" class="cls-1" data-name="Rectangle 2081" transform="translate(1280 1566)">
            <rect width="82" height="82" class="cls-4" rx="41"/>
            <rect width="81" height="81" x=".5" y=".5" class="cls-5" rx="40.5"/>
        </g>
        <g id="Group_3811" data-name="Group 3811" transform="translate(-.094 .691)">
            <g id="Group_3822" data-name="Group 3822">
                <path id="Path_7830" d="M256.866 266.018a3.133 3.133 0 0 0-2.757 1.618 4.718 4.718 0 0 0-.442 1.16 31.747 31.747 0 0 0-.7 1.73c-.034.091-.066.179-.1.263l-.546.1-.069.013-.068.016-.386.093-.434.1-.031.007-.03.008c-.207.055-.429.121-.663.191l-.177.052-.189-.174a32.536 32.536 0 0 0-1.081-.949l-.315-.261a3.6 3.6 0 0 0-2.688-1.357 3.175 3.175 0 0 0-1.475.369v.008c-.247.117-.48.251-.7.376-.531.305-1.02.61-1.453.906-.456.3-.863.6-1.193.85l-.158.118-.042.031-.041.033-.539.433a3.118 3.118 0 0 0-1.126 3.044 4.67 4.67 0 0 0 .407 1.181c.107.368.324 1.085.577 1.786l.094.259a11.85 11.85 0 0 0-.421.528l-.226.294v.005l-.019.025-.759.99.017.076-.05.077-.242-.013c-.565-.03-1.1-.033-1.451-.033h-.394a5.439 5.439 0 0 0-.8-.066 3.187 3.187 0 0 0-3.055 2.011c-.036.09-.1.247-.174.453l-.755 1.958.092.044-.12.442-.075.274v.03c-.059.227-.1.434-.14.6l-.038.173V285.919l-.055.255-.051.235-.013.058-.01.058-.033.188a3.153 3.153 0 0 0 1.106 2.99 4.686 4.686 0 0 0 1.075.647l.311.208.012.008.012.008c.353.231.809.511 1.251.769l.241.139c0 .186.009.355.014.494v.122l.014.4v.071l.007.071.037.438.039.452.006.066.009.065.02.153.018.13-.2.149c-.352.265-.734.571-1.136.91l-.01.009-.01.009-.275.236a4.635 4.635 0 0 0-1 .789 3.153 3.153 0 0 0-.71 3.166l.008.023.008.023.223.641c.15.445.359.941.561 1.421l.071.17.018.041.019.041c.254.555.5 1.089.746 1.534l.224.424c.073.139.136.246.178.314a3.151 3.151 0 0 0 2.721 1.525 4.634 4.634 0 0 0 1.249-.193c.389-.042 1.127-.13 1.866-.261l.267-.047a16.66 16.66 0 0 0 .366.411v.011c.183.212.331.364.4.432l.274.28c.194.207.4.4.607.589l.062.057-.057.251c-.158.7-.284 1.412-.35 1.806a4.586 4.586 0 0 0-.256 1.257 3.159 3.159 0 0 0 1.478 2.853l.086.054 1.3.812.056-.031c.231.124.479.252.731.374.428.221.844.4 1.179.545.111.048.216.093.311.136l.068.031.069.027.647.25h.02a3.191 3.191 0 0 0 1.132.21 3.46 3.46 0 0 0 2.863-1.706 32.41 32.41 0 0 0 1.44-1.606c.22.038.447.077.669.1l.405.047.453.051.075.009h.075l.27.018c.15.01.326.023.514.033l.118.227a33.589 33.589 0 0 0 .893 1.613 4.781 4.781 0 0 0 .514.989 3.171 3.171 0 0 0 2.619 1.4 3.277 3.277 0 0 0 .442-.03 24.635 24.635 0 0 0 2.439-.469c.486-.11.934-.244 1.3-.353l.3-.089.044-.012.043-.014c.222-.072.405-.134.534-.179a6.82 6.82 0 0 0 .2-.074 3.142 3.142 0 0 0 2.059-2.44 4.672 4.672 0 0 0 .027-1.267c.024-.377.066-1.122.07-1.864v-.294c.194-.114.378-.221.552-.333l.015-.009.015-.01.335-.22H268.178l.369-.246.063-.042.06-.045c.062-.046.132-.1.207-.151.125-.09.272-.2.426-.313l.22.092c.68.288 1.366.535 1.729.662a4.036 4.036 0 0 0 1.924.55 3.126 3.126 0 0 0 2.32-1.019l-.007-.006c.19-.193.366-.4.546-.619.391-.467.745-.915 1.052-1.332l.019-.025.017-.025.142-.2c.283-.4.576-.819.808-1.2l.354-.57.03-.048.028-.049a3.152 3.152 0 0 0-.027-3.175 4.709 4.709 0 0 0-.787-.975l-.223-.3c-.264-.358-.6-.783-.926-1.175l-.175-.209c.067-.189.123-.361.168-.5l.029-.089c.077-.239.127-.4.127-.4l.019-.057.016-.058.116-.425v-.014l.019-.072.1-.365.016-.06.013-.061.063-.285.245-.075c.7-.217 1.383-.471 1.74-.607a4.633 4.633 0 0 0 1.2-.4 3.133 3.133 0 0 0 1.745-2.779l.011-.687v-.018c0-.422-.014-.976-.053-1.7V289.568c-.047-.572-.095-1.162-.173-1.663l-.031-.223-.033-.24a6.608 6.608 0 0 0-.05-.324 3.152 3.152 0 0 0-2.059-2.41 4.692 4.692 0 0 0-1.23-.241l-.365-.09h-.014c-.419-.1-.948-.211-1.453-.3l-.269-.048q-.108-.293-.24-.605l-.144-.355-.009-.021-.558-1.37.084-.131c.393-.613.757-1.248.943-1.582a4.616 4.616 0 0 0 .665-1.082 3.139 3.139 0 0 0-.452-3.246l-.426-.528-.032-.039-.034-.038-.124-.143c-.27-.313-.606-.7-.99-1.092a22.317 22.317 0 0 0-1.816-1.709 3.111 3.111 0 0 0-2.031-.755 3.782 3.782 0 0 0-2.211.8c-.1.051-.235.117-.387.195-.235.119-.722.373-1.271.685l-.246.141-.49-.275-.058-.032-.059-.03-.356-.178-.4-.2-.046-.023-.047-.021c-.231-.1-.5-.224-.766-.338l-.034-.258a32.815 32.815 0 0 0-.292-1.824 4.562 4.562 0 0 0-.19-1.253 3.164 3.164 0 0 0-2.319-2.167c-.106-.025-.424-.1-.867-.168l-.587-.1-.1-.017-.062-.01-.063-.008-.313-.038-.5-.06c-.489-.061-.963-.088-1.344-.11l-.318-.019h-.14l-.692-.012h-.057z" class="cls-2" data-name="Path 7830" transform="translate(1064.386 1315.291)"/>
                <g id="Group_3810" data-name="Group 3810" transform="translate(1311.16 1592.848)">
                    <g id="Group_3800" data-name="Group 3800">
                        <path id="Path_7850" d="M1043.865 1205.04v1.16a1.365 1.365 0 0 1-.986 1.312c-1.1.317-2.744.645-3.969.957a2.319 2.319 0 0 0-1.759 2.021l-1.576 8.663a.778.778 0 0 0 .384.793h.005a.812.812 0 0 0 .143.064 34.617 34.617 0 0 0 19.962.011.792.792 0 0 0 .135-.06l.045-.025a.779.779 0 0 0 .394-.787l-1.5-8.708a2.325 2.325 0 0 0-1.759-2.066c-1.225-.312-2.526-.55-3.625-.866a1.365 1.365 0 0 1-.986-1.312v-1.086" class="cls-3" data-name="Path 7850" transform="translate(-1035.566 -1194.26)"/>
                        <g id="Group_3795" data-name="Group 3795" transform="translate(6.471 6.085)">
                            <path id="Path_7851" d="M1121.683 1148.6c.238-.138.436-.011.436.522a15.3 15.3 0 0 1-.337 1.8.5.5 0 0 1-.5.393 3.353 3.353 0 0 1-.817 1.743s-.2.194-.25.235l-1.652.9a2.367 2.367 0 0 1-1.841-.038l-1.412-.878a.458.458 0 0 1-.1-.082l-.121-.136a3.358 3.358 0 0 1-.817-1.743.5.5 0 0 1-.5-.393 15.244 15.244 0 0 1-.337-1.8c0-.533.2-.66.436-.522" class="cls-3" data-name="Path 7851" transform="translate(-1113.433 -1148.544)"/>
                        </g>
                        <path id="Path_7852" d="M1117.137 1077.936l1.172 1.038a2.747 2.747 0 0 0 1.822.691h1.086a2.651 2.651 0 0 1 1.727.64l.01.009a1.031 1.031 0 0 1 .339.582l.163.825.24-.046s1.481-6.353-4.067-6.353c-4.51 0-4.377 3.919-4.311 6.039l.3.18v-.018a7.183 7.183 0 0 1 1.256-3.212z" class="cls-3" data-name="Path 7852" transform="translate(-1108.673 -1075.323)"/>
                        <g id="Group_3796" data-name="Group 3796" transform="translate(4.992 18.194)">
                            <path id="Line_9" d="M0 0v8.415" class="cls-3" data-name="Line 9"/>
                            <path id="Line_10" d="M0 0v8.415" class="cls-3" data-name="Line 10" transform="translate(11.439)"/>
                        </g>
                        <g id="Group_3797" data-name="Group 3797" transform="translate(9.574 13.973)">
                            <path id="Path_7853" d="M1152.412 1265.246l.628 11.341h-.014a9 9 0 0 1-2.239.022h-.011l.625-11.363" class="cls-3" data-name="Path 7853" transform="translate(-1150.776 -1263.436)"/>
                            <path id="Path_7854" d="M1153.5 1245.28h.962a.435.435 0 0 0 .462-.4v-1a.435.435 0 0 0-.462-.4h-.962a.436.436 0 0 0-.462.4v1a.436.436 0 0 0 .462.4z" class="cls-3" data-name="Path 7854" transform="translate(-1152.85 -1243.471)"/>
                        </g>
                        <g id="Group_3799" data-name="Group 3799" transform="translate(7.708 12.242)">
                            <g id="Group_3798" data-name="Group 3798">
                                <path id="Path_7855" d="M1167.478 1224.051l-.953 2.691-2.125-1.805 2.548-1.644a1.467 1.467 0 0 0 .53.758z" class="cls-3" data-name="Path 7855" transform="translate(-1161.402 -1223.238)"/>
                                <path id="Path_7856" d="M1128.323 1223.459l.8 2.682 2.212-1.814-2.454-1.69a1.334 1.334 0 0 1-.558.822z" class="cls-3" data-name="Path 7856" transform="translate(-1128.323 -1222.637)"/>
                            </g>
                        </g>
                    </g>
                </g>
            </g>
        </g>
    </g>
</svg>
