<svg xmlns="http://www.w3.org/2000/svg" width="82" height="82" viewBox="0 0 82 82">
    <defs>
        <style>
            .cls-1{fill:#fff}.cls-1,.cls-2{stroke:#ee2e22}.cls-2,.cls-4{fill:none}.cls-2{stroke-miterlimit:10}.cls-3{stroke:none}
        </style>
    </defs>
    <g id="Group_3816" data-name="Group 3816" transform="translate(-781 -1585)">
        <g id="Group_3824" data-name="Group 3824">
            <g id="Rectangle_2081" class="cls-1" data-name="Rectangle 2081" transform="translate(781 1585)">
                <rect width="82" height="82" class="cls-3" rx="41"/>
                <rect width="81" height="81" x=".5" y=".5" class="cls-4" rx="40.5"/>
            </g>
            <g id="Group_3815" data-name="Group 3815" transform="translate(769.995 1436.121)">
                <g id="Group_3812" data-name="Group 3812" transform="translate(32 184.878)">
                    <path id="Path_7859" d="M63.826 219.875l1.2.757a1.99 1.99 0 0 1 .616 2.746 1.991 1.991 0 0 1-2.746.615l-.945-.557" class="cls-2" data-name="Path 7859" transform="translate(-43.225 -202.449)"/>
                    <path id="Path_7860" d="M67.085 214.5l3.156 2a1.989 1.989 0 0 1 .615 2.746 1.99 1.99 0 0 1-2.746.616l-3.156-2" class="cls-2" data-name="Path 7860" transform="translate(-44.353 -200.433)"/>
                    <path id="Path_7861" d="M70.492 209.121l5.116 3.243a1.989 1.989 0 0 1 .616 2.746 1.989 1.989 0 0 1-2.746.616l-5.116-3.243" class="cls-2" data-name="Path 7861" transform="translate(-45.63 -198.418)"/>
                    <path id="Path_7862" d="M86.148 208.909l.584-1.218 1.062-.6h4.514" class="cls-2" data-name="Path 7862" transform="translate(-52.297 -197.656)"/>
                    <path id="Path_7863" d="M41.335 214.676l-.089-.056a1.889 1.889 0 0 1-.576-2.609 1.89 1.89 0 0 1 2.609-.576l.088.057a1.89 1.89 0 0 1 .576 2.609 1.89 1.89 0 0 1-2.608.575z" class="cls-2" data-name="Path 7863" transform="translate(-35.139 -199.173)"/>
                    <path id="Path_7864" d="M57.207 224.4l-.089-.057a1.89 1.89 0 0 1-.576-2.609 1.89 1.89 0 0 1 2.609-.576l.089.056a1.89 1.89 0 0 1 .576 2.609 1.89 1.89 0 0 1-2.609.577z" class="cls-2" data-name="Path 7864" transform="translate(-41.088 -202.82)"/>
                    <path id="Path_7865" d="M46.493 217.065a1.942 1.942 0 0 1-.592-2.682l.91-1.426a1.942 1.942 0 0 1 2.682-.592 1.942 1.942 0 0 1 .593 2.682l-.91 1.426a1.942 1.942 0 0 1-2.683.592z" class="cls-2" data-name="Path 7865" transform="translate(-37.096 -199.519)"/>
                    <path id="Path_7866" d="M51.73 219.9a1.942 1.942 0 0 1-.592-2.682l1.479-2.318a1.942 1.942 0 0 1 2.683-.6 1.942 1.942 0 0 1 .592 2.682l-1.48 2.318a1.942 1.942 0 0 1-2.682.6z" class="cls-2" data-name="Path 7866" transform="translate(-39.059 -200.247)"/>
                    <path id="Path_7867" d="M32 207h4.376l1.264.614.745 1.622" class="cls-2" data-name="Path 7867" transform="translate(-32 -197.623)"/>
                    <path id="Path_7869" d="M62.413 192h-1.25l-4.116 4.385a2.071 2.071 0 0 0 .023 2.969 2.07 2.07 0 0 0 2.9-.033l1.637-1.639a2.394 2.394 0 0 1 1.773-.671h.935l10.9 6.794a2 2 0 0 1 .621 2.789 2 2 0 0 1-2.748.6L66.02 202.7" class="cls-2" data-name="Path 7869" transform="translate(-41.158 -192)"/>
                </g>
                <g id="Group_3814" data-name="Group 3814" transform="translate(32.625 173)">
                    <path id="Path_7870" d="M72.975 187.379h1.172l2.605-2.5h7.5a.625.625 0 0 0 .625-.625v-10.629a.625.625 0 0 0-.625-.625H68.625a.625.625 0 0 0-.625.625v10.628a.625.625 0 0 0 .625.625h4.35z" class="cls-2" data-name="Path 7870" transform="translate(-46.12 -173)"/>
                    <path id="Line_13" d="M0 0h1" class="cls-2" data-name="Line 13" transform="translate(27.38 5.879)"/>
                    <path id="Line_14" d="M0 0h1" class="cls-2" data-name="Line 14" transform="translate(29.38 5.879)"/>
                    <path id="Line_15" d="M0 0h1" class="cls-2" data-name="Line 15" transform="translate(32.38 5.879)"/>
                    <g id="Group_3813" data-name="Group 3813">
                        <path id="Path_7872" d="M44.9 184.878v2.5h-1.168l-2.605-2.5h-7.5a.625.625 0 0 1-.625-.625v-10.628a.625.625 0 0 1 .625-.625h15.627a.625.625 0 0 1 .625.625v10.628a.625.625 0 0 1-.625.625z" class="cls-2" data-name="Path 7872" transform="translate(-33 -173)"/>
                        <path id="Line_16" d="M1 0H0" class="cls-2" data-name="Line 16" transform="translate(10.38 5.879)"/>
                        <path id="Line_17" d="M1 0H0" class="cls-2" data-name="Line 17" transform="translate(8.38 5.879)"/>
                        <path id="Line_18" d="M1 0H0" class="cls-2" data-name="Line 18" transform="translate(5.38 5.879)"/>
                    </g>
                </g>
            </g>
        </g>
    </g>
</svg>
