<?xml version="1.0" encoding="utf-8"?>
<!-- Generator: Adobe Illustrator 26.0.0, SVG Export Plug-In . SVG Version: 6.00 Build 0)  -->
<svg version="1.1" id="Layer_1" xmlns="http://www.w3.org/2000/svg" xmlns:xlink="http://www.w3.org/1999/xlink" x="0px" y="0px"
	 viewBox="0 0 292.778 77.98" style="enable-background:new 0 0 292.778 77.98;" xml:space="preserve">
<style type="text/css">
	.st0{fill:#151612;}
	.st1{fill:#EE1C4E;}
	.st2{fill:none;stroke:#000000;stroke-miterlimit:10;}
	.st3{fill:#D43F33;}
	.st4{fill:#314D92;}
	.st5{fill:url(#SVGID_1_);}
	.st6{fill:url(#SVGID_00000160901833751962277500000005014875850116813454_);}
	.st7{fill:url(#SVGID_00000013893037164968427650000016350176088561397381_);}
	.st8{fill:url(#SVGID_00000005232070585029742330000004566810530121957796_);}
</style>
<g>
	<g>
		<g>
			<path d="M90.541,63.681l-0.619-9.146h1.369l0.234,4.523c0.014,0.216,0.037,0.803,0.069,1.759
				c0.009,0.267,0.014,0.454,0.014,0.562c0,0.071-0.002,0.277-0.007,0.618c0.56-1.04,0.963-1.771,1.21-2.196l3.068-5.266h1.39
				l0.337,5.347c0.037,0.611,0.062,1.348,0.075,2.208c0.083-0.212,0.229-0.528,0.44-0.948c0.335-0.678,0.583-1.163,0.743-1.454
				l2.875-5.153h1.376l-5.132,9.146H96.54l-0.337-5.54c-0.032-0.474-0.058-1.056-0.076-1.747c-0.28,0.578-0.514,1.027-0.702,1.347
				l-3.495,5.939H90.541z"/>
			<path d="M102.146,61.166c0-1.294,0.419-2.365,1.259-3.213c0.692-0.699,1.6-1.048,2.724-1.048c0.88,0,1.59,0.249,2.129,0.749
				c0.539,0.499,0.808,1.173,0.808,2.021c0,0.761-0.169,1.469-0.509,2.125c-0.34,0.655-0.822,1.157-1.448,1.506
				c-0.626,0.35-1.285,0.524-1.978,0.524c-0.569,0-1.086-0.11-1.551-0.331c-0.465-0.22-0.821-0.532-1.066-0.935
				C102.269,62.16,102.146,61.695,102.146,61.166z M103.392,61.054c0,0.624,0.165,1.097,0.495,1.419
				c0.33,0.322,0.75,0.483,1.259,0.483c0.266,0,0.53-0.049,0.791-0.146c0.261-0.098,0.504-0.246,0.729-0.446
				c0.225-0.2,0.416-0.427,0.575-0.683c0.158-0.256,0.285-0.531,0.382-0.827c0.142-0.412,0.213-0.807,0.213-1.186
				c0-0.599-0.166-1.063-0.499-1.394c-0.332-0.331-0.751-0.496-1.255-0.496c-0.39,0-0.745,0.084-1.066,0.253
				c-0.321,0.168-0.611,0.415-0.87,0.739c-0.259,0.324-0.449,0.702-0.571,1.132C103.452,60.333,103.392,60.717,103.392,61.054z"/>
			<path d="M109.761,63.681l1.527-6.625h1.101l-0.31,1.354c0.376-0.512,0.744-0.89,1.104-1.136c0.36-0.245,0.728-0.368,1.104-0.368
				c0.248,0,0.552,0.081,0.914,0.244l-0.509,1.048c-0.216-0.141-0.452-0.212-0.709-0.212c-0.436,0-0.883,0.22-1.341,0.661
				c-0.459,0.441-0.819,1.233-1.08,2.377l-0.619,2.658H109.761z"/>
			<path d="M114.356,63.681l2.105-9.146h1.245l-2.104,9.146H114.356z"/>
			<path d="M122.508,62.72c-0.711,0.741-1.454,1.111-2.229,1.111c-0.692,0-1.269-0.232-1.73-0.696
				c-0.461-0.464-0.691-1.136-0.691-2.018c0-0.807,0.183-1.544,0.547-2.212c0.365-0.667,0.821-1.167,1.369-1.5
				c0.548-0.332,1.097-0.499,1.647-0.499c0.908,0,1.593,0.397,2.057,1.192l0.826-3.562h1.238l-2.105,9.146h-1.149L122.508,62.72z
				 M119.096,60.904c0,0.462,0.051,0.826,0.151,1.092c0.101,0.266,0.273,0.488,0.516,0.665c0.243,0.177,0.534,0.265,0.873,0.265
				c0.564,0,1.075-0.266,1.534-0.798c0.614-0.707,0.921-1.581,0.921-2.621c0-0.524-0.151-0.934-0.454-1.229
				c-0.302-0.295-0.683-0.443-1.142-0.443c-0.298,0-0.57,0.061-0.815,0.181c-0.246,0.121-0.489,0.325-0.729,0.614
				c-0.241,0.289-0.443,0.656-0.609,1.101C119.178,60.176,119.096,60.567,119.096,60.904z"/>
			<path d="M129.552,61.166c0-1.294,0.419-2.365,1.259-3.213c0.692-0.699,1.6-1.048,2.724-1.048c0.88,0,1.59,0.249,2.129,0.749
				c0.539,0.499,0.808,1.173,0.808,2.021c0,0.761-0.169,1.469-0.509,2.125c-0.34,0.655-0.822,1.157-1.448,1.506
				c-0.626,0.35-1.285,0.524-1.978,0.524c-0.569,0-1.086-0.11-1.551-0.331c-0.465-0.22-0.821-0.532-1.066-0.935
				C129.674,62.16,129.552,61.695,129.552,61.166z M130.797,61.054c0,0.624,0.165,1.097,0.495,1.419
				c0.33,0.322,0.75,0.483,1.259,0.483c0.266,0,0.53-0.049,0.791-0.146c0.261-0.098,0.504-0.246,0.729-0.446
				c0.225-0.2,0.416-0.427,0.575-0.683c0.158-0.256,0.285-0.531,0.382-0.827c0.142-0.412,0.213-0.807,0.213-1.186
				c0-0.599-0.166-1.063-0.498-1.394c-0.333-0.331-0.751-0.496-1.255-0.496c-0.39,0-0.745,0.084-1.066,0.253
				c-0.321,0.168-0.611,0.415-0.87,0.739c-0.259,0.324-0.449,0.702-0.571,1.132C130.857,60.333,130.797,60.717,130.797,61.054z"/>
			<path d="M137.338,63.681l1.328-5.752h-1.114l0.199-0.874h1.115l0.213-0.942c0.11-0.47,0.224-0.809,0.341-1.017
				c0.117-0.208,0.307-0.379,0.571-0.515c0.264-0.135,0.623-0.203,1.077-0.203c0.316,0,0.775,0.06,1.376,0.181l-0.227,0.986
				c-0.422-0.1-0.775-0.15-1.059-0.15c-0.243,0-0.428,0.055-0.554,0.165c-0.126,0.11-0.235,0.371-0.327,0.783l-0.165,0.712h1.389
				l-0.199,0.874h-1.39l-1.328,5.752H137.338z"/>
			<path d="M145.132,63.681l2.112-9.146h4.21c0.729,0,1.275,0.076,1.641,0.228c0.363,0.152,0.666,0.412,0.904,0.78
				c0.238,0.368,0.357,0.781,0.357,1.238c0,0.378-0.084,0.763-0.254,1.154c-0.17,0.391-0.385,0.713-0.645,0.967
				c-0.258,0.254-0.521,0.445-0.787,0.574c-0.266,0.129-0.551,0.225-0.852,0.287c-0.648,0.137-1.301,0.206-1.961,0.206h-2.525
				l-0.853,3.712H145.132z M147.574,58.933h2.222c0.861,0,1.494-0.084,1.898-0.253c0.404-0.168,0.727-0.425,0.971-0.771
				c0.242-0.345,0.363-0.711,0.363-1.098c0-0.3-0.064-0.544-0.191-0.733c-0.129-0.189-0.311-0.328-0.543-0.418
				c-0.234-0.089-0.684-0.134-1.35-0.134h-2.586L147.574,58.933z"/>
			<path d="M154.61,61.166c0-1.294,0.42-2.365,1.259-3.213c0.692-0.699,1.601-1.048,2.725-1.048c0.88,0,1.59,0.249,2.129,0.749
				c0.539,0.499,0.808,1.173,0.808,2.021c0,0.761-0.17,1.469-0.51,2.125c-0.339,0.655-0.821,1.157-1.447,1.506
				c-0.626,0.35-1.286,0.524-1.979,0.524c-0.568,0-1.085-0.11-1.551-0.331c-0.466-0.22-0.821-0.532-1.066-0.935
				C154.733,62.16,154.61,61.695,154.61,61.166z M155.855,61.054c0,0.624,0.165,1.097,0.495,1.419
				c0.331,0.322,0.75,0.483,1.26,0.483c0.266,0,0.529-0.049,0.791-0.146c0.261-0.098,0.504-0.246,0.729-0.446
				c0.225-0.2,0.416-0.427,0.574-0.683c0.158-0.256,0.286-0.531,0.382-0.827c0.143-0.412,0.214-0.807,0.214-1.186
				c0-0.599-0.167-1.063-0.499-1.394c-0.333-0.331-0.751-0.496-1.256-0.496c-0.39,0-0.745,0.084-1.065,0.253
				c-0.321,0.168-0.611,0.415-0.87,0.739c-0.26,0.324-0.45,0.702-0.571,1.132C155.917,60.333,155.855,60.717,155.855,61.054z"/>
			<path d="M162.343,61.416l1.245-0.069c0,0.325,0.055,0.601,0.165,0.83c0.109,0.229,0.312,0.416,0.608,0.562
				s0.641,0.218,1.035,0.218c0.551,0,0.963-0.1,1.238-0.299c0.275-0.2,0.413-0.435,0.413-0.705c0-0.195-0.083-0.381-0.248-0.555
				c-0.17-0.175-0.583-0.39-1.241-0.646c-0.658-0.256-1.079-0.436-1.263-0.54c-0.307-0.17-0.539-0.371-0.694-0.602
				c-0.156-0.231-0.234-0.496-0.234-0.795c0-0.524,0.23-0.973,0.689-1.348c0.458-0.374,1.1-0.561,1.926-0.561
				c0.917,0,1.615,0.192,2.095,0.577c0.478,0.385,0.727,0.891,0.746,1.519l-1.218,0.075c-0.019-0.4-0.174-0.715-0.468-0.948
				c-0.293-0.233-0.708-0.35-1.245-0.35c-0.431,0-0.766,0.089-1.004,0.268c-0.238,0.179-0.357,0.373-0.357,0.581
				s0.103,0.391,0.31,0.549c0.138,0.108,0.492,0.274,1.065,0.499c0.954,0.375,1.555,0.67,1.803,0.886
				c0.395,0.345,0.592,0.765,0.592,1.26c0,0.329-0.111,0.651-0.334,0.967c-0.223,0.316-0.561,0.569-1.018,0.758
				c-0.457,0.189-0.994,0.284-1.613,0.284c-0.844,0-1.562-0.189-2.153-0.568S162.31,62.268,162.343,61.416z"/>
			<path d="M169.387,61.416l1.245-0.069c0,0.325,0.055,0.601,0.165,0.83c0.109,0.229,0.312,0.416,0.608,0.562
				c0.296,0.146,0.641,0.218,1.035,0.218c0.551,0,0.963-0.1,1.238-0.299c0.275-0.2,0.413-0.435,0.413-0.705
				c0-0.195-0.083-0.381-0.248-0.555c-0.17-0.175-0.583-0.39-1.241-0.646c-0.658-0.256-1.079-0.436-1.263-0.54
				c-0.307-0.17-0.539-0.371-0.694-0.602c-0.156-0.231-0.234-0.496-0.234-0.795c0-0.524,0.229-0.973,0.688-1.348
				c0.458-0.374,1.101-0.561,1.926-0.561c0.917,0,1.615,0.192,2.095,0.577c0.479,0.385,0.728,0.891,0.746,1.519l-1.218,0.075
				c-0.018-0.4-0.174-0.715-0.468-0.948c-0.293-0.233-0.708-0.35-1.245-0.35c-0.431,0-0.766,0.089-1.004,0.268
				c-0.238,0.179-0.357,0.373-0.357,0.581s0.103,0.391,0.31,0.549c0.138,0.108,0.492,0.274,1.065,0.499
				c0.954,0.375,1.555,0.67,1.803,0.886c0.395,0.345,0.592,0.765,0.592,1.26c0,0.329-0.111,0.651-0.334,0.967
				c-0.223,0.316-0.562,0.569-1.018,0.758c-0.457,0.189-0.994,0.284-1.613,0.284c-0.844,0-1.561-0.189-2.153-0.568
				C169.634,62.884,169.354,62.268,169.387,61.416z"/>
			<path d="M176.266,63.681l1.526-6.625h1.245l-1.526,6.625H176.266z M178.081,55.813l0.296-1.279h1.238l-0.296,1.279H178.081z"/>
			<path d="M179.443,63.681l2.104-9.146h1.245l-0.749,3.269c0.394-0.329,0.752-0.561,1.072-0.695
				c0.321-0.135,0.656-0.203,1.005-0.203c0.683,0,1.253,0.231,1.709,0.693c0.456,0.461,0.684,1.133,0.684,2.015
				c0,0.587-0.092,1.123-0.275,1.61c-0.184,0.487-0.41,0.895-0.681,1.226c-0.27,0.331-0.551,0.595-0.839,0.792
				c-0.289,0.198-0.585,0.345-0.888,0.443c-0.303,0.098-0.594,0.147-0.874,0.147c-0.481,0-0.905-0.116-1.272-0.346
				c-0.366-0.231-0.653-0.583-0.859-1.058l-0.289,1.254H179.443z M181.287,60.96l-0.007,0.212c0,0.565,0.148,0.996,0.447,1.292
				c0.298,0.295,0.669,0.443,1.114,0.443c0.436,0,0.836-0.138,1.2-0.415c0.364-0.276,0.664-0.708,0.898-1.295
				c0.234-0.586,0.35-1.127,0.35-1.622c0-0.558-0.147-0.99-0.443-1.298c-0.296-0.308-0.661-0.461-1.098-0.461
				c-0.449,0-0.861,0.157-1.237,0.471c-0.377,0.314-0.69,0.798-0.942,1.451C181.381,60.224,181.287,60.632,181.287,60.96z"/>
			<path d="M187.23,63.681l1.526-6.625h1.245l-1.526,6.625H187.23z M189.046,55.813l0.296-1.279h1.238l-0.296,1.279H189.046z"/>
			<path d="M190.311,63.681l2.105-9.146h1.245l-2.105,9.146H190.311z"/>
			<path d="M193.49,63.681l1.526-6.625h1.245l-1.526,6.625H193.49z M195.306,55.813l0.296-1.279h1.238l-0.296,1.279H195.306z"/>
			<path d="M199.578,62.764l-0.207,0.923c-0.298,0.071-0.587,0.106-0.866,0.106c-0.495,0-0.89-0.11-1.184-0.331
				c-0.22-0.167-0.33-0.393-0.33-0.68c0-0.146,0.06-0.481,0.179-1.004l0.888-3.849h-0.983l0.199-0.874h0.983l0.379-1.629l1.424-0.78
				l-0.558,2.408h1.225l-0.206,0.874h-1.218l-0.847,3.662c-0.105,0.466-0.158,0.745-0.158,0.836c0,0.133,0.043,0.235,0.128,0.306
				c0.085,0.071,0.224,0.106,0.416,0.106C199.117,62.838,199.362,62.813,199.578,62.764z"/>
			<path d="M200.114,66.239l0.075-1.061c0.257,0.067,0.507,0.1,0.749,0.1c0.252,0,0.456-0.052,0.612-0.156
				c0.202-0.137,0.422-0.395,0.66-0.773l0.399-0.649l-1.218-6.644h1.225l0.55,3.35c0.11,0.661,0.204,1.323,0.282,1.984l3.268-5.334
				h1.3l-4.656,7.505c-0.45,0.732-0.849,1.216-1.197,1.454c-0.349,0.237-0.75,0.355-1.204,0.355
				C200.672,66.369,200.39,66.326,200.114,66.239z"/>
		</g>
		<g>
			<path class="st0" d="M91.192,45.298L91.192,45.298c-0.701,0-1.27-0.569-1.27-1.27V21.652c0-0.701,0.569-1.27,1.27-1.27l0,0
				c0.701,0,1.27,0.569,1.27,1.27v22.377C92.462,44.73,91.893,45.298,91.192,45.298z"/>
			<path class="st0" d="M205.464,45.298"/>
			<path class="st0" d="M206.734,44.028V21.652c0-0.701-0.568-1.27-1.27-1.27l0,0c-0.701,0-1.27,0.569-1.27,1.27V39.26
				c0,1.834-1.573,0.099-1.573,0.099l-19.01-18.601c-0.234-0.232-0.556-0.376-0.913-0.376l0,0c-0.713,0-1.291,0.574-1.291,1.283
				v22.608c0,0.708,0.578,1.283,1.291,1.283l0,0c0.713,0,1.291-0.574,1.291-1.283V25.368c0-0.265,0.322-0.397,0.51-0.21
				l20.031,19.908c0.504,0.501,1.322,0.501,1.826,0l0,0c0.302-0.301,0.423-0.713,0.363-1.104"/>
			<path class="st0" d="M235.203,44.028V21.652c0-0.701-0.568-1.27-1.27-1.27l0,0c-0.701,0-1.27,0.569-1.27,1.27V39.26
				c0,1.834-1.573,0.099-1.573,0.099l-19.01-18.601c-0.234-0.232-0.556-0.376-0.913-0.376l0,0c-0.713,0-1.291,0.574-1.291,1.283
				v22.608c0,0.708,0.578,1.283,1.291,1.283l0,0c0.713,0,1.291-0.574,1.291-1.283V25.368c0-0.265,0.322-0.397,0.51-0.21
				l20.031,19.908c0.504,0.501,1.322,0.501,1.826,0l0,0c0.302-0.301,0.423-0.713,0.363-1.104"/>
			<path class="st0" d="M123.697,45.434V21.652c0-0.701,0.569-1.27,1.27-1.27l0,0c0.701,0,1.27,0.569,1.27,1.27v21.243h22.377
				c0.701,0,1.27,0.569,1.27,1.27l0,0c0,0.701-0.568,1.27-1.27,1.27H123.697z"/>
			<line class="st1" x1="98.896" y1="22.464" x2="98.896" y2="22.464"/>
			<path class="st1" d="M100.07,22.464"/>
			<path class="st0" d="M114.469,20.382H96.888c-0.701,0-1.27,0.569-1.27,1.27v22.377c0,0.701,0.568,1.27,1.27,1.27
				s1.27-0.568,1.27-1.27v-10.66h16.312c3.586,0,6.493-2.907,6.493-6.493C120.962,23.289,118.055,20.382,114.469,20.382z
				 M113.071,31.228H98.287v-8.07l0.007-0.694h14.778c2.891,0,5.235,1.962,5.235,4.382S115.963,31.228,113.071,31.228z"/>
			<path class="st1" d="M280.943,33.368"/>
			<path class="st0" d="M292.77,42.666l-8.001-8.889l-0.359-0.409h1.867c3.586,0,6.493-2.907,6.493-6.493
				c0-3.586-2.907-6.493-6.493-6.493h-17.581c-0.701,0-1.27,0.569-1.27,1.27v22.377c0,0.701,0.569,1.27,1.27,1.27
				s1.27-0.568,1.27-1.27v-10.66h10.819h0.159l10.018,10.761C290.961,44.129,292.921,44.909,292.77,42.666z M270.095,31.228v-8.07
				l0.006-0.694h14.778c2.891,0,5.235,1.962,5.235,4.382s-2.344,4.382-5.235,4.382H270.095z"/>
			<path class="st0" d="M178.744,43.412l-11.816-22.374l-0.027-0.029c0,0-0.489-0.698-1.224-0.733
				c-0.308-0.014-1.111-0.014-1.639,0.609l-11.87,22.346c-0.329,0.619-0.094,1.388,0.526,1.717l0.263,0.14
				c0.619,0.329,1.388,0.094,1.717-0.526l2.732-4.859l16.065,0.124l2.764,4.91c0.327,0.62,1.096,0.857,1.716,0.53l0.264-0.139
				C178.835,44.801,179.072,44.033,178.744,43.412z M172.085,36.968h-13.299l6.883-12.713l6.559,12.713H172.085z"/>
			<path class="st0" d="M204.194,40.99"/>
			<path class="st0" d="M204.194,40.99"/>
			<path class="st0" d="M241.366,30.673h1.404h20.803c0.703,0,1.272,0.572,1.272,1.277l0,0c0,0.705-0.57,1.277-1.272,1.277h-22.207
				v9.652h22.423c0.703,0,1.272,0.572,1.272,1.277l0,0c0,0.705-0.57,1.277-1.272,1.277h-24.968V21.511
				c0-0.705,0.57-1.277,1.272-1.277l0,0h0.051h23.759c0.639,0,1.157,0.569,1.157,1.27l0,0c0,0.701-0.518,1.27-1.157,1.27h-22.489
				v7.986"/>
			<path class="st0" d="M241.415,30.76"/>
		</g>
	</g>
	<g>
		<path class="st2" d="M5.032,48.319"/>
		<path class="st2" d="M8.945,59.153"/>
		<path class="st3" d="M77.357,40.874"/>
		<path class="st2" d="M74.938,28.391"/>
		<path class="st4" d="M74.778,28.043C40.281,16.761,22.004,38.675,22.004,38.675c-4.5-2.935-17.537-0.016-17.537-0.016l0,0
			C5.412,19.303,21.341,5.012,40.881,5.012C56.41,5.012,69.513,14.333,74.778,28.043"/>
		<g>
			<linearGradient id="SVGID_1_" gradientUnits="userSpaceOnUse" x1="72.2732" y1="38.9508" x2="87.2945" y2="46.4615">
				<stop  offset="0" style="stop-color:#D43F33"/>
				<stop  offset="0.2086" style="stop-color:#BB3C30"/>
				<stop  offset="0.4616" style="stop-color:#A7392D"/>
				<stop  offset="0.7223" style="stop-color:#9B372B"/>
				<stop  offset="1" style="stop-color:#98362A"/>
			</linearGradient>
			<path class="st5" d="M77.362,41.496C77.366,41.703,77.362,41.288,77.362,41.496L77.362,41.496z"/>
			
				<linearGradient id="SVGID_00000018936458363441507110000015091635656909530289_" gradientUnits="userSpaceOnUse" x1="64.7058" y1="54.0876" x2="79.7248" y2="61.5971">
				<stop  offset="0" style="stop-color:#D43F33"/>
				<stop  offset="0.2086" style="stop-color:#BB3C30"/>
				<stop  offset="0.4616" style="stop-color:#A7392D"/>
				<stop  offset="0.7223" style="stop-color:#9B372B"/>
				<stop  offset="1" style="stop-color:#98362A"/>
			</linearGradient>
			<path style="fill:url(#SVGID_00000018936458363441507110000015091635656909530289_);" d="M29.047,38.675
				c0,0,20.189,2.381,32.559,32.61l-0.198,0.375c0.093-0.063,0.181-0.134,0.274-0.199c0.001,0.002,0.001,0.003,0.002,0.005
				l0.005-0.01c9.47-6.59,15.674-17.548,15.674-29.96C49.064,24.062,29.047,38.675,29.047,38.675z"/>
		</g>
		
			<linearGradient id="SVGID_00000049197783501445686910000012047525610949959316_" gradientUnits="userSpaceOnUse" x1="8.5905" y1="52.1745" x2="2.721" y2="58.8266">
			<stop  offset="0" style="stop-color:#839D40"/>
			<stop  offset="0.003" style="stop-color:#839C40"/>
			<stop  offset="0.12" style="stop-color:#767F4C"/>
			<stop  offset="0.2399" style="stop-color:#65634D"/>
			<stop  offset="0.3612" style="stop-color:#564D46"/>
			<stop  offset="0.4836" style="stop-color:#46393C"/>
			<stop  offset="0.6075" style="stop-color:#36252E"/>
			<stop  offset="0.7334" style="stop-color:#22141D"/>
			<stop  offset="0.8625" style="stop-color:#0B0409"/>
			<stop  offset="1" style="stop-color:#000000"/>
		</linearGradient>
		<path style="fill:url(#SVGID_00000049197783501445686910000012047525610949959316_);" d="M8.945,59.153
			c-1.844-3.327-3.182-6.466-3.913-10.327c5.362-2.391,9.733-1.541,9.733-1.541s-2.92,2.838-5.862,11.788"/>
		
			<linearGradient id="SVGID_00000161629419158699294230000010670793803023484563_" gradientUnits="userSpaceOnUse" x1="36.1586" y1="63.7832" x2="12.4954" y2="122.8241">
			<stop  offset="0" style="stop-color:#FFF33B"/>
			<stop  offset="0.0205" style="stop-color:#F6E246"/>
			<stop  offset="0.1353" style="stop-color:#BBA85D"/>
			<stop  offset="0.2536" style="stop-color:#8E7C58"/>
			<stop  offset="0.3728" style="stop-color:#6C5A4E"/>
			<stop  offset="0.493" style="stop-color:#524040"/>
			<stop  offset="0.6147" style="stop-color:#3B2930"/>
			<stop  offset="0.7382" style="stop-color:#24151E"/>
			<stop  offset="0.865" style="stop-color:#0B0409"/>
			<stop  offset="1" style="stop-color:#000000"/>
		</linearGradient>
		<path style="fill:url(#SVGID_00000161629419158699294230000010670793803023484563_);" d="M59.266,73.009
			c-5.51,3.341-11.473,4.971-18.387,4.971c-12.996,0-24.074-6.281-30.536-16.512c2.426-7.404,8.792-15.162,8.792-15.162
			S44.68,44.147,59.266,73.009L59.266,73.009z"/>
		<g>
			
				<image style="overflow:visible;" width="503" height="397" xlink:href="D709D1DF.png"  transform="matrix(0.24 0 0 0.24 -18.9205 -24.9798)">
			</image>
		</g>
	</g>
</g>
</svg>
