<svg id="Layer_2" data-name="Layer 2" xmlns="http://www.w3.org/2000/svg" xmlns:xlink="http://www.w3.org/1999/xlink" viewBox="0 0 313.01 102.84"><defs><style>.cls-1{isolation:isolate;}.cls-2{fill:none;stroke:#000;stroke-miterlimit:10;}.cls-3{fill:#d43f33;}.cls-4{fill:#314d92;}.cls-5{fill:url(#linear-gradient);}.cls-6{fill:url(#linear-gradient-2);}.cls-7{fill:url(#linear-gradient-3);}.cls-8{fill:url(#linear-gradient-4);}</style><linearGradient id="linear-gradient" x1="79.54" y1="736.87" x2="94.55" y2="744.38" gradientTransform="translate(0 -688)" gradientUnits="userSpaceOnUse"><stop offset="0" stop-color="#d43f33"/><stop offset="0.21" stop-color="#bb3c30"/><stop offset="0.46" stop-color="#a7392d"/><stop offset="0.72" stop-color="#9b372b"/><stop offset="1" stop-color="#98362a"/></linearGradient><linearGradient id="linear-gradient-2" x1="71.97" y1="751.99" x2="86.99" y2="759.5" xlink:href="#linear-gradient"/><linearGradient id="linear-gradient-3" x1="15.87" y1="750.11" x2="10" y2="756.77" gradientTransform="translate(0 -688)" gradientUnits="userSpaceOnUse"><stop offset="0" stop-color="#839d40"/><stop offset="0" stop-color="#839c40"/><stop offset="0.12" stop-color="#767f4c"/><stop offset="0.24" stop-color="#65634d"/><stop offset="0.36" stop-color="#564d46"/><stop offset="0.48" stop-color="#46393c"/><stop offset="0.61" stop-color="#36252e"/><stop offset="0.73" stop-color="#22141d"/><stop offset="0.86" stop-color="#0b0409"/><stop offset="1"/></linearGradient><linearGradient id="linear-gradient-4" x1="43.4" y1="761.7" x2="19.74" y2="820.74" gradientTransform="translate(0 -688)" gradientUnits="userSpaceOnUse"><stop offset="0" stop-color="#fff33b"/><stop offset="0.02" stop-color="#f6e246"/><stop offset="0.14" stop-color="#bba85d"/><stop offset="0.25" stop-color="#8e7c58"/><stop offset="0.37" stop-color="#6c5a4e"/><stop offset="0.49" stop-color="#524040"/><stop offset="0.61" stop-color="#3b2930"/><stop offset="0.74" stop-color="#24151e"/><stop offset="0.86" stop-color="#0b0409"/><stop offset="1"/></linearGradient></defs><g class="cls-1"><path d="M99.1,55.2h-.7A1.06,1.06,0,0,1,97.2,54V31.6a1.06,1.06,0,0,1,1.2-1.2h.7a1.06,1.06,0,0,1,1.2,1.2V54A1.06,1.06,0,0,1,99.1,55.2Z" transform="translate(11.66 14.94)"/><path d="M120.5,46.5q-6.45.3-12.6,0V54a1.06,1.06,0,0,1-1.2,1.2H106a1.06,1.06,0,0,1-1.2-1.2V31.6a1.06,1.06,0,0,1,1.2-1.2c5.2-.1,10.1-.1,14.5,0,3.9.1,6.6,1,8,2.6a7.92,7.92,0,0,1,1.8,5.5,8.1,8.1,0,0,1-1.8,5.5C127.1,45.5,124.4,46.4,120.5,46.5Zm.3-2.6q6.3,0,6.3-5.4,0-5.1-6.3-5.4-6.45-.3-12.9,0V43.9Q114.05,44.05,120.8,43.9Z" transform="translate(11.66 14.94)"/><path d="M135.4,55.3a1.06,1.06,0,0,1-1.2-1.2V31.6a1.06,1.06,0,0,1,1.2-1.2h.7a1.06,1.06,0,0,1,1.2,1.2v21c2.1.2,4.9.2,8.5.2,3.8,0,6.6-.1,8.5-.3.8,0,1.2.3,1.2,1.2V54q0,1.2-.6,1.2A174.4,174.4,0,0,1,135.4,55.3Z" transform="translate(11.66 14.94)"/><path d="M158.3,55.2h-.9c-.4,0-.8-.1-.9-.4a.9.9,0,0,1,0-1c3.6-7.1,7.7-14.6,12.3-22.6a1.33,1.33,0,0,1,1.4-.9h.8a1.33,1.33,0,0,1,1.4.9c4.6,8,8.7,15.5,12.3,22.6a.9.9,0,0,1,0,1,1,1,0,0,1-.9.4h-.9a1.42,1.42,0,0,1-1.4-.9l-2.4-4.5a76.71,76.71,0,0,1-8.5.4,76.71,76.71,0,0,1-8.5-.4l-2.4,4.5A1.51,1.51,0,0,1,158.3,55.2Zm12.3-20.8-7.4,12.9c2.1.1,4.5.2,7.3.2s5.3-.1,7.4-.2Z" transform="translate(11.66 14.94)"/><path d="M189.4,55.2h-.7a1.06,1.06,0,0,1-1.2-1.2V31.6c0-.8.2-1.2.7-1.2h.4a2.11,2.11,0,0,1,1.3.5,250.3,250.3,0,0,1,19.3,19.2h.1V31.6a1.06,1.06,0,0,1,1.2-1.2h.7a1.06,1.06,0,0,1,1.2,1.2V54a1.06,1.06,0,0,1-1.2,1.2h-.5a1.8,1.8,0,0,1-1.5-.7,239,239,0,0,0-18.4-18.9h-.2V54A1.06,1.06,0,0,1,189.4,55.2Z" transform="translate(11.66 14.94)"/><path d="M218.7,55.2H218a1.06,1.06,0,0,1-1.2-1.2V31.6c0-.8.2-1.2.7-1.2h.4a2.11,2.11,0,0,1,1.3.5,250.3,250.3,0,0,1,19.3,19.2h.1V31.6a1.06,1.06,0,0,1,1.2-1.2h.7a1.06,1.06,0,0,1,1.2,1.2V54a1.06,1.06,0,0,1-1.2,1.2H240a1.8,1.8,0,0,1-1.5-.7,239,239,0,0,0-18.4-18.9h-.2V54A1.06,1.06,0,0,1,218.7,55.2Z" transform="translate(11.66 14.94)"/><path d="M247.4,55.2a1.06,1.06,0,0,1-1.2-1.2V31.6a1.06,1.06,0,0,1,1.2-1.2c9.4-.3,16.8-.3,22.1,0,.8,0,1.1.4,1.1,1.2v.3c0,.8-.4,1.2-1.2,1.1-2.9-.1-6.3-.2-10.1-.2-4.2,0-7.5.1-10,.2v8.5h19.4a1.06,1.06,0,0,1,1.2,1.2V43a1.06,1.06,0,0,1-1.2,1.2H249.3v8.2q3.45.15,10.2.3c4.1,0,7.5-.1,10.3-.2.8,0,1.2.4,1.2,1.1V54c0,.8-.2,1.2-.7,1.2C265.1,55.5,257.5,55.5,247.4,55.2Z" transform="translate(11.66 14.94)"/><path d="M277.4,55.2h-.7a1.06,1.06,0,0,1-1.2-1.2V31.6a1.06,1.06,0,0,1,1.2-1.2q7.8-.15,14.7,0c3.7.1,6.2.9,7.6,2.3a7.7,7.7,0,0,1,2.1,5.7,10.42,10.42,0,0,1-.5,3.3,5.17,5.17,0,0,1-1.9,2.6,8.51,8.51,0,0,1-3.6,1.5v.1a4.62,4.62,0,0,1,4.4,3.4l.5,1.6a12.61,12.61,0,0,0,1.2,2.9.89.89,0,0,1,0,1,1.27,1.27,0,0,1-.9.4H299c-.7,0-1.1-.2-1.3-.7a15.31,15.31,0,0,1-1.1-2.5l-.8-2.4a4.39,4.39,0,0,0-1.7-2.4,8.11,8.11,0,0,0-4.1-.7H278.6V54A1.06,1.06,0,0,1,277.4,55.2Zm1.2-22.1V43.9h13.2q6,0,6-5.4,0-5.1-6.3-5.4Q285,32.8,278.6,33.1Z" transform="translate(11.66 14.94)"/></g><g class="cls-1"><path d="M95.5,73.6l2.1-9.1h3a8.12,8.12,0,0,1,1.7.1,3.09,3.09,0,0,1,1.4.7,2.73,2.73,0,0,1,.9,1.2,4.31,4.31,0,0,1,.3,1.7,4.48,4.48,0,0,1-.4,2,5.37,5.37,0,0,1-1,1.6,6,6,0,0,1-1.2,1.1,3.39,3.39,0,0,1-1.5.6,8.12,8.12,0,0,1-1.7.1Zm1.6-1h1.6a10.07,10.07,0,0,0,1.9-.2l.9-.3a5.5,5.5,0,0,0,.9-.7,6.38,6.38,0,0,0,.8-1.4,4.84,4.84,0,0,0,.3-1.8,2.86,2.86,0,0,0-.4-1.7,1.78,1.78,0,0,0-1.1-.8,5.76,5.76,0,0,0-1.5-.1H98.7Z" transform="translate(11.66 14.94)"/><path d="M105.5,73.6,107,67h1.2l-1.5,6.6Zm1.8-7.9.3-1.3h1.2l-.3,1.3Z" transform="translate(11.66 14.94)"/><path d="M108.7,73.6l1.5-6.6h1.1l-.3,1.4a3.8,3.8,0,0,1,1.1-1.1,2.46,2.46,0,0,1,1.1-.4,3.71,3.71,0,0,1,.9.2l-.5,1a1.85,1.85,0,0,0-.7-.2,1.71,1.71,0,0,0-1.3.7,4.46,4.46,0,0,0-1.1,2.4l-.6,2.7h-1.2Z" transform="translate(11.66 14.94)"/><path d="M118.7,71.4l1.2.1a4.19,4.19,0,0,1-1.2,1.6,3.41,3.41,0,0,1-2.2.7,4,4,0,0,1-1.5-.3,2,2,0,0,1-1-1,3.31,3.31,0,0,1-.4-1.5,4.2,4.2,0,0,1,.6-2.1,3.42,3.42,0,0,1,1.4-1.5,4.14,4.14,0,0,1,1.9-.5,2.6,2.6,0,0,1,2.9,2.7,3.4,3.4,0,0,1-.1,1h-5.4v.3a2,2,0,0,0,.5,1.4,1.66,1.66,0,0,0,1.2.5,2.42,2.42,0,0,0,1.3-.4A1.89,1.89,0,0,0,118.7,71.4Zm-3.6-1.7h4.1v-.2a1.73,1.73,0,0,0-.5-1.3,1.66,1.66,0,0,0-1.2-.5,3,3,0,0,0-1.5.5A3.5,3.5,0,0,0,115.1,69.7Z" transform="translate(11.66 14.94)"/><path d="M126.3,71.2l1.2.1a4.2,4.2,0,0,1-1.3,1.8,3.17,3.17,0,0,1-2,.6,2.49,2.49,0,0,1-1.9-.7,2.58,2.58,0,0,1-.7-2,5.37,5.37,0,0,1,.5-2.1,3.64,3.64,0,0,1,1.4-1.6,3.51,3.51,0,0,1,2-.5,2.88,2.88,0,0,1,1.9.6,1.86,1.86,0,0,1,.7,1.6l-1.2.1a1.28,1.28,0,0,0-.4-1,1.78,1.78,0,0,0-1-.4,2,2,0,0,0-1.3.4,2.54,2.54,0,0,0-.9,1.3,5.08,5.08,0,0,0-.3,1.7,1.7,1.7,0,0,0,.4,1.3,1.28,1.28,0,0,0,1,.4,1.92,1.92,0,0,0,1.2-.4C126,72.1,126,71.8,126.3,71.2Z" transform="translate(11.66 14.94)"/><path d="M131.2,72.7l-.2.9a2.77,2.77,0,0,1-.9.1,2.13,2.13,0,0,1-1.2-.3.91.91,0,0,1-.3-.7c0-.1.1-.5.2-1l.9-3.8h-1l.2-.9h1l.4-1.6,1.4-.8-.6,2.4h1.2l-.2.9h-1.2l-.8,3.7c-.1.5-.2.7-.2.8a.37.37,0,0,0,.1.3c.1.1.2.1.4.1S131,72.7,131.2,72.7Z" transform="translate(11.66 14.94)"/><path d="M132.1,73.6l1.5-6.6h1.2l-1.5,6.6Zm1.8-7.9.3-1.3h1.2l-.3,1.3Z" transform="translate(11.66 14.94)"/><path d="M135.5,71.1a4.08,4.08,0,0,1,1.3-3.2,3.62,3.62,0,0,1,2.7-1,2.6,2.6,0,0,1,2.9,2.7,4.65,4.65,0,0,1-.5,2.1,2.94,2.94,0,0,1-1.4,1.5,4.55,4.55,0,0,1-2,.5,4.15,4.15,0,0,1-1.6-.3,2.44,2.44,0,0,1-1.1-.9A3.19,3.19,0,0,1,135.5,71.1Zm1.3-.1a2,2,0,0,0,.5,1.4,1.9,1.9,0,0,0,1.3.5,2.2,2.2,0,0,0,.8-.1,1.61,1.61,0,0,0,.7-.4,4.35,4.35,0,0,0,.6-.7,3,3,0,0,0,.4-.8,5,5,0,0,0,.2-1.2,2,2,0,0,0-.5-1.4,1.9,1.9,0,0,0-1.3-.5,2.28,2.28,0,0,0-1.1.3,5.5,5.5,0,0,0-.9.7,3.88,3.88,0,0,0-.6,1.1A4.1,4.1,0,0,0,136.8,71Z" transform="translate(11.66 14.94)"/><path d="M143.1,73.6l1.5-6.6h1.1l-.3,1.2a4.06,4.06,0,0,1,1.4-1,3.08,3.08,0,0,1,1.3-.3,2,2,0,0,1,1.4.4,1.66,1.66,0,0,1,.5,1.2c0,.2-.1.6-.2,1.2l-.9,4h-1.2l1-4.2a3.44,3.44,0,0,0,.1-.9.55.55,0,0,0-.3-.5,1.45,1.45,0,0,0-.7-.2,2.72,2.72,0,0,0-1.7.6,3.49,3.49,0,0,0-1.1,2.1l-.7,3.1h-1.2Z" transform="translate(11.66 14.94)"/><path d="M154.8,73.6l1.5-6.6h1.2L156,73.6Zm1.9-7.9.3-1.3h1.2l-.3,1.3Z" transform="translate(11.66 14.94)"/><path d="M158,73.6l1.5-6.6h1.1l-.3,1.2a5.27,5.27,0,0,1,1.4-1,3.08,3.08,0,0,1,1.3-.3,2,2,0,0,1,1.4.4,1.66,1.66,0,0,1,.5,1.2c0,.2-.1.6-.2,1.2l-.9,4h-1.2l1-4.2a3.44,3.44,0,0,0,.1-.9.55.55,0,0,0-.3-.5,1.45,1.45,0,0,0-.7-.2,2.72,2.72,0,0,0-1.7.6,3.49,3.49,0,0,0-1.1,2.1l-.7,3.1H158Z" transform="translate(11.66 14.94)"/><path d="M174.7,72.8a3.75,3.75,0,0,1-1.2.7,5.07,5.07,0,0,1-1.3.2,2.54,2.54,0,0,1-1.6-.5,1.82,1.82,0,0,1-.6-1.4,1.69,1.69,0,0,1,.3-1,2.34,2.34,0,0,1,.7-.7,3.58,3.58,0,0,1,1.1-.4c.3,0,.8-.1,1.6-.1a6.53,6.53,0,0,0,1.7-.2,2.49,2.49,0,0,0,.1-.8.6.6,0,0,0-.3-.6,2.27,2.27,0,0,0-1.3-.3,2.5,2.5,0,0,0-1.3.3,1.6,1.6,0,0,0-.7.9l-1.3-.1a3.09,3.09,0,0,1,1.2-1.5,4.65,4.65,0,0,1,2.1-.5,3.28,3.28,0,0,1,2.1.6,1.38,1.38,0,0,1,.6,1.1,5,5,0,0,1-.2,1.2l-.4,1.6a8.32,8.32,0,0,0-.2,1.3,1.83,1.83,0,0,0,.2.9h-1.3C174.8,73.4,174.7,73.1,174.7,72.8Zm.4-2.6a1.27,1.27,0,0,1-.6.1c-.2,0-.5.1-1,.1a13.89,13.89,0,0,0-1.5.2,1.61,1.61,0,0,0-.7.4.73.73,0,0,0-.2.6.91.91,0,0,0,.4.8,1.69,1.69,0,0,0,1,.3,2.66,2.66,0,0,0,1.2-.3,2.36,2.36,0,0,0,.9-.8C174.9,71.4,175,70.9,175.1,70.2Z" transform="translate(11.66 14.94)"/><path d="M183.4,73.6l-.6-9.1h1.4l.2,4.5a17.36,17.36,0,0,0,.1,1.8V72c.6-1,1-1.8,1.2-2.2l3.1-5.3h1.4l.3,5.3c0,.6.1,1.3.1,2.2.1-.2.2-.5.4-.9.3-.7.6-1.2.7-1.5l2.9-5.2H196l-5.1,9.1h-1.4l-.3-5.5c0-.5-.1-1.1-.1-1.7a13.09,13.09,0,0,1-.7,1.3l-3.5,5.9h-1.5Z" transform="translate(11.66 14.94)"/><path d="M195,71.1a4.08,4.08,0,0,1,1.3-3.2,3.62,3.62,0,0,1,2.7-1,2.6,2.6,0,0,1,2.9,2.7,4.65,4.65,0,0,1-.5,2.1,2.94,2.94,0,0,1-1.4,1.5,4.55,4.55,0,0,1-2,.5,4.15,4.15,0,0,1-1.6-.3,2.44,2.44,0,0,1-1.1-.9A5.77,5.77,0,0,1,195,71.1Zm1.3-.1a2,2,0,0,0,.5,1.4,1.9,1.9,0,0,0,1.3.5,2.2,2.2,0,0,0,.8-.1,1.61,1.61,0,0,0,.7-.4,4.35,4.35,0,0,0,.6-.7,3,3,0,0,0,.4-.8,5,5,0,0,0,.2-1.2,2,2,0,0,0-.5-1.4,1.9,1.9,0,0,0-1.3-.5,2.28,2.28,0,0,0-1.1.3,5.5,5.5,0,0,0-.9.7,3.88,3.88,0,0,0-.6,1.1A4.1,4.1,0,0,0,196.3,71Z" transform="translate(11.66 14.94)"/><path d="M202.6,73.6l1.5-6.6h1.1l-.3,1.4a3.8,3.8,0,0,1,1.1-1.1,2.46,2.46,0,0,1,1.1-.4,3.71,3.71,0,0,1,.9.2l-.5,1a1.85,1.85,0,0,0-.7-.2,1.71,1.71,0,0,0-1.3.7,4.46,4.46,0,0,0-1.1,2.4l-.6,2.7h-1.2Z" transform="translate(11.66 14.94)"/><path d="M207.2,73.6l2.1-9.1h1.2l-2.1,9.1Z" transform="translate(11.66 14.94)"/><path d="M215.4,72.6a3.31,3.31,0,0,1-2.2,1.1,2.06,2.06,0,0,1-1.7-.7,3,3,0,0,1-.7-2,5.45,5.45,0,0,1,.5-2.2,3.42,3.42,0,0,1,1.4-1.5,3.68,3.68,0,0,1,1.6-.5,2.35,2.35,0,0,1,2.1,1.2l.8-3.6h1.2l-2.1,9.1h-1.1ZM212,70.8a3.09,3.09,0,0,0,.2,1.1,1.79,1.79,0,0,0,.5.7,1.22,1.22,0,0,0,.9.3,1.9,1.9,0,0,0,1.5-.8,3.92,3.92,0,0,0,.9-2.6,1.66,1.66,0,0,0-.5-1.2,1.5,1.5,0,0,0-1.1-.4,1.9,1.9,0,0,0-1.5.8,10.91,10.91,0,0,0-.6,1.1A1.93,1.93,0,0,0,212,70.8Z" transform="translate(11.66 14.94)"/><path d="M222.4,71.1a4.08,4.08,0,0,1,1.3-3.2,3.62,3.62,0,0,1,2.7-1,2.6,2.6,0,0,1,2.9,2.7,4.65,4.65,0,0,1-.5,2.1,2.94,2.94,0,0,1-1.4,1.5,4.55,4.55,0,0,1-2,.5,4.15,4.15,0,0,1-1.6-.3,2.44,2.44,0,0,1-1.1-.9A5.77,5.77,0,0,1,222.4,71.1Zm1.3-.1a2,2,0,0,0,.5,1.4,1.9,1.9,0,0,0,1.3.5,2.2,2.2,0,0,0,.8-.1,1.61,1.61,0,0,0,.7-.4,4.35,4.35,0,0,0,.6-.7,3,3,0,0,0,.4-.8,5,5,0,0,0,.2-1.2,2,2,0,0,0-.5-1.4,1.9,1.9,0,0,0-1.3-.5,2.28,2.28,0,0,0-1.1.3,5.5,5.5,0,0,0-.9.7,3.88,3.88,0,0,0-.6,1.1A4.1,4.1,0,0,0,223.7,71Z" transform="translate(11.66 14.94)"/><path d="M230.2,73.6l1.3-5.8h-1.1l.2-.9h1.1l.3-.9a4.05,4.05,0,0,1,.3-1,1,1,0,0,1,.6-.5,3.09,3.09,0,0,1,1.1-.2,11.48,11.48,0,0,1,1.4.2l-.2,1a5.16,5.16,0,0,0-1.1-.2,1.42,1.42,0,0,0-.6.2,2.19,2.19,0,0,0-.3.8l-.2.7h1.4l-.2.9h-1.4l-1.3,5.8h-1.3Z" transform="translate(11.66 14.94)"/><path d="M238,73.6l2.1-9.1h4.2a5.67,5.67,0,0,1,1.6.2,1.76,1.76,0,0,1,.9.8,2.84,2.84,0,0,1,.4,1.2,2.66,2.66,0,0,1-.3,1.2,8.79,8.79,0,0,1-.6,1,2.41,2.41,0,0,1-.8.6l-.9.3a12.31,12.31,0,0,1-2,.2h-2.5l-.9,3.7H238Zm2.5-4.7h2.2a4.39,4.39,0,0,0,1.9-.3,2.54,2.54,0,0,0,1-.8,2.1,2.1,0,0,0,.4-1.1,1.45,1.45,0,0,0-.2-.7,1,1,0,0,0-.5-.4,4.15,4.15,0,0,0-1.3-.1h-2.6Z" transform="translate(11.66 14.94)"/><path d="M247.5,71.1a4.08,4.08,0,0,1,1.3-3.2,3.62,3.62,0,0,1,2.7-1,2.6,2.6,0,0,1,2.9,2.7,4.65,4.65,0,0,1-.5,2.1,2.94,2.94,0,0,1-1.4,1.5,4.55,4.55,0,0,1-2,.5,4.15,4.15,0,0,1-1.6-.3,2.44,2.44,0,0,1-1.1-.9A3.19,3.19,0,0,1,247.5,71.1Zm1.2-.1a2,2,0,0,0,.5,1.4,1.9,1.9,0,0,0,1.3.5,2.2,2.2,0,0,0,.8-.1,1.61,1.61,0,0,0,.7-.4,4.35,4.35,0,0,0,.6-.7,3,3,0,0,0,.4-.8,5,5,0,0,0,.2-1.2,2,2,0,0,0-.5-1.4,1.9,1.9,0,0,0-1.3-.5,2.28,2.28,0,0,0-1.1.3,5.5,5.5,0,0,0-.9.7,3.88,3.88,0,0,0-.6,1.1C248.8,70.3,248.7,70.6,248.7,71Z" transform="translate(11.66 14.94)"/><path d="M255.2,71.3l1.2-.1a1.88,1.88,0,0,0,.2.8,1.7,1.7,0,0,0,.6.6,3,3,0,0,0,1,.2,1.74,1.74,0,0,0,1.2-.3,1,1,0,0,0,.4-.7,1.42,1.42,0,0,0-.2-.6,3.26,3.26,0,0,0-1.2-.6,12.25,12.25,0,0,1-1.3-.5,4.35,4.35,0,0,1-.7-.6,1.08,1.08,0,0,1-.2-.8,1.46,1.46,0,0,1,.7-1.3,2.88,2.88,0,0,1,1.9-.6,3.28,3.28,0,0,1,2.1.6,1.8,1.8,0,0,1,.7,1.5l-1.2.1a1.05,1.05,0,0,0-.5-.9,2.13,2.13,0,0,0-1.2-.3,1.49,1.49,0,0,0-1,.3c-.2.2-.4.4-.4.6a.55.55,0,0,0,.3.5,3.83,3.83,0,0,0,1.1.5,6.91,6.91,0,0,1,1.8.9,1.61,1.61,0,0,1,.6,1.3,1.93,1.93,0,0,1-.3,1,2.72,2.72,0,0,1-1,.8,4.15,4.15,0,0,1-1.6.3,4,4,0,0,1-2.2-.6A2.4,2.4,0,0,1,255.2,71.3Z" transform="translate(11.66 14.94)"/><path d="M262.3,71.3l1.2-.1a1.88,1.88,0,0,0,.2.8,1.7,1.7,0,0,0,.6.6,3,3,0,0,0,1,.2,1.92,1.92,0,0,0,1.2-.3.75.75,0,0,0,.4-.7,1.42,1.42,0,0,0-.2-.6,3.26,3.26,0,0,0-1.2-.6c-.7-.3-1.1-.4-1.3-.5a4.35,4.35,0,0,1-.7-.6,1.08,1.08,0,0,1-.2-.8,1.46,1.46,0,0,1,.7-1.3,2.88,2.88,0,0,1,1.9-.6,3.28,3.28,0,0,1,2.1.6,1.8,1.8,0,0,1,.7,1.5l-1.2.1a1.05,1.05,0,0,0-.5-.9,2.13,2.13,0,0,0-1.2-.3,1.49,1.49,0,0,0-1,.3c-.2.2-.4.4-.4.6a.55.55,0,0,0,.3.5,3.83,3.83,0,0,0,1.1.5,6.91,6.91,0,0,1,1.8.9,1.61,1.61,0,0,1,.6,1.3,1.93,1.93,0,0,1-.3,1,2.72,2.72,0,0,1-1,.8,4.15,4.15,0,0,1-1.6.3,4,4,0,0,1-2.2-.6A2.35,2.35,0,0,1,262.3,71.3Z" transform="translate(11.66 14.94)"/><path d="M269.1,73.6l1.5-6.6h1.2l-1.5,6.6Zm1.9-7.9.3-1.3h1.2l-.3,1.3Z" transform="translate(11.66 14.94)"/><path d="M272.3,73.6l2.1-9.1h1.2l-.8,3.3a4.89,4.89,0,0,1,1.1-.7,3.55,3.55,0,0,1,1-.2,2.06,2.06,0,0,1,1.7.7,2.58,2.58,0,0,1,.7,2,4.15,4.15,0,0,1-.3,1.6,3.46,3.46,0,0,1-.7,1.2l-.8.8a3.55,3.55,0,0,1-.9.4,3.34,3.34,0,0,1-2.2-.2,2,2,0,0,1-.9-1.1l-.3,1.3Zm1.9-2.7v.2a2.23,2.23,0,0,0,.4,1.3,1.5,1.5,0,0,0,1.1.4,1.92,1.92,0,0,0,1.2-.4,2.54,2.54,0,0,0,.9-1.3,5.35,5.35,0,0,0,.4-1.6,1.7,1.7,0,0,0-.4-1.3,1.61,1.61,0,0,0-1.1-.5,1.66,1.66,0,0,0-1.2.5,2.75,2.75,0,0,0-.9,1.5A2.13,2.13,0,0,0,274.2,70.9Z" transform="translate(11.66 14.94)"/><path d="M280.1,73.6l1.5-6.6h1.2l-1.5,6.6Zm1.8-7.9.3-1.3h1.2l-.3,1.3Z" transform="translate(11.66 14.94)"/><path d="M283.2,73.6l2.1-9.1h1.2l-2.1,9.1Z" transform="translate(11.66 14.94)"/><path d="M286.4,73.6l1.5-6.6h1.2l-1.5,6.6Zm1.8-7.9.3-1.3h1.2l-.3,1.3Z" transform="translate(11.66 14.94)"/><path d="M292.5,72.7l-.2.9a2.77,2.77,0,0,1-.9.1,2.13,2.13,0,0,1-1.2-.3.91.91,0,0,1-.3-.7c0-.1.1-.5.2-1l.9-3.8h-1l.2-.9h1l.4-1.6,1.4-.8-.6,2.4h1.2l-.2.9h-1.2l-.8,3.7c-.1.5-.2.7-.2.8a.37.37,0,0,0,.1.3c.1.1.2.1.4.1S292.2,72.7,292.5,72.7Z" transform="translate(11.66 14.94)"/><path d="M293,76.2l.1-1.1a2.2,2.2,0,0,0,.8.1.85.85,0,0,0,.6-.2,3,3,0,0,0,.7-.8l.4-.6L294.4,67h1.2l.5,3.3c.1.7.2,1.3.3,2l3.3-5.3H301l-4.7,7.5a4.9,4.9,0,0,1-1.2,1.5,2.45,2.45,0,0,1-1.2.4A2.92,2.92,0,0,0,293,76.2Z" transform="translate(11.66 14.94)"/></g><path class="cls-2" d="M12.3,58.2" transform="translate(11.66 14.94)"/><path class="cls-2" d="M16.2,69.1" transform="translate(11.66 14.94)"/><path class="cls-3" d="M84.6,50.8" transform="translate(11.66 14.94)"/><path class="cls-2" d="M82.2,38.3" transform="translate(11.66 14.94)"/><path class="cls-4" d="M82,38C47.5,26.7,29.3,48.6,29.3,48.6c-4.5-2.9-17.5,0-17.5,0h0c.9-19.4,16.9-33.7,36.4-33.7A35.83,35.83,0,0,1,82,38" transform="translate(11.66 14.94)"/><path class="cls-5" d="M84.6,51.4Z" transform="translate(11.66 14.94)"/><path class="cls-6" d="M36.3,48.6S56.5,51,68.9,81.2l-.2.4c.1-.1.2-.1.3-.2h0a36.35,36.35,0,0,0,15.7-30C56.3,34,36.3,48.6,36.3,48.6Z" transform="translate(11.66 14.94)"/><path class="cls-7" d="M16.2,69.1a33.76,33.76,0,0,1-3.9-10.3A17.24,17.24,0,0,1,22,57.3S19.1,60,16.2,69.1" transform="translate(11.66 14.94)"/><path class="cls-8" d="M66.5,82.9a34.78,34.78,0,0,1-18.4,5A35.35,35.35,0,0,1,17.6,71.4C20,64,26.4,56.2,26.4,56.2s25.5-2.1,40.1,26.7Z" transform="translate(11.66 14.94)"/><image class="cls-1" width="508" height="400" transform="scale(0.24)" xlink:href="163EE9AB.png"/></svg>