<svg xmlns="http://www.w3.org/2000/svg" width="55" height="55" viewBox="0 0 55 55">
    <defs>
        <style>
            .cls-1{fill:#fff;stroke:#ee2e22}.cls-2{fill:#ee2e22}.cls-3{stroke:none}.cls-4{fill:none}
        </style>
    </defs>
    <g id="Group_3827" data-name="Group 3827" transform="translate(-1265.032 -1837.032)">
        <g id="Rectangle_2081" class="cls-1" data-name="Rectangle 2081" transform="translate(1265.032 1837.032)">
            <rect width="55" height="55" class="cls-3" rx="27.5"/>
            <rect width="54" height="54" x=".5" y=".5" class="cls-4" rx="27"/>
        </g>
        <g id="Group_3884" data-name="Group 3884" transform="translate(1276.67 1852.847)">
            <path id="Path_7913" d="M1713.224 1577.107a3.434 3.434 0 1 0 1.006-2.428 3.411 3.411 0 0 0-1.006 2.428zm3.434-2.715a2.715 2.715 0 1 1-2.715 2.715 2.718 2.718 0 0 1 2.715-2.715z" class="cls-2" data-name="Path 7913" transform="translate(-1700.649 -1569.531)"/>
            <path id="Path_7914" d="M2096.586 2197.763a5.222 5.222 0 0 0-.871-.4 5.908 5.908 0 0 0-.58-.175.359.359 0 0 0-.172.7c.174.043.346.095.51.153a4.518 4.518 0 0 1 .752.348.359.359 0 1 0 .362-.62z" class="cls-2" data-name="Path 7914" transform="translate(-2077.546 -2185.566)"/>
            <path id="Path_7915" d="M1733.4 2201.928a5.4 5.4 0 0 0-1.226.518.359.359 0 0 0 .362.621 4.677 4.677 0 0 1 1.062-.448.359.359 0 1 0-.2-.69z" class="cls-2" data-name="Path 7915" transform="translate(-1719.198 -2190.25)"/>
            <path id="Path_7916" d="M2686.833 1683.466a3.119 3.119 0 1 0-1.81-5.659.359.359 0 1 0 .417.585 2.4 2.4 0 1 1-.471 3.468.359.359 0 0 0-.558.453 3.109 3.109 0 0 0 2.422 1.153z" class="cls-2" data-name="Path 7916" transform="translate(-2660.129 -1671.846)"/>
            <path id="Path_7917" d="M2625.129 2244.474a.359.359 0 0 0 .5.091 3.975 3.975 0 0 1 1.17-.541.359.359 0 0 0-.2-.691 4.692 4.692 0 0 0-1.38.641.359.359 0 0 0-.09.5z" class="cls-2" data-name="Path 7917" transform="translate(-2601.572 -2231.158)"/>
            <path id="Path_7918" d="M849.3 1682.392a3.108 3.108 0 0 0 2.422-1.153.359.359 0 0 0-.557-.453 2.4 2.4 0 1 1-.471-3.468.359.359 0 1 0 .417-.585 3.119 3.119 0 1 0-1.81 5.659z" class="cls-2" data-name="Path 7918" transform="translate(-843.991 -1670.785)"/>
            <path id="Path_7919" d="M2232.685 2303.364l.125-.084a.359.359 0 0 0 .1-.5l-.643-.953a.359.359 0 0 0-.5-.1l-3.195 2.158a.359.359 0 0 0-.1.5l.644.953a.358.358 0 0 0 .229.152.382.382 0 0 0 .069.006.358.358 0 0 0 .2-.062l.125-.084 4.14 6.129a1.274 1.274 0 0 0 1.037.529h.058a2.179 2.179 0 0 0 1.953-1.359 1.273 1.273 0 0 0-.1-1.159zm3.043 7.679a1.373 1.373 0 0 1-.786.25.882.882 0 0 1-.121-.013l.485-.327a.359.359 0 0 0-.4-.6l-.629.425-3.939-5.832.659-.445a.359.359 0 0 0-.4-.6l-.956.646-.125.084-.241-.357 2.6-1.756.242.357-.324.219a.359.359 0 0 0 .292.645l3.952 5.851a.359.359 0 0 0 .239.628h.028a.851.851 0 0 1-.044.181 1.373 1.373 0 0 1-.532.644z" class="cls-2" data-name="Path 7919" transform="translate(-2209.668 -2288.812)"/>
            <path id="Path_7920" d="M1496.2 1408.534h.044a.359.359 0 0 0 .313-.4 5.457 5.457 0 0 1 2.938-5.511.359.359 0 0 0-.325-.641 6.117 6.117 0 0 0-2.668 2.635 6.173 6.173 0 0 0-.658 3.6.359.359 0 0 0 .356.317z" class="cls-2" data-name="Path 7920" transform="translate(-1485.83 -1399.854)"/>
            <path id="Path_7921" d="M1537.639 2029.181a.359.359 0 1 0-.657.29c.046.1.094.206.146.307a.359.359 0 0 0 .641-.325 5.184 5.184 0 0 1-.13-.272z" class="cls-2" data-name="Path 7921" transform="translate(-1526.486 -2019.373)"/>
            <path id="Path_7922" d="M1368.046 1238.7a7.55 7.55 0 1 0-.8-2.9 7.556 7.556 0 0 0 .8 2.9zm3.649-9.543a6.857 6.857 0 1 1-3.008 9.218 6.864 6.864 0 0 1 3.008-9.22z" class="cls-2" data-name="Path 7922" transform="translate(-1358.79 -1227.692)"/>
            <path id="Path_7923" d="M2777.908 2245.418h-.836v-1.37-.025-.024c0-1.244-1.045-2.348-2.662-2.814a.359.359 0 0 0-.2.69 3.62 3.62 0 0 1 1.575.878 1.772 1.772 0 0 1 .567 1.245v1.418h-4.675a.359.359 0 0 0 0 .718h6.229a.359.359 0 0 0 0-.719z" class="cls-2" data-name="Path 7923" transform="translate(-2746.076 -2229.036)"/>
            <path id="Path_7924" d="M680.9 2244.344l-6.011-.005v-1.539a.359.359 0 1 0-.718 0v1.536h-1.616V2243v-.025-.024c0-1.244-1.045-2.348-2.662-2.814a.359.359 0 0 0-.2.691 3.617 3.617 0 0 1 1.575.878 1.775 1.775 0 0 1 .568 1.246v1.388l-7.194-.006v-1.359-.024-.025a1.772 1.772 0 0 1 .567-1.245 3.615 3.615 0 0 1 1.575-.879.359.359 0 0 0-.2-.69c-1.617.466-2.662 1.57-2.662 2.814v1.408h-.662a.359.359 0 0 0 0 .718l17.638.015a.359.359 0 0 0 0-.718z" class="cls-2" data-name="Path 7924" transform="translate(-662.899 -2227.973)"/>
        </g>
    </g>
</svg>
