<svg xmlns="http://www.w3.org/2000/svg" width="82" height="82" viewBox="0 0 82 82">
    <defs>
        <style>
            .cls-1{fill:#fff;stroke:#ee2e22}.cls-2{fill:#ee2e22;stroke:#fff;stroke-width:.5px}.cls-3{stroke:none}.cls-4{fill:none}
        </style>
    </defs>
    <g id="Group_3818" data-name="Group 3818" transform="translate(-280 -1584)">
        <g id="Rectangle_2081" class="cls-1" data-name="Rectangle 2081" transform="translate(280 1584)">
            <rect width="82" height="82" class="cls-3" rx="41"/>
            <rect width="81" height="81" x=".5" y=".5" class="cls-4" rx="40.5"/>
        </g>
        <g id="Group_3788" data-name="Group 3788" transform="translate(258.477 1455.929)">
            <g id="Group_3780" data-name="Group 3780" transform="translate(43.487 173.777)">
                <g id="Group_3766" data-name="Group 3766" transform="translate(13.187 5.469)">
                    <g id="Group_3763" data-name="Group 3763" transform="translate(4.596)">
                        <g id="Group_3762" data-name="Group 3762">
                            <g id="Group_3761" data-name="Group 3761">
                                <path id="Path_7833" d="M64.043 194.7a.905.905 0 0 1-.9-.9v-10.2a.9.9 0 0 1 1.81 0v10.2a.905.905 0 0 1-.91.9z" class="cls-2" data-name="Path 7833" transform="translate(-63.138 -182.691)"/>
                            </g>
                        </g>
                    </g>
                    <g id="Group_3765" data-name="Group 3765" transform="translate(0 6.96)">
                        <g id="Group_3764" data-name="Group 3764">
                            <path id="Path_7834" d="M63.56 195.836a.9.9 0 0 1-.562-.2L58.4 192a.905.905 0 0 1 1.124-1.419l4.034 3.2 4.033-3.2A.905.905 0 1 1 68.717 192l-4.6 3.643a.9.9 0 0 1-.557.193z" class="cls-2" data-name="Path 7834" transform="translate(-58.059 -190.382)"/>
                        </g>
                    </g>
                </g>
                <g id="Group_3779" data-name="Group 3779">
                    <g id="Group_3772" data-name="Group 3772">
                        <g id="Group_3769" data-name="Group 3769" transform="translate(4.596)">
                            <g id="Group_3768" data-name="Group 3768">
                                <g id="Group_3767" data-name="Group 3767">
                                    <path id="Path_7835" d="M49.471 185.944a.9.9 0 0 1-.9-.9v-7.486a.9.9 0 1 1 1.81 0v7.486a.9.9 0 0 1-.91.9z" class="cls-2" data-name="Path 7835" transform="translate(-48.566 -176.648)"/>
                                </g>
                            </g>
                        </g>
                        <g id="Group_3771" data-name="Group 3771" transform="translate(0 4.246)">
                            <g id="Group_3770" data-name="Group 3770">
                                <path id="Path_7836" d="M48.988 186.793a.906.906 0 0 1-.563-.2l-4.6-3.644a.9.9 0 1 1 1.124-1.418l4.034 3.2 4.033-3.2a.9.9 0 1 1 1.124 1.418l-4.6 3.644a.905.905 0 0 1-.552.2z" class="cls-2" data-name="Path 7836" transform="translate(-43.487 -181.34)"/>
                            </g>
                        </g>
                    </g>
                    <g id="Group_3778" data-name="Group 3778" transform="translate(26.374)">
                        <g id="Group_3775" data-name="Group 3775" transform="translate(4.596)">
                            <g id="Group_3774" data-name="Group 3774">
                                <g id="Group_3773" data-name="Group 3773">
                                    <path id="Path_7837" d="M78.615 185.944a.9.9 0 0 1-.9-.9v-7.486a.9.9 0 1 1 1.81 0v7.486a.9.9 0 0 1-.91.9z" class="cls-2" data-name="Path 7837" transform="translate(-77.71 -176.648)"/>
                                </g>
                            </g>
                        </g>
                        <g id="Group_3777" data-name="Group 3777" transform="translate(0 4.246)">
                            <g id="Group_3776" data-name="Group 3776">
                                <path id="Path_7838" d="M78.132 186.793a.9.9 0 0 1-.562-.2l-4.6-3.644a.905.905 0 1 1 1.125-1.418l4.033 3.2 4.033-3.2a.9.9 0 1 1 1.124 1.418l-4.6 3.644a.905.905 0 0 1-.553.2z" class="cls-2" data-name="Path 7838" transform="translate(-72.631 -181.34)"/>
                            </g>
                        </g>
                    </g>
                </g>
            </g>
            <g id="Group_3787" data-name="Group 3787" transform="translate(46.691 146.446)">
                <g id="Group_3781" data-name="Group 3781">
                    <path id="Path_7839" d="M62.512 177.413a15.484 15.484 0 1 1 15.482-15.483 15.5 15.5 0 0 1-15.482 15.483zm0-29.157a13.674 13.674 0 1 0 13.672 13.674 13.689 13.689 0 0 0-13.672-13.674z" class="cls-2" data-name="Path 7839" transform="translate(-47.028 -146.446)"/>
                </g>
                <g id="Group_3786" data-name="Group 3786" transform="translate(9.439 3.86)">
                    <g id="Group_3785" data-name="Group 3785">
                        <g id="Group_3782" data-name="Group 3782" transform="translate(0 2.654)">
                            <path id="Path_7840" d="M63.542 171.569c-3.308 0-6-2.212-6-4.93a.9.9 0 0 1 1.81 0c0 1.72 1.879 3.12 4.188 3.12s4.194-1.4 4.194-3.12c0-.805-.776-3.106-4.226-3.106-4.174 0-6.051-2.895-6.051-4.951 0-2.723 2.69-4.937 6-4.937s6 2.214 6 4.937a.9.9 0 0 1-1.81 0c0-1.725-1.882-3.127-4.194-3.127s-4.188 1.4-4.188 3.127c0 1.024 1.037 3.141 4.241 3.141 4.4 0 6.036 3.015 6.036 4.916.004 2.719-2.69 4.93-6 4.93z" class="cls-2" data-name="Path 7840" transform="translate(-57.459 -153.645)"/>
                        </g>
                        <g id="Group_3783" data-name="Group 3783" transform="translate(5.133)">
                            <path id="Path_7841" d="M64.036 155.068a.905.905 0 0 1-.9-.9v-2.547a.9.9 0 0 1 1.81 0v2.547a.9.9 0 0 1-.91.9z" class="cls-2" data-name="Path 7841" transform="translate(-63.131 -150.712)"/>
                        </g>
                        <g id="Group_3784" data-name="Group 3784" transform="translate(5.133 18.881)">
                            <path id="Path_7842" d="M64.036 175.932a.905.905 0 0 1-.9-.9v-2.546a.9.9 0 1 1 1.81 0v2.546a.9.9 0 0 1-.91.9z" class="cls-2" data-name="Path 7842" transform="translate(-63.131 -171.576)"/>
                        </g>
                    </g>
                </g>
            </g>
        </g>
    </g>
</svg>
