<svg xmlns="http://www.w3.org/2000/svg" width="17.955" height="17.942" viewBox="0 0 17.955 17.942">
    <defs>
        <style>
            .cls-1{fill:#fff;stroke:#fff;stroke-width:.3px}
        </style>
    </defs>
    <g id="phone" transform="translate(-.838 -.814)">
        <g id="Group_3601" data-name="Group 3601" transform="translate(1 1.018)">
            <g id="Group_3600" data-name="Group 3600">
                <path id="Path_6500" d="M18.129 14.587l-3.56-2.374a1.039 1.039 0 0 0-1.391.226l-1.038 1.333a.443.443 0 0 1-.568.12l-.2-.109a11.922 11.922 0 0 1-3.107-2.44 11.971 11.971 0 0 1-2.438-3.107l-.108-.2a.444.444 0 0 1 .117-.57l1.332-1.035a1.04 1.04 0 0 0 .226-1.391L5.02 1.479a1.034 1.034 0 0 0-1.393-.314l-1.489.895A2.1 2.1 0 0 0 1.18 3.3c-.536 1.956-.132 5.327 4.834 10.294 3.95 3.95 6.891 5.012 8.913 5.012a5.193 5.193 0 0 0 1.378-.18 2.1 2.1 0 0 0 1.243-.958l.9-1.488a1.034 1.034 0 0 0-.319-1.393zm-.192 1.093l-.893 1.489a1.515 1.515 0 0 1-.894.693c-1.8.5-4.954.085-9.721-4.683S1.251 5.262 1.746 3.458a1.517 1.517 0 0 1 .694-.9l1.488-.888a.448.448 0 0 1 .6.136l1.29 1.936 1.087 1.624a.451.451 0 0 1-.1.6l-1.33 1.04A1.026 1.026 0 0 0 5.2 8.323l.106.192a12.435 12.435 0 0 0 2.544 3.242 12.448 12.448 0 0 0 3.242 2.54l.193.106a1.026 1.026 0 0 0 1.317-.272l1.035-1.331a.451.451 0 0 1 .6-.1l3.56 2.374a.448.448 0 0 1 .14.606z" class="cls-1" data-name="Path 6500" transform="translate(-1 -1.018)"/>
                <path id="Path_6501" d="M282.921 69.91a4.989 4.989 0 0 1 4.983 4.983.293.293 0 1 0 .586 0 5.575 5.575 0 0 0-5.569-5.569.293.293 0 1 0 0 .586z" class="cls-1" data-name="Path 6501" transform="translate(-272.954 -66.978)"/>
                <path id="Path_6502" d="M282.921 121.11a3.228 3.228 0 0 1 3.224 3.224.293.293 0 1 0 .586 0 3.815 3.815 0 0 0-3.811-3.811.293.293 0 1 0 0 .586z" class="cls-1" data-name="Path 6502" transform="translate(-272.954 -116.419)"/>
                <path id="Path_6503" d="M282.921 172.31a1.467 1.467 0 0 1 1.466 1.466.293.293 0 1 0 .586 0 2.054 2.054 0 0 0-2.052-2.052.293.293 0 0 0 0 .586z" class="cls-1" data-name="Path 6503" transform="translate(-272.954 -165.86)"/>
            </g>
        </g>
    </g>
</svg>
