<svg xmlns="http://www.w3.org/2000/svg" width="82" height="82" viewBox="0 0 82 82">
    <defs>
        <style>
            .cls-1{fill:#fff;stroke:#ee2e22}.cls-2{fill:#ee2e22;stroke:#fff;stroke-width:.3px}.cls-3{stroke:none}.cls-4{fill:none}
        </style>
    </defs>
    <g id="Group_3821" data-name="Group 3821" transform="translate(-280 -1306)">
        <g id="Rectangle_2081" class="cls-1" data-name="Rectangle 2081" transform="translate(280 1306)">
            <rect width="82" height="82" class="cls-3" rx="41"/>
            <rect width="81" height="81" x=".5" y=".5" class="cls-4" rx="40.5"/>
        </g>
        <path id="suitcase" d="M38.04 6.006h-8.676V3.337A3.341 3.341 0 0 0 26.027 0H14.015a3.341 3.341 0 0 0-3.337 3.337v2.669H2a2 2 0 0 0-2 2v14.858a2.011 2.011 0 0 0 1.335 1.884v9.288a2 2 0 0 0 2 2h33.37a2 2 0 0 0 2-2v-9.287a2.012 2.012 0 0 0 1.335-1.885V8.008a2 2 0 0 0-2-2.002zM12.013 3.337a2 2 0 0 1 2-2h12.014a2 2 0 0 1 2 2v2.669h-1.332V3.337a.667.667 0 0 0-.667-.667H14.015a.667.667 0 0 0-.667.667v2.669h-1.335zM25.36 6.006H14.682V4H25.36zm12.013 28.03a.667.667 0 0 1-.667.667H3.337a.667.667 0 0 1-.667-.667v-9.059L17.352 27v1.7a2 2 0 0 0 2 2h1.335a2 2 0 0 0 2-2V27l14.682-2.025zM21.356 28.7a.667.667 0 0 1-.667.667h-1.335a.667.667 0 0 1-.667-.667v-4a.667.667 0 0 1 .667-.667h1.335a.667.667 0 0 1 .667.667zm17.352-5.833a.667.667 0 0 1-.574.662l-.185.025-15.258 2.1v-.962a2 2 0 0 0-2-2h-1.337a2 2 0 0 0-2 2v.962L1.909 23.525a.667.667 0 0 1-.574-.662V8.008A.667.667 0 0 1 2 7.341h36.04a.667.667 0 0 1 .667.667zm0 0" class="cls-2" transform="translate(301.241 1328.867)"/>
    </g>
</svg>
