<svg xmlns="http://www.w3.org/2000/svg" width="82" height="82" viewBox="0 0 82 82">
    <defs>
        <style>
            .cls-1{fill:#fff;stroke:#ee2e22}.cls-2{fill:#ee2e22;stroke:#fff;stroke-width:.5px}.cls-3{stroke:none}.cls-4{fill:none}
        </style>
    </defs>
    <g id="Group_3820" data-name="Group 3820" transform="translate(-765 -1307)">
        <g id="Rectangle_2081" class="cls-1" data-name="Rectangle 2081" transform="translate(765 1307)">
            <rect width="82" height="82" class="cls-3" rx="41"/>
            <rect width="81" height="81" x=".5" y=".5" class="cls-4" rx="40.5"/>
        </g>
        <g id="Group_805" data-name="Group 805" transform="translate(790.639 1324.363)">
            <path id="Path_1380" d="M114.63 38.061a.69.69 0 0 0-.693.688v6.47a.382.382 0 0 1-.382.38h-3.724V32.048a.693.693 0 0 0-1.385 0V45.6h-7.5l2.175-2.376a1.228 1.228 0 0 0 .3-.99v-.021l-2.071-12.154.558-.834a1.576 1.576 0 0 0 .992.427 1.214 1.214 0 0 0 1.086-.667l2.184-4.349 4.976 1.914a4.771 4.771 0 0 1 2.794 4.334v4.654a.693.693 0 0 0 1.385 0v-4.654a6.146 6.146 0 0 0-3.656-5.608l-.013-.005-8.282-3.186v-1.931a6.438 6.438 0 0 0 2.457-4.241 3.01 3.01 0 0 0 1.761-.714 2.908 2.908 0 0 0 .307-4.122V8.528a8.586 8.586 0 0 0-17.171 0v2.616a2.752 2.752 0 0 0-.714 1.842 2.908 2.908 0 0 0 1.018 2.214 3.008 3.008 0 0 0 1.761.713 6.372 6.372 0 0 0 2.6 4.343v1.828l-8.277 3.186-.013.005a6.146 6.146 0 0 0-3.656 5.608v14.336a1.764 1.764 0 0 0 1.768 1.756h6.6a.688.688 0 1 0 0-1.376h-1.49V32.048a.693.693 0 0 0-1.385 0V45.6h-3.725a.382.382 0 0 1-.382-.38V30.883a4.771 4.771 0 0 1 2.793-4.334l4.974-1.914 2.185 4.349a1.214 1.214 0 0 0 1.086.667 1.575 1.575 0 0 0 .992-.427l.558.834-2.073 12.154v.021a1.228 1.228 0 0 0 .3.99l2.171 2.377h-2.77a.688.688 0 1 0 0 1.376h18.507a1.764 1.764 0 0 0 1.768-1.756v-6.47a.691.691 0 0 0-.694-.689zm-9.761-13.925l-2.037 4.054-2.449-1.728 2.516-3.084zm-4.095 4.291l-.528.79h-1.727l-.528-.79 1.392-.982zm-4-6.121v-1.288a7.07 7.07 0 0 0 2.619.493 6.541 6.541 0 0 0 2.591-.536v1.336l-2.6 3.191zm10.45-9.32a1.537 1.537 0 0 1-.539 1.17 1.618 1.618 0 0 1-.8.366V11.45a1.56 1.56 0 0 1 1.34 1.536zm-14.49 1.536a1.558 1.558 0 0 1-1.334-1.536 1.638 1.638 0 0 1 1.339-1.5zm.037-4.439a3.444 3.444 0 0 0-.662.148v-1.7a7.2 7.2 0 0 1 14.4 0v1.655a3.1 3.1 0 0 0-.625-.12c0-.664.006-.536-2.181-2.871A1.239 1.239 0 0 0 102.131 7a13.424 13.424 0 0 1-8.074 2.159 1.231 1.231 0 0 0-1.285.924zm1.348 4.981v-4.52a14.879 14.879 0 0 0 8.658-2.32c1 1.07 1.546 1.631 1.721 1.844v4.995a5.191 5.191 0 0 1-10.379 0zm1.814 13.126L93.9 24.136l1.967-.757 2.516 3.085zm.795 14.17l2.005-11.768h1.3l2.005 11.768-2.655 2.9z" class="cls-2" data-name="Path 1380" transform="translate(-83.447)"/>
        </g>
    </g>
</svg>
