<svg xmlns="http://www.w3.org/2000/svg" width="82" height="82" viewBox="0 0 82 82">
    <defs>
        <style>
            .cls-1{fill:#fff;stroke:#ee2e22}.cls-2{fill:#ee2e22}.cls-3{stroke:none}.cls-4{fill:none}
        </style>
    </defs>
    <g id="Group_3825" data-name="Group 3825" transform="translate(-265 -1862)">
        <g id="Rectangle_2081" class="cls-1" data-name="Rectangle 2081" transform="translate(265 1862)">
            <rect width="82" height="82" class="cls-3" rx="41"/>
            <rect width="81" height="81" x=".5" y=".5" class="cls-4" rx="40.5"/>
        </g>
        <g id="Group_3760" data-name="Group 3760" transform="translate(-124.595 1467.454)">
            <path id="Path_7831" d="M661.857 440.143a.624.624 0 0 0 .823-.32 5.007 5.007 0 0 1 3.944-2.938l3.748-.469a8.669 8.669 0 0 0 5.792 2.268 10.438 10.438 0 0 0 6.243-2.272l3.778.472a5.007 5.007 0 0 1 3.944 2.938.624.624 0 1 0 1.143-.5 6.258 6.258 0 0 0-4.932-3.675l-3.885-.486-.892-.595a2.7 2.7 0 0 1-1.2-2.251v-1.722a5.6 5.6 0 0 0 1.665-3.988v-1.884a1.678 1.678 0 0 0 .353-.254c.663-.618 1-1.824 1-3.585 0-2.318-.495-3.936-1.513-4.946-1.383-1.373-3.429-1.357-5.4-1.342a8.509 8.509 0 0 1-4.252-.644.624.624 0 0 0-.917.367 11.291 11.291 0 0 1-1.113 2.607 6.81 6.81 0 0 0-1.055 3.854c0 1.761.369 2.984 1.1 3.637a1.907 1.907 0 0 0 .568.357v1.833a5.6 5.6 0 0 0 1.665 3.988v1.722a2.7 2.7 0 0 1-1.2 2.251l-.892.595-3.886.486a6.259 6.259 0 0 0-4.932 3.675.624.624 0 0 0 .303.821zm9.414-22.617a13.114 13.114 0 0 0 1-2.162 11.4 11.4 0 0 0 4.2.479c1.8-.016 3.5-.027 4.515.98.77.763 1.144 2.091 1.144 4.059a8.005 8.005 0 0 1-.15 1.673 5.4 5.4 0 0 0-.274-1.14.651.651 0 0 0-.051-.139 5.5 5.5 0 0 0-.79-1.421l-.582-1.045a.623.623 0 0 0-.545-.321c-.157 0-.317 0-.481.01a.606.606 0 0 0-.279.013c-.352.019-.716.048-1.092.079-1.731.139-3.693.3-4.278-.641a.625.625 0 0 0-1.153.3 4.811 4.811 0 0 1-1.2 3.087.623.623 0 0 0-.228.328 5.68 5.68 0 0 0-.23 1.462 5.055 5.055 0 0 1-.419-2.353 5.642 5.642 0 0 1 .893-3.248zm.764 9.08v-2.215a.6.6 0 0 0 .011-.2c0-.023-.006-.045-.011-.067v-.852a4.4 4.4 0 0 1 .135-1.082 5.138 5.138 0 0 0 1.363-2.693c1.179.6 2.891.46 4.449.336.489-.039.957-.077 1.388-.092l.327.587a.573.573 0 0 0 .129.232l.685 1.231a4.253 4.253 0 0 1 .263 1.48v3.329a4.36 4.36 0 0 1-1.433 3.233l-.034.03a4.36 4.36 0 0 1-5.8.006.72.72 0 0 0-.041-.037 4.36 4.36 0 0 1-1.431-3.227zm-.1 9a3.945 3.945 0 0 0 1.761-3.289v-.787a5.608 5.608 0 0 0 5.41 0v.787a3.946 3.946 0 0 0 1.761 3.289l.269.18c-3.267 2.2-6.735 2.219-9.529.039z" class="cls-2" data-name="Path 7831" transform="translate(-245.81)"/>
            <path id="Path_7832" d="M455.566 1098.318h-9.236l2.358-12.578a.625.625 0 0 0-.614-.74h-34.958a.625.625 0 0 0-.614.74l2.358 12.578h-9.236a.624.624 0 0 0 0 1.249h49.941a.624.624 0 0 0 0-1.249zm-8.243-12.069l-2.263 12.069h-28.929l-2.263-12.069z" class="cls-2" data-name="Path 7832" transform="translate(0 -643.204)"/>
        </g>
    </g>
</svg>
