<svg xmlns="http://www.w3.org/2000/svg" width="55" height="55" viewBox="0 0 55 55">
    <defs>
        <style>
            .cls-1{fill:#fff;stroke:#ee2e22}.cls-2{fill:#ee2e22;stroke:#fff;stroke-width:.2px}.cls-3{stroke:none}.cls-4{fill:none}
        </style>
    </defs>
    <g id="Group_3817" data-name="Group 3817" transform="translate(-780.938 -1862.938)">
        <g id="Group_3889" data-name="Group 3889" transform="translate(780.938 1862.938)">
            <g id="Rectangle_2081" class="cls-1" data-name="Rectangle 2081">
                <rect width="55" height="55" class="cls-3" rx="27.5"/>
                <rect width="54" height="54" x=".5" y=".5" class="cls-4" rx="27"/>
            </g>
            <g id="Group_3888" data-name="Group 3888" transform="translate(14.791 14.791)">
                <g id="Group_3885" data-name="Group 3885" transform="translate(0 21.787)">
                    <path id="Path_7925" d="M46.631 226.631H43V223h.807v2.824h2.824z" class="cls-2" data-name="Path 7925" transform="translate(-43 -223)"/>
                </g>
                <g id="Group_3886" data-name="Group 3886" transform="translate(21.787)">
                    <path id="Path_7926" d="M154.631 118.631h-.807v-2.824H151V115h3.631z" class="cls-2" data-name="Path 7926" transform="translate(-151 -115)"/>
                </g>
                <path id="Path_7927" d="M91.554 179.762a3.242 3.242 0 0 0-1.956-2.1 3.2 3.2 0 0 0-1.138-.208v-.676a3.335 3.335 0 0 0 .807-2.35 2.6 2.6 0 0 0-.383-1.367 2.682 2.682 0 0 0 .383-1.659.4.4 0 0 0-.4-.4h-2.02a2.423 2.423 0 0 0-2.421 2.421v1.21a.4.4 0 0 0 .011.091 3.2 3.2 0 0 0 .8 2.059v.674A3.225 3.225 0 0 0 82 180.684v.4a.4.4 0 0 0 .4.4h8.876a.4.4 0 0 0 .4-.4v-.4a3.214 3.214 0 0 0-.122-.922zm-3.9-1.959v.057a.4.4 0 0 1-.4.4h-.807a.4.4 0 0 1-.4-.4v-.548a2.4 2.4 0 0 0 1.605 0v.486zm.139-1.491a1.489 1.489 0 0 1-1.89 0 2.316 2.316 0 0 1-.663-1.651v-.006a1.22 1.22 0 0 1 .024-.074l.011-.03.027-.073.018-.044.034-.079.025-.053a1.74 1.74 0 0 1 .043-.087l.031-.059a2.26 2.26 0 0 1 .054-.094l.036-.061c.022-.035.046-.071.071-.107l.037-.054c.039-.054.081-.109.127-.163a4.609 4.609 0 0 0 1.069.15c.128 0 .248-.006.365-.014l.091-.008c.1-.009.2-.022.291-.037l.041-.006a2.842 2.842 0 0 0 .292-.07l.069-.022a2.226 2.226 0 0 0 .218-.083l.035-.014a1.8 1.8 0 0 1 .212.86 2.45 2.45 0 0 1-.67 1.879zm-.945-4.5h1.606a1.136 1.136 0 0 1-.343.907 2.042 2.042 0 0 1-1.263.3 4.2 4.2 0 0 1-1.075-.183.412.412 0 0 0-.116-.018h-.006a.4.4 0 0 0-.088.01l-.022.006a.414.414 0 0 0-.071.028l-.025.013a.4.4 0 0 0-.079.059 3.057 3.057 0 0 0-.079.082 1.617 1.617 0 0 1 1.56-1.208zm-3.934 8.184a2.421 2.421 0 0 1 2.321-1.729h.07a1.212 1.212 0 0 0 1.14.807v1.614h-3.63a2.41 2.41 0 0 1 .097-.696zm4.337.692v-1.618a1.211 1.211 0 0 0 1.14-.807h.072a2.394 2.394 0 0 1 .853.156 2.415 2.415 0 0 1 1.568 2.265z" class="cls-2" data-name="Path 7927" transform="translate(-74.136 -159.704)"/>
                <path id="Path_7928" d="M126.414 171.456v-.674a3.206 3.206 0 0 0 .794-2.055.4.4 0 0 0 .013-.1v-1.21a2.421 2.421 0 1 0-4.842 0v1.21a.389.389 0 0 0 .011.089 3.2 3.2 0 0 0 .8 2.061v.674a3.237 3.237 0 0 0-1.976.678 4.022 4.022 0 0 1 .816.429 2.419 2.419 0 0 1 1.16-.3h.07a1.212 1.212 0 0 0 1.14.807h.807a1.211 1.211 0 0 0 1.14-.807h.072a2.424 2.424 0 0 1 2.421 2.421h-5.24a4 4 0 0 1 .167.807h5.47a.4.4 0 0 0 .4-.4v-.4a3.231 3.231 0 0 0-3.223-3.23zm-1.614-5.648a1.617 1.617 0 0 1 1.563 1.209l-.079-.082a.4.4 0 0 0-.409-.1 3.258 3.258 0 0 1-2.151 0 .4.4 0 0 0-.116-.018h-.008a.406.406 0 0 0-.088.01l-.021.006a.4.4 0 0 0-.072.028l-.024.013a.4.4 0 0 0-.079.06l-.079.081a1.617 1.617 0 0 1 1.563-1.207zm.807 6v.057a.4.4 0 0 1-.4.4h-.807a.4.4 0 0 1-.4-.4v-.548a2.4 2.4 0 0 0 1.605 0zm.138-1.491a1.489 1.489 0 0 1-1.89 0 2.316 2.316 0 0 1-.663-1.651v-.006a1.22 1.22 0 0 1 .024-.074l.011-.03.027-.073.018-.044.034-.079.025-.053a1.74 1.74 0 0 1 .043-.087l.031-.059a2.26 2.26 0 0 1 .054-.094l.041-.067c.022-.035.046-.071.071-.107l.037-.054c.039-.054.081-.109.127-.163a3.873 3.873 0 0 0 2.137 0c.046.054.087.109.126.164l.037.054c.024.036.049.072.071.107l.037.062c.019.032.037.063.053.094l.032.061.042.085.025.055.033.078.019.045.027.073.011.03.026.079a2.319 2.319 0 0 1-.666 1.649z" class="cls-2" data-name="Path 7928" transform="translate(-105.433 -154.914)"/>
                <path id="Path_7929" d="M90.1 153.63a2.626 2.626 0 1 1 4.925-.851 1.211 1.211 0 0 1 .612.852 3.428 3.428 0 1 0-6.055.709 3.255 3.255 0 0 1 .518-.71z" class="cls-2" data-name="Path 7929" transform="translate(-79.72 -142.141)"/>
                <g id="Group_3887" data-name="Group 3887" transform="translate(5.095 2.541)">
                    <path id="Path_7930" d="M69.083 134.34c.032-.232.073-.462.127-.689l2.013.639.118-.392a4.86 4.86 0 0 1 1.058-1.868l.263-.292-1.544-1.468a6.77 6.77 0 0 1 2.839-1.692l.466 2.106.4-.092a4.513 4.513 0 0 1 2.1 0l.4.092.467-2.106a6.769 6.769 0 0 1 2.839 1.692l-1.544 1.468.264.292a4.862 4.862 0 0 1 1.051 1.87l.118.392 2.013-.639c.054.227.1.457.127.689a3.211 3.211 0 0 1 .827.138 8.012 8.012 0 0 0-.289-1.456l-.118-.392-2.038.647a5.762 5.762 0 0 0-.846-1.488l1.562-1.485-.264-.292a7.584 7.584 0 0 0-3.921-2.326l-.4-.092-.472 2.132a5.229 5.229 0 0 0-1.662 0l-.472-2.132-.4.092a7.583 7.583 0 0 0-3.921 2.326l-.263.292 1.562 1.485a5.635 5.635 0 0 0-.846 1.488l-2.038-.647-.118.392a7.986 7.986 0 0 0-.289 1.456 3.21 3.21 0 0 1 .831-.14z" class="cls-2" data-name="Path 7930" transform="translate(-68.255 -127.594)"/>
                </g>
                <path id="Path_7931" d="M55.043 174.684h-5.231a2.423 2.423 0 0 1 2.421-2.421h.07a1.212 1.212 0 0 0 1.14.807h.807a1.211 1.211 0 0 0 1.14-.807h.072a2.4 2.4 0 0 1 1.161.3 4.028 4.028 0 0 1 .811-.426 3.209 3.209 0 0 0-1.973-.678v-.674a3.206 3.206 0 0 0 .794-2.055.4.4 0 0 0 .013-.1v-1.21a2.421 2.421 0 1 0-4.842 0v1.21a.4.4 0 0 0 .011.091 3.2 3.2 0 0 0 .8 2.059v.674a3.231 3.231 0 0 0-3.228 3.228v.4a.4.4 0 0 0 .4.4h5.468a4 4 0 0 1 .166-.798zm-.39-2.881v.057a.4.4 0 0 1-.4.4h-.807a.4.4 0 0 1-.4-.4v-.548a2.4 2.4 0 0 0 1.605 0zm-.807-6a1.617 1.617 0 0 1 1.563 1.209l-.079-.082a.4.4 0 0 0-.409-.1 3.258 3.258 0 0 1-2.151 0 .4.4 0 0 0-.116-.018h-.006a.406.406 0 0 0-.088.01l-.021.006a.4.4 0 0 0-.072.028l-.024.013a.4.4 0 0 0-.079.06l-.079.081a1.617 1.617 0 0 1 1.562-1.202zm-1.608 2.852v-.006a1.22 1.22 0 0 1 .024-.074l.011-.03.027-.073.018-.044.034-.079.025-.053a1.74 1.74 0 0 1 .043-.087l.031-.059a2.26 2.26 0 0 1 .054-.094l.036-.061c.022-.035.046-.071.071-.107l.037-.054c.039-.054.081-.109.127-.163a3.873 3.873 0 0 0 2.137 0c.046.054.087.109.126.164l.037.054c.024.036.049.072.071.107l.037.062c.019.032.037.063.053.094l.032.061.042.085.025.055.033.078.019.045.027.073.011.03.026.079a2.319 2.319 0 0 1-.663 1.652 1.489 1.489 0 0 1-1.89 0 2.316 2.316 0 0 1-.663-1.651z" class="cls-2" data-name="Path 7931" transform="translate(-47.794 -154.914)"/>
            </g>
        </g>
    </g>
</svg>
